SplineFontDB: 3.0
FontName: Jost-Black
FullName: Jost* 900 Black
FamilyName: Jost* Black
Weight: Black
Copyright: This typeface is licensed under the SIL open font license.
UComments: "2016-6-10: Created with FontForge (http://fontforge.org)"
Version: 003.400
ItalicAngle: 0
UnderlinePosition: -100
UnderlineWidth: 50
Ascent: 800
Descent: 200
InvalidEm: 0
LayerCount: 2
Layer: 0 0 "Back" 1
Layer: 1 0 "Fore" 0
PreferredKerning: 4
XUID: [1021 31 -699969567 16188444]
FSType: 0
OS2Version: 0
OS2_WeightWidthSlopeOnly: 0
OS2_UseTypoMetrics: 0
CreationTime: 1465610489
ModificationTime: 1562964755
PfmFamily: 33
TTFWeight: 900
TTFWidth: 5
LineGap: 100
VLineGap: 0
OS2TypoAscent: 825
OS2TypoAOffset: 0
OS2TypoDescent: -225
OS2TypoDOffset: 0
OS2TypoLinegap: 100
OS2WinAscent: 900
OS2WinAOffset: 0
OS2WinDescent: 300
OS2WinDOffset: 0
HheadAscent: 1030
HheadAOffset: 0
HheadDescent: -350
HheadDOffset: 0
OS2CapHeight: 700
OS2XHeight: 460
OS2Vendor: 'PfEd'
Lookup: 1 0 0 "alt a" { "alt a"  } ['ss01' ('DFLT' <'dflt' > 'latn' <'dflt' > ) ]
Lookup: 1 0 0 "Tabular Numbers lookup" { "Tabular Numbers lookup"  } ['tnum' ('DFLT' <'dflt' > 'grek' <'dflt' > 'latn' <'dflt' > ) ]
Lookup: 258 0 0 "Lets get our kern on" { "kernin like nobodys business" [150,0,0] } ['kern' ('DFLT' <'dflt' > 'latn' <'dflt' > ) ]
MarkAttachClasses: 1
DEI: 91125
KernClass2: 16 14 "kernin like nobodys business"
 43 slash seven V W Wcircumflex uni040E uni0423
 175 quotedbl quotesingle asterisk grave dieresis ordfeminine macron degree acute ordmasculine circumflex breve dotaccent ring tilde quoteleft quoteright quotedblleft quotedblright
 25 nine question F P uni0420
 131 A L backslash Agrave Aacute Acircumflex Atilde Adieresis Aring Amacron Abreve Aogonek Lacute uni013B Lslash uni0410 uni0414 uni041C
 58 three eight B C germandbls uni0411 uni0412 uni0417 uni0421
 29 K X Z uni0416 uni041A uni0425

StartChar: H
Encoding: 72 72 0
GlifName: H_
Width: 830
VWidth: 0
Flags: HMW
LayerCount: 2
Fore
SplineSet
117 265 m 261
 117 460 l 261
 677 460 l 261
 677 265 l 261
 117 265 l 261
540 700 m 257
 760 700 l 257
 760 0 l 257
 540 0 l 257
 540 700 l 257
70 700 m 261
 290 700 l 261
 290 0 l 261
 70 0 l 261
 70 700 l 261
EndSplineSet
EndChar

StartChar: O
Encoding: 79 79 1
GlifName: O_
Width: 840
VWidth: 0
Flags: HMW
LayerCount: 2
Fore
SplineSet
263 350 m 260
 263 247 322 178 420 178 c 260
 518 178 577 247 577 350 c 260
 577 453 523 522 420 522 c 260
 322 522 263 453 263 350 c 260
30 350 m 260
 30 574 201 720 420 720 c 260
 644 720 810 574 810 350 c 260
 810 126 649 -30 420 -30 c 260
 191 -30 30 126 30 350 c 260
EndSplineSet
EndChar

StartChar: I
Encoding: 73 73 2
GlifName: I_
Width: 365
VWidth: 0
Flags: HMW
LayerCount: 2
Fore
SplineSet
70 700 m 261
 295 700 l 261
 295 0 l 261
 70 0 l 261
 70 700 l 261
EndSplineSet
EndChar

StartChar: C
Encoding: 67 67 3
GlifName: C_
Width: 710
VWidth: 0
Flags: HMW
LayerCount: 2
Fore
SplineSet
272 350 m 260
 272 242 353 187 451 187 c 260
 550 187 606 231 650 273 c 261
 650 47 l 261
 595 9 537 -20 435 -20 c 260
 191 -20 30 126 30 350 c 260
 30 574 191 720 435 720 c 260
 537 720 595 691 650 653 c 261
 650 427 l 261
 606 469 550 513 451 513 c 260
 353 513 272 458 272 350 c 260
EndSplineSet
EndChar

StartChar: E
Encoding: 69 69 4
GlifName: E_
Width: 635
VWidth: 0
Flags: HMW
LayerCount: 2
Fore
SplineSet
222 0 m 257
 222 175 l 257
 575 175 l 257
 575 0 l 257
 222 0 l 257
222 525 m 257
 222 700 l 257
 575 700 l 257
 575 525 l 257
 222 525 l 257
222 275 m 261
 222 445 l 261
 555 445 l 261
 555 275 l 261
 222 275 l 261
70 700 m 257
 280 700 l 257
 280 0 l 257
 70 0 l 257
 70 700 l 257
EndSplineSet
EndChar

StartChar: F
Encoding: 70 70 6
GlifName: F_
Width: 585
VWidth: 0
Flags: HMW
LayerCount: 2
Fore
SplineSet
222 515 m 257
 222 700 l 257
 535 700 l 257
 535 515 l 257
 222 515 l 257
222 245 m 257
 222 415 l 257
 525 415 l 257
 525 245 l 257
 222 245 l 257
70 700 m 257
 280 700 l 257
 280 0 l 257
 70 0 l 257
 70 700 l 257
EndSplineSet
EndChar

StartChar: G
Encoding: 71 71 7
GlifName: G_
Width: 838
VWidth: 0
Flags: HMW
LayerCount: 2
Fore
SplineSet
430 240 m 257
 430 400 l 257
 802 400 l 257
 822 161 684 -30 430 -30 c 256
 196 -30 30 121 30 350 c 256
 30 579 206 720 440 720 c 256
 599 720 701 641 771 544 c 257
 566 452 l 257
 542 496 507 535 440 535 c 256
 342 535 260 473 260 350 c 256
 260 227 332 155 440 155 c 256
 520.624 155 564.45 188.237 587.643 240 c 257
 430 240 l 257
EndSplineSet
EndChar

StartChar: T
Encoding: 84 84 8
GlifName: T_
Width: 620
VWidth: 0
Flags: HMW
LayerCount: 2
Fore
SplineSet
0 505 m 261
 0 700 l 261
 620 700 l 261
 620 505 l 261
 420 505 l 261
 420 0 l 261
 200 0 l 261
 200 505 l 261
 0 505 l 261
EndSplineSet
EndChar

StartChar: L
Encoding: 76 76 9
GlifName: L_
Width: 575
VWidth: 0
Flags: HMW
LayerCount: 2
Fore
SplineSet
70 700 m 257
 290 700 l 257
 290 185 l 257
 575 185 l 257
 575 0 l 257
 70 0 l 257
 70 700 l 257
EndSplineSet
EndChar

StartChar: D
Encoding: 68 68 10
GlifName: D_
Width: 765
VWidth: 0
Flags: HMW
LayerCount: 2
Fore
SplineSet
70 700 m 257
 299 700 l 257
 299 0 l 257
 70 0 l 257
 70 700 l 257
345 0 m 258
 222 0 l 257
 222 190 l 257
 335 190 l 258
 413 190 505 207 505 350 c 256
 505 493 413 510 335 510 c 258
 222 510 l 257
 222 700 l 257
 345 700 l 258
 589 700 735 569 735 350 c 256
 735 131 589 0 345 0 c 258
EndSplineSet
EndChar

StartChar: Q
Encoding: 81 81 11
GlifName: Q_
Width: 908
VWidth: 0
Flags: HMW
LayerCount: 2
Fore
SplineSet
263 350 m 256
 263 227 347 158 445 158 c 256
 543 158 607 217 607 320 c 256
 607 423 548 522 425 522 c 256
 327 522 263 453 263 350 c 256
30 350 m 256
 30 574 206 720 425 720 c 256
 649 720 810 574 810 350 c 256
 810 126 654 -30 425 -30 c 256
 196 -30 30 126 30 350 c 256
343 300 m 257
 558 300 l 257
 918 -20 l 257
 693 -20 l 257
 343 300 l 257
EndSplineSet
EndChar

StartChar: A
Encoding: 65 65 12
GlifName: A_
Width: 780
VWidth: 0
Flags: HMW
LayerCount: 2
Fore
SplineSet
207 90 m 257
 207 248 l 257
 577 248 l 257
 577 90 l 257
 207 90 l 257
390 382 m 257
 304 189 l 257
 321 139 l 257
 245 0 l 257
 -5 0 l 257
 390 750 l 257
 785 0 l 257
 535 0 l 257
 461 132 l 257
 476 189 l 257
 390 382 l 257
EndSplineSet
EndChar

StartChar: R
Encoding: 82 82 13
GlifName: R_
Width: 700
VWidth: 0
Flags: HMW
LayerCount: 2
Fore
SplineSet
275 300 m 261
 500 300 l 261
 700 0 l 261
 445 0 l 261
 275 300 l 261
70 700 m 261
 290 700 l 261
 290 0 l 261
 70 0 l 261
 70 700 l 261
212 515 m 261
 212 700 l 261
 365 700 l 262
 570 700 658 599 658 460 c 260
 658 321 570 220 365 220 c 262
 212 220 l 261
 212 385 l 261
 345 385 l 262
 400 385 428 409 428 450 c 260
 428 491 400 515 345 515 c 262
 212 515 l 261
EndSplineSet
EndChar

StartChar: V
Encoding: 86 86 14
GlifName: V_
Width: 780
VWidth: 0
Flags: HMW
LayerCount: 2
Fore
SplineSet
390 358 m 257
 525 700 l 257
 785 700 l 257
 390 -50 l 257
 -5 700 l 257
 255 700 l 257
 390 358 l 257
EndSplineSet
EndChar

StartChar: M
Encoding: 77 77 15
GlifName: M_
Width: 940
VWidth: 0
Flags: HMW
LayerCount: 2
Fore
SplineSet
301.086 285.678 m 257
 265 0 l 257
 30 0 l 257
 160 735 l 257
 470 357 l 257
 780 735 l 257
 910 0 l 257
 675 0 l 257
 638.914 285.678 l 257
 470 65 l 257
 301.086 285.678 l 257
EndSplineSet
EndChar

StartChar: W
Encoding: 87 87 16
GlifName: W_
Width: 1110
VWidth: 0
Flags: HMW
LayerCount: 2
Fore
SplineSet
747.179 350.641 m 257
 845 700 l 257
 1110 700 l 257
 790 -45 l 257
 555 303 l 257
 320 -45 l 257
 0 700 l 257
 265 700 l 257
 362.821 350.641 l 257
 555 735 l 257
 747.179 350.641 l 257
EndSplineSet
EndChar

StartChar: N
Encoding: 78 78 17
GlifName: N_
Width: 805
VWidth: 0
Flags: HMW
LayerCount: 2
Fore
SplineSet
525 700 m 261
 735 700 l 261
 735 -35 l 261
 280 316.591 l 261
 280 0 l 261
 70 0 l 261
 70 735 l 261
 525 383.409 l 261
 525 700 l 261
EndSplineSet
EndChar

StartChar: a
Encoding: 97 97 18
GlifName: a
Width: 580
VWidth: 0
Flags: HMW
LayerCount: 2
Fore
SplineSet
216 139 m 256
 216 115 238 106 263 106 c 256
 303 106 345 124 345 190 c 257
 361 130 l 257
 361 41 288 -10 193 -10 c 256
 88 -10 20 41 20 130 c 256
 20 217 100 275 221 275 c 256
 279 275 354 257 378 233 c 257
 378 147 l 257
 350 169 323 180 275 180 c 256
 241 180 216 163 216 139 c 256
121 298 m 257
 62 424 l 257
 126 449 210 475 293 475 c 256
 428 475 530 419 530 320 c 258
 530 0 l 257
 345 0 l 257
 345 272 l 258
 345 307 323 333 273 333 c 256
 207 333 143 309 121 298 c 257
EndSplineSet
Substitution2: "alt a" a.alt
EndChar

StartChar: X
Encoding: 88 88 19
GlifName: X_
Width: 765
VWidth: 0
Flags: HMW
LayerCount: 2
Fore
SplineSet
475 700 m 257
 750 700 l 257
 523 354 l 257
 765 0 l 257
 490 0 l 257
 384 196 l 257
 275 0 l 257
 0 0 l 257
 248 354 l 257
 25 700 l 257
 300 700 l 257
 386 531 l 257
 475 700 l 257
EndSplineSet
EndChar

StartChar: K
Encoding: 75 75 20
GlifName: K_
Width: 781
VWidth: 0
Flags: HMW
LayerCount: 2
Fore
SplineSet
70 700 m 261
 300 700 l 261
 300 0 l 261
 70 0 l 261
 70 700 l 261
515 700 m 261
 771 700 l 261
 498 372 l 261
 786 0 l 261
 520 0 l 261
 237 365 l 261
 515 700 l 261
EndSplineSet
EndChar

StartChar: Y
Encoding: 89 89 21
GlifName: Y_
Width: 720
VWidth: 0
Flags: HMW
LayerCount: 2
Fore
SplineSet
470 700 m 257
 725 700 l 257
 473 274.707 l 257
 473 0 l 257
 248 0 l 257
 248 273.019 l 257
 -5 700 l 257
 250 700 l 257
 360 474 l 257
 470 700 l 257
EndSplineSet
EndChar

StartChar: B
Encoding: 66 66 22
GlifName: B_
Width: 728
VWidth: 0
Flags: HMW
LayerCount: 2
Fore
SplineSet
232 335 m 257
 232 425 l 257
 345 425 l 258
 395 425 418 447 418 483 c 256
 418 519 395 535 345 535 c 258
 290 535 l 257
 290 165 l 257
 365 165 l 258
 415 165 458 171 458 227 c 256
 458 273 415 280 365 280 c 258
 232 280 l 257
 232 400 l 257
 395 400 l 258
 530 400 688 341 688 192 c 256
 688 53 580 0 395 0 c 258
 70 0 l 257
 70 700 l 257
 375 700 l 258
 530 700 648 639 648 520 c 256
 648 401 530 335 375 335 c 258
 232 335 l 257
EndSplineSet
EndChar

StartChar: Z
Encoding: 90 90 23
GlifName: Z_
Width: 665
VWidth: 0
Flags: HMW
LayerCount: 2
Fore
SplineSet
70 505 m 257
 70 700 l 257
 655 700 l 257
 347 185 l 257
 610 185 l 261
 610 0 l 261
 5 0 l 257
 306 505 l 257
 70 505 l 257
EndSplineSet
EndChar

StartChar: o
Encoding: 111 111 24
GlifName: o
Width: 616
VWidth: 0
Flags: HMW
LayerCount: 2
Fore
SplineSet
30 230 m 260
 30 379 148 471 308 471 c 260
 468 471 586 379 586 230 c 260
 586 81 468 -10 308 -10 c 260
 148 -10 30 81 30 230 c 260
231 230 m 260
 231 174 268 145 308 145 c 260
 348 145 385 174 385 230 c 260
 385 286 348 316 308 316 c 260
 268 316 231 286 231 230 c 260
EndSplineSet
EndChar

StartChar: J
Encoding: 74 74 25
GlifName: J_
Width: 385
VWidth: 0
Flags: HMW
LayerCount: 2
Fore
SplineSet
-75 -39 m 257
 -51 -54 -19 -70 7 -70 c 256
 37 -70 70 -51 70 5 c 258
 70 700 l 257
 315 700 l 257
 315 -50 l 258
 315 -199 181 -250 37 -250 c 256
 -56 -250 -141 -220 -196 -190 c 257
 -75 -39 l 257
EndSplineSet
EndChar

StartChar: t
Encoding: 116 116 26
GlifName: t
Width: 365
VWidth: 0
Flags: HMW
LayerCount: 2
Fore
SplineSet
5 460 m 261
 360 460 l 257
 360 305 l 257
 5 305 l 261
 5 460 l 261
90 620 m 257
 275 620 l 257
 275 0 l 257
 90 0 l 257
 90 620 l 257
EndSplineSet
EndChar

StartChar: d
Encoding: 100 100 27
GlifName: d
Width: 645
VWidth: 0
Flags: HMW
LayerCount: 2
Fore
SplineSet
400 780 m 257
 595 780 l 257
 595 0 l 257
 400 0 l 257
 400 780 l 257
30 230 m 256
 30 389 138 470 243 470 c 256
 358 470 446 379 446 230 c 256
 446 81 358 -10 243 -10 c 256
 138 -10 30 71 30 230 c 256
236 230 m 256
 236 179 273 140 318 140 c 256
 358 140 400 174 400 230 c 256
 400 286 358 320 318 320 c 256
 273 320 236 281 236 230 c 256
EndSplineSet
EndChar

StartChar: l
Encoding: 108 108 28
GlifName: l
Width: 295
VWidth: 0
Flags: HMW
LayerCount: 2
Fore
SplineSet
50 780 m 261
 245 780 l 261
 245 0 l 261
 50 0 l 261
 50 780 l 261
EndSplineSet
EndChar

StartChar: i
Encoding: 105 105 29
GlifName: i
Width: 286
VWidth: 0
Flags: HMW
LayerCount: 2
Fore
SplineSet
35 622 m 256
 35 681 83 720 143 720 c 256
 203 720 251 681 251 622 c 256
 251 563 203 524 143 524 c 256
 83 524 35 563 35 622 c 256
49 460 m 261
 236 460 l 261
 236 0 l 261
 49 0 l 261
 49 460 l 261
EndSplineSet
EndChar

StartChar: r
Encoding: 114 114 30
GlifName: r
Width: 453
VWidth: 0
Flags: HMW
LayerCount: 2
Fore
SplineSet
240 460 m 261
 240 0 l 261
 50 0 l 261
 50 460 l 261
 240 460 l 261
369 262 m 257
 357 278 338 290 312 290 c 256
 277 290 240 261 240 195 c 257
 204 280 l 257
 204 389 282 472 367 472 c 256
 400 472 436 452 448 430 c 257
 369 262 l 257
EndSplineSet
EndChar

StartChar: c
Encoding: 99 99 31
GlifName: c
Width: 503
VWidth: 0
Flags: HMW
LayerCount: 2
Fore
SplineSet
231 230 m 260
 231 169 278 138 333 138 c 260
 377 138 422 154 453 197 c 261
 453 21 l 261
 421 3 386 -10 313 -10 c 260
 148 -10 30 81 30 230 c 260
 30 379 148 470 313 470 c 260
 386 470 421 455 453 441 c 261
 453 264 l 261
 422 307 367 322 333 322 c 260
 278 322 231 281 231 230 c 260
EndSplineSet
EndChar

StartChar: b
Encoding: 98 98 32
GlifName: b
Width: 645
VWidth: 0
Flags: HMW
LayerCount: 2
Fore
SplineSet
245 780 m 257
 245 0 l 257
 50 0 l 257
 50 780 l 257
 245 780 l 257
615 230 m 256
 615 71 507 -10 402 -10 c 256
 287 -10 199 81 199 230 c 256
 199 379 287 470 402 470 c 256
 507 470 615 389 615 230 c 256
409 230 m 256
 409 281 372 320 327 320 c 256
 287 320 245 286 245 230 c 256
 245 174 287 140 327 140 c 256
 372 140 409 179 409 230 c 256
EndSplineSet
EndChar

StartChar: p
Encoding: 112 112 33
GlifName: p
Width: 645
VWidth: 0
Flags: HMW
LayerCount: 2
Fore
SplineSet
245 -220 m 257
 50 -220 l 257
 50 460 l 257
 245 460 l 257
 245 -220 l 257
615 230 m 256
 615 61 507 -20 402 -20 c 256
 277 -20 209 81 209 230 c 256
 209 379 277 480 402 480 c 256
 507 480 615 399 615 230 c 256
409 230 m 256
 409 281 372 310 327 310 c 256
 287 310 245 286 245 230 c 256
 245 174 287 150 327 150 c 256
 372 150 409 179 409 230 c 256
EndSplineSet
EndChar

StartChar: q
Encoding: 113 113 34
GlifName: q
Width: 645
VWidth: 0
Flags: HMW
LayerCount: 2
Fore
SplineSet
400 -220 m 257
 400 460 l 257
 595 460 l 257
 595 -220 l 257
 400 -220 l 257
30 230 m 256
 30 399 138 480 243 480 c 256
 368 480 436 379 436 230 c 256
 436 81 368 -20 243 -20 c 256
 138 -20 30 61 30 230 c 256
236 230 m 256
 236 179 273 150 318 150 c 256
 358 150 400 174 400 230 c 256
 400 286 358 310 318 310 c 256
 273 310 236 281 236 230 c 256
EndSplineSet
EndChar

StartChar: h
Encoding: 104 104 35
GlifName: h
Width: 595
VWidth: 0
Flags: HMW
LayerCount: 2
Fore
SplineSet
245 780 m 257
 245 0 l 257
 50 0 l 257
 50 780 l 257
 245 780 l 257
350 280 m 258
 350 321 342 346 302 346 c 256
 267 346 245 326 245 280 c 257
 219 280 l 257
 219 389 262 481 387 481 c 256
 512 481 545 419 545 310 c 258
 545 0 l 257
 350 0 l 257
 350 280 l 258
EndSplineSet
EndChar

StartChar: n
Encoding: 110 110 36
GlifName: n
Width: 605
VWidth: 0
Flags: HMW
LayerCount: 2
Fore
SplineSet
245 460 m 257
 245 0 l 257
 50 0 l 257
 50 460 l 257
 245 460 l 257
350 280 m 258
 350 321 342 346 302 346 c 256
 267 346 245 326 245 280 c 257
 219 270 l 257
 219 379 262 471 387 471 c 256
 512 471 555 409 555 300 c 258
 555 0 l 257
 350 0 l 257
 350 280 l 258
EndSplineSet
EndChar

StartChar: m
Encoding: 109 109 37
GlifName: m
Width: 845
VWidth: 0
Flags: HMW
LayerCount: 2
Fore
SplineSet
320 280 m 258
 320 321 309 346 279 346 c 256
 254 346 235 326 235 280 c 257
 209 270 l 257
 209 379 257 471 372 471 c 256
 487 471 515 419 515 310 c 258
 515 0 l 257
 320 0 l 257
 320 280 l 258
235 460 m 257
 235 0 l 257
 50 0 l 257
 50 460 l 257
 235 460 l 257
795 300 m 258
 795 0 l 257
 600 0 l 257
 600 280 l 258
 600 321 589 346 559 346 c 256
 534 346 515 326 515 280 c 257
 459 270 l 257
 459 379 537 471 652 471 c 256
 767 471 795 409 795 300 c 258
EndSplineSet
EndChar

StartChar: k
Encoding: 107 107 38
GlifName: k
Width: 660
VWidth: 0
Flags: HMW
LayerCount: 2
Fore
SplineSet
50 780 m 261
 235 780 l 261
 235 0 l 261
 50 0 l 261
 50 780 l 261
401 460 m 261
 630 460 l 261
 435 270 l 261
 650 0 l 261
 425 0 l 261
 206 270 l 261
 401 460 l 261
EndSplineSet
EndChar

StartChar: u
Encoding: 117 117 39
GlifName: u
Width: 605
VWidth: 0
Flags: HMW
LayerCount: 2
Fore
SplineSet
360 0 m 257
 360 460 l 257
 555 460 l 257
 555 0 l 257
 360 0 l 257
255 180 m 258
 255 139 263 114 303 114 c 256
 338 114 360 134 360 180 c 257
 386 190 l 257
 386 81 343 -11 218 -11 c 256
 93 -11 50 51 50 160 c 258
 50 460 l 257
 255 460 l 257
 255 180 l 258
EndSplineSet
EndChar

StartChar: e
Encoding: 101 101 40
GlifName: e
Width: 609
VWidth: 0
Flags: HMW
LayerCount: 2
Fore
SplineSet
136 190 m 257
 136 284 l 257
 367.382 284 l 257
 360.964 329.27 342.042 350 303 350 c 256
 253 350 228 316 228 250 c 257
 226 230 l 261
 226 144 268 120 308 120 c 256
 355 120 388 135 404 165 c 257
 582 137 l 257
 536 47 457 -10 318 -10 c 256
 123 -10 30 91 30 230 c 256
 30 247 31 263 34 279 c 256
 53 392 139 470 308 470 c 256
 488 470 575 384 575 239 c 256
 575 231 575 211 573 190 c 257
 136 190 l 257
EndSplineSet
EndChar

StartChar: g
Encoding: 103 103 41
GlifName: g
Width: 635
VWidth: 0
Flags: HMW
LayerCount: 2
Fore
SplineSet
40 -35 m 257
 227 -35 l 257
 235 -86 266 -95 306 -95 c 256
 366 -95 400 -56 400 10 c 258
 400 460 l 257
 585 460 l 257
 585 10 l 258
 585 -179 471 -245 316 -245 c 256
 121 -245 58 -159 40 -35 c 257
30 240 m 256
 30 399 138 470 243 470 c 256
 358 470 446 389 446 240 c 256
 446 91 358 10 243 10 c 256
 138 10 30 81 30 240 c 256
236 240 m 256
 236 189 273 160 318 160 c 256
 358 160 400 184 400 240 c 256
 400 296 358 320 318 320 c 256
 273 320 236 291 236 240 c 256
EndSplineSet
EndChar

StartChar: f
Encoding: 102 102 42
GlifName: f
Width: 379
VWidth: 0
Flags: HMW
LayerCount: 2
Fore
SplineSet
5 460 m 257
 370 460 l 257
 370 305 l 257
 5 305 l 257
 5 460 l 257
348 605 m 257
 335 620 322 630 303 630 c 256
 273 630 255 611 255 575 c 258
 255 0 l 257
 70 0 l 257
 70 630 l 258
 70 729 134 800 268 800 c 256
 351 800 394 763 419 743 c 257
 348 605 l 257
EndSplineSet
EndChar

StartChar: s
Encoding: 115 115 43
GlifName: s
Width: 488
VWidth: 0
Flags: HMW
LayerCount: 2
Fore
SplineSet
78 183 m 257
 180 111 233 110 250 110 c 256
 266 110 275 120 275 133 c 256
 275 161 232 169 181 186 c 256
 114 209 52 242 52 334 c 256
 52 420 124 470 238 470 c 256
 321 470 386 446 454 415 c 257
 406 282 l 257
 361 320 301 346 264 346 c 256
 237 346 229 336 229 327 c 256
 229 297 279 293 341 270 c 256
 406 246 468 217 468 130 c 256
 468 21 404 -25 285 -25 c 256
 180 -25 99 1 15 46 c 257
 78 183 l 257
EndSplineSet
EndChar

StartChar: y
Encoding: 121 121 44
GlifName: y
Width: 570
VWidth: 0
Flags: HMW
LayerCount: 2
Fore
SplineSet
585 460 m 261
 285 -220 l 261
 95 -220 l 261
 198 20 l 261
 -15 460 l 261
 195 460 l 261
 345 85 l 261
 240 85 l 261
 390 460 l 261
 585 460 l 261
EndSplineSet
EndChar

StartChar: w
Encoding: 119 119 45
GlifName: w
Width: 810
VWidth: 0
Flags: HMW
LayerCount: 2
Fore
SplineSet
-15 460 m 257
 185 460 l 257
 268.901 262.832 l 257
 405 495 l 257
 541.099 262.832 l 257
 625 460 l 257
 825 460 l 257
 565 -25 l 257
 405 210.789 l 257
 245 -25 l 257
 -15 460 l 257
EndSplineSet
EndChar

StartChar: v
Encoding: 118 118 46
GlifName: v
Width: 580
VWidth: 0
Flags: HMW
LayerCount: 2
Fore
SplineSet
-5 460 m 257
 200 460 l 257
 290 247 l 257
 380 460 l 257
 585 460 l 257
 290 -65 l 257
 -5 460 l 257
EndSplineSet
EndChar

StartChar: x
Encoding: 120 120 47
GlifName: x
Width: 600
VWidth: 0
Flags: HMW
LayerCount: 2
Fore
SplineSet
375 460 m 257
 590 460 l 257
 402 236 l 257
 600 0 l 257
 385 0 l 257
 304 109 l 257
 225 0 l 257
 0 0 l 257
 202 236 l 257
 10 460 l 257
 235 460 l 257
 304 363 l 257
 375 460 l 257
EndSplineSet
EndChar

StartChar: z
Encoding: 122 122 48
GlifName: z
Width: 560
VWidth: 0
Flags: HMW
LayerCount: 2
Fore
SplineSet
230 285 m 257
 65 285 l 257
 65 460 l 257
 545 460 l 257
 349 175 l 257
 505 175 l 261
 505 0 l 257
 15 0 l 257
 230 285 l 257
EndSplineSet
EndChar

StartChar: j
Encoding: 106 106 49
GlifName: j
Width: 285
VWidth: 0
Flags: HMW
LayerCount: 2
Fore
SplineSet
35 622 m 256
 35 681 83 720 143 720 c 256
 203 720 251 681 251 622 c 256
 251 563 203 524 143 524 c 256
 83 524 35 563 35 622 c 256
-43 -55 m 257
 -30 -70 -17 -80 2 -80 c 256
 32 -80 50 -61 50 -25 c 258
 50 460 l 257
 235 460 l 257
 235 -80 l 258
 235 -179 171 -250 37 -250 c 256
 -46 -250 -89 -213 -114 -193 c 257
 -43 -55 l 257
EndSplineSet
EndChar

StartChar: P
Encoding: 80 80 50
GlifName: P_
Width: 668
VWidth: 0
Flags: HMW
LayerCount: 2
Fore
SplineSet
70 700 m 261
 290 700 l 261
 290 0 l 261
 70 0 l 261
 70 700 l 261
212 525 m 261
 212 700 l 261
 345 700 l 262
 550 700 638 609 638 460 c 260
 638 311 550 220 345 220 c 262
 212 220 l 261
 212 395 l 261
 345 395 l 262
 400 395 428 419 428 460 c 260
 428 501 400 525 345 525 c 262
 212 525 l 261
EndSplineSet
EndChar

StartChar: U
Encoding: 85 85 51
GlifName: U_
Width: 746
VWidth: 0
Flags: HMW
LayerCount: 2
Fore
SplineSet
65 700 m 257
 285 700 l 257
 285 250 l 258
 285 194 313 155 373 155 c 256
 433 155 461 194 461 250 c 258
 461 700 l 257
 681 700 l 257
 681 230 l 258
 681 31 538 -40 373 -40 c 256
 208 -40 65 31 65 230 c 258
 65 700 l 257
EndSplineSet
EndChar

StartChar: S
Encoding: 83 83 52
GlifName: S_
Width: 672
VWidth: 0
Flags: HMW
LayerCount: 2
Fore
SplineSet
178 266 m 257
 230 190 273 158 340 158 c 256
 380 158 404 169 404 199 c 256
 404 239 352 247 272 280 c 256
 204 308 74 363 74 510 c 256
 74 636 193 720 357 720 c 256
 510 720 589 635 627 564 c 257
 464 474 l 257
 434 522 398 539 358 539 c 256
 322 539 298 525 298 504 c 256
 298 468 376 452 458 423 c 256
 570 384 637 317 637 200 c 256
 637 43 505 -30 346 -30 c 256
 211 -30 74 53 30 158 c 257
 178 266 l 257
EndSplineSet
EndChar

StartChar: at
Encoding: 64 64 53
GlifName: at
Width: 770
VWidth: 0
Flags: HMW
LayerCount: 2
Fore
SplineSet
346 320 m 256
 346 284 356 265 369 265 c 256
 394 265 417 314 417 360 c 256
 417 401 409 415 394 415 c 256
 364 415 346 366 346 320 c 256
200 310 m 256
 200 449 273 530 348 530 c 256
 413 530 471 459 471 370 c 256
 471 231 403 150 328 150 c 256
 243 150 200 211 200 310 c 256
10 320 m 256
 10 549 181 730 415 730 c 256
 629 730 760 559 760 390 c 256
 760 211 666 140 561 140 c 256
 490 140 426 194 436 260 c 257
 419 310 l 257
 435 520 l 257
 576 520 l 257
 559 319 l 258
 558 312 557 300 557 292 c 256
 557 268 563 256 576 256 c 256
 596 256 625 274 625 390 c 256
 625 513 553 610 415 610 c 256
 247 610 145 493 145 320 c 256
 145 177 217 85 385 85 c 256
 455 85 506 103 560 125 c 257
 598 15 l 257
 538 -17 459 -35 365 -35 c 256
 131 -35 10 121 10 320 c 256
EndSplineSet
EndChar

StartChar: period
Encoding: 46 46 54
GlifName: period
Width: 336
VWidth: 0
Flags: HMW
LayerCount: 2
Fore
SplineSet
50 85 m 256
 50 148 98 200 168 200 c 256
 238 200 286 148 286 85 c 256
 286 22 238 -30 168 -30 c 256
 98 -30 50 22 50 85 c 256
EndSplineSet
EndChar

StartChar: comma
Encoding: 44 44 55
GlifName: comma
Width: 333
VWidth: 0
Flags: HMW
LayerCount: 2
Fore
SplineSet
103 110 m 257
 298 76 l 257
 163 -174 l 257
 15 -149 l 257
 103 110 l 257
EndSplineSet
EndChar

StartChar: colon
Encoding: 58 58 56
GlifName: colon
Width: 336
VWidth: 0
Flags: HMW
LayerCount: 2
Fore
SplineSet
50 85 m 256
 50 148 98 200 168 200 c 256
 238 200 286 148 286 85 c 256
 286 22 238 -30 168 -30 c 256
 98 -30 50 22 50 85 c 256
50 455 m 256
 50 518 98 570 168 570 c 256
 238 570 286 518 286 455 c 256
 286 392 238 340 168 340 c 256
 98 340 50 392 50 455 c 256
EndSplineSet
EndChar

StartChar: semicolon
Encoding: 59 59 57
GlifName: semicolon
Width: 431
VWidth: 0
Flags: HMW
LayerCount: 2
Fore
SplineSet
115 445 m 256
 115 508 163 560 233 560 c 256
 303 560 351 508 351 445 c 256
 351 382 303 330 233 330 c 256
 163 330 115 382 115 445 c 256
138 110 m 257
 333 76 l 257
 198 -174 l 257
 50 -149 l 257
 138 110 l 257
EndSplineSet
EndChar

StartChar: quotedbl
Encoding: 34 34 58
GlifName: quotedbl
Width: 550
VWidth: 0
Flags: HMW
LayerCount: 2
Fore
SplineSet
90 700 m 257
 290 700 l 257
 175 370 l 257
 50 370 l 257
 90 700 l 257
320 700 m 257
 520 700 l 257
 405 370 l 257
 280 370 l 257
 320 700 l 257
EndSplineSet
EndChar

StartChar: exclam
Encoding: 33 33 59
GlifName: exclam
Width: 370
VWidth: 0
Flags: HMW
LayerCount: 2
Fore
SplineSet
65 700 m 257
 305 700 l 257
 265 250 l 257
 105 250 l 257
 65 700 l 257
67 75 m 256
 67 138 115 180 185 180 c 256
 255 180 303 138 303 75 c 256
 303 12 255 -30 185 -30 c 256
 115 -30 67 12 67 75 c 256
EndSplineSet
EndChar

StartChar: quotesingle
Encoding: 39 39 60
GlifName: quotesingle
Width: 320
VWidth: 0
Flags: HMW
LayerCount: 2
Fore
SplineSet
90 700 m 257
 290 700 l 257
 175 370 l 257
 50 370 l 257
 90 700 l 257
EndSplineSet
EndChar

StartChar: numbersign
Encoding: 35 35 61
GlifName: numbersign
Width: 705
VWidth: 0
Flags: HMW
LayerCount: 2
Fore
SplineSet
75 395 m 257
 75 550 l 257
 670 550 l 257
 670 395 l 257
 506 395 l 256
 468 405 l 256
 256 405 l 256
 222 395 l 256
 75 395 l 257
35 155 m 257
 35 310 l 257
 182 310 l 256
 224 300 l 256
 472 300 l 256
 508 310 l 256
 630 310 l 257
 630 155 l 257
 35 155 l 257
485 700 m 257
 650 700 l 257
 480 0 l 257
 315 0 l 257
 369 222 l 256
 386 252 l 256
 435 452 l 256
 434 492 l 256
 485 700 l 257
225 700 m 257
 390 700 l 257
 339 492 l 256
 319 450 l 256
 272 256 l 256
 275 226 l 256
 220 0 l 257
 55 0 l 257
 225 700 l 257
EndSplineSet
EndChar

StartChar: hyphen
Encoding: 45 45 62
GlifName: hyphen
Width: 230
VWidth: 0
Flags: HMW
LayerCount: 2
Fore
SplineSet
5 155 m 257
 5 320 l 257
 225 320 l 257
 225 155 l 257
 5 155 l 257
EndSplineSet
EndChar

StartChar: dollar
Encoding: 36 36 63
GlifName: dollar
Width: 647
VWidth: 0
Flags: HMW
LayerCount: 2
Fore
SplineSet
264 818 m 257
 418 818 l 257
 408 618 l 257
 274 618 l 257
 264 818 l 257
274 70 m 257
 407 70 l 257
 417 -112 l 257
 264 -112 l 257
 274 70 l 257
454 474 m 257
 424 532 383 559 346 559 c 256
 306 559 289 535 289 514 c 256
 289 465 363 455 448 424 c 256
 556 385 627 317 627 200 c 256
 627 61 504 -10 325 -10 c 256
 190 -10 64 73 20 158 c 257
 168 266 l 257
 220 190 263 158 330 158 c 256
 376 158 394 171 394 201 c 256
 394 236 344 248 261 281 c 256
 192 308 64 369 64 510 c 256
 64 616 174 710 338 710 c 256
 501 710 566 642 617 564 c 257
 454 474 l 257
EndSplineSet
EndChar

StartChar: bar
Encoding: 124 124 64
GlifName: bar
Width: 400
VWidth: 0
Flags: HMW
LayerCount: 2
Fore
SplineSet
100 785 m 257
 300 785 l 257
 300 -215 l 257
 100 -215 l 257
 100 785 l 257
EndSplineSet
EndChar

StartChar: zero
Encoding: 48 48 65
GlifName: zero
Width: 700
VWidth: 0
Flags: HMW
LayerCount: 2
Fore
SplineSet
250 350 m 256
 250 237 292 170 350 170 c 256
 408 170 450 237 450 350 c 256
 450 463 408 530 350 530 c 256
 292 530 250 463 250 350 c 256
40 350 m 256
 40 589 166 715 350 715 c 256
 544 715 660 589 660 350 c 256
 660 111 544 -15 350 -15 c 256
 166 -15 40 111 40 350 c 256
EndSplineSet
Substitution2: "Tabular Numbers lookup" uniFF10
EndChar

StartChar: one
Encoding: 49 49 66
GlifName: one
Width: 545
VWidth: 0
Flags: HMW
LayerCount: 2
Fore
SplineSet
60 459 m 257
 60 642 l 257
 455 715 l 257
 455 0 l 257
 245 0 l 257
 245 500 l 257
 60 459 l 257
EndSplineSet
Substitution2: "Tabular Numbers lookup" uniFF11
EndChar

StartChar: two
Encoding: 50 50 67
GlifName: two
Width: 709
VWidth: 0
Flags: HMW
LayerCount: 2
Fore
SplineSet
20 0 m 257
 321 305 l 258
 383 372 421 410 421 465 c 256
 421 500 400 531 349 531 c 256
 299 531 265 486 265 430 c 257
 50 430 l 257
 50 579 152 716 357 716 c 256
 542 716 649 600 649 481 c 256
 649 404 607 346 543 297 c 258
 417 200 l 257
 674 200 l 257
 674 0 l 257
 20 0 l 257
EndSplineSet
Substitution2: "Tabular Numbers lookup" uniFF12
EndChar

StartChar: four
Encoding: 52 52 68
GlifName: four
Width: 768
VWidth: 0
Flags: HMW
LayerCount: 2
Fore
SplineSet
10 115 m 257
 428 700 l 257
 608 700 l 257
 608 0 l 257
 378 0 l 257
 378 176 l 257
 408 187 l 257
 408 421 l 257
 285.135 265 l 257
 558 265 l 257
 575 300 l 257
 718 300 l 257
 718 115 l 257
 10 115 l 257
EndSplineSet
Substitution2: "Tabular Numbers lookup" uniFF14
EndChar

StartChar: slash
Encoding: 47 47 69
GlifName: slash
Width: 665
VWidth: 0
Flags: HMW
LayerCount: 2
Fore
SplineSet
465 700 m 257
 650 700 l 257
 210 -150 l 257
 15 -150 l 257
 465 700 l 257
EndSplineSet
EndChar

StartChar: backslash
Encoding: 92 92 70
GlifName: backslash
Width: 565
VWidth: 0
Flags: HMW
LayerCount: 2
Fore
SplineSet
15 700 m 257
 200 700 l 257
 550 0 l 257
 365 0 l 257
 15 700 l 257
EndSplineSet
EndChar

StartChar: eight
Encoding: 56 56 71
GlifName: eight
Width: 676
VWidth: 0
Flags: HMW
LayerCount: 2
Fore
SplineSet
75 531 m 256
 75 660 198 720 338 720 c 256
 478 720 601 660 601 531 c 256
 601 392 453 335 338 335 c 256
 223 335 75 392 75 531 c 256
281 511 m 256
 281 475 303 450 338 450 c 256
 373 450 395 475 395 511 c 256
 395 547 373 570 338 570 c 256
 303 570 281 547 281 511 c 256
50 190 m 256
 50 349 223 400 338 400 c 256
 453 400 626 349 626 190 c 256
 626 51 483 -20 338 -20 c 256
 193 -20 50 51 50 190 c 256
271 225 m 256
 271 179 298 155 338 155 c 256
 378 155 405 179 405 225 c 256
 405 261 378 290 338 290 c 256
 298 290 271 261 271 225 c 256
EndSplineSet
Substitution2: "Tabular Numbers lookup" uniFF18
EndChar

StartChar: nine
Encoding: 57 57 72
GlifName: nine
Width: 726
VWidth: 0
Flags: HMW
LayerCount: 2
Fore
SplineSet
457 445 m 256
 457 501 416 535 363 535 c 256
 310 535 269 501 269 445 c 256
 269 389 310 353 363 353 c 256
 416 353 457 389 457 445 c 256
391 5 m 257
 112 5 l 257
 343 236 l 257
 395 263 l 257
 351 225 325 217 272 217 c 256
 173 217 50 296 50 445 c 256
 50 634 193 720 363 720 c 256
 533 720 676 634 676 445 c 256
 676 358 629 288 572 220 c 258
 391 5 l 257
EndSplineSet
Substitution2: "Tabular Numbers lookup" uniFF19
EndChar

StartChar: three
Encoding: 51 51 73
GlifName: three
Width: 666
VWidth: 0
Flags: HMW
LayerCount: 2
Fore
SplineSet
288 335 m 261
 288 424 l 261
 358 424 410 460 410 501 c 260
 410 527 390 545 347 545 c 260
 302 545 271 517 271 476 c 261
 70 476 l 261
 70 610 178 715 348 715 c 260
 528 715 626 630 626 516 c 260
 626 382 473 335 288 335 c 261
338 -20 m 260
 148 -20 40 111 40 245 c 261
 256 245 l 261
 256 174 303 150 348 150 c 260
 393 150 430 164 430 215 c 260
 430 256 398 295 288 295 c 261
 288 399 l 261
 503 399 646 339 646 195 c 260
 646 71 538 -20 338 -20 c 260
EndSplineSet
Substitution2: "Tabular Numbers lookup" uniFF13
EndChar

StartChar: five
Encoding: 53 53 74
GlifName: five
Width: 694
VWidth: 0
Flags: HMW
LayerCount: 2
Fore
SplineSet
654 220 m 256
 654 51 484 -15 349 -15 c 256
 220 -15 126 12 50 42 c 257
 112 236 l 257
 183 196 252 185 289 185 c 256
 364 185 411 199 411 250 c 256
 411 301 344 310 289 310 c 256
 242 310 152 304 81 277 c 257
 182 700 l 257
 632 700 l 257
 632 510 l 257
 341 510 l 257
 305.799 421.709 l 257
 345.413 440.237 389.23 445 439 445 c 256
 544 445 654 369 654 220 c 256
EndSplineSet
Substitution2: "Tabular Numbers lookup" uniFF15
EndChar

StartChar: six
Encoding: 54 54 75
GlifName: six
Width: 726
VWidth: 0
Flags: HMW
LayerCount: 2
Fore
SplineSet
269 255 m 256
 269 199 310 165 363 165 c 256
 416 165 457 199 457 255 c 256
 457 311 416 347 363 347 c 256
 310 347 269 311 269 255 c 256
335 695 m 257
 614 695 l 257
 383 464 l 257
 331 437 l 257
 375 475 401 483 454 483 c 256
 553 483 676 404 676 255 c 256
 676 66 533 -20 363 -20 c 256
 193 -20 50 66 50 255 c 256
 50 342 97 412 154 480 c 258
 335 695 l 257
EndSplineSet
Substitution2: "Tabular Numbers lookup" uniFF16
EndChar

StartChar: seven
Encoding: 55 55 76
GlifName: seven
Width: 650
VWidth: 0
Flags: HMW
LayerCount: 2
Fore
SplineSet
30 495 m 257
 30 700 l 257
 650 700 l 257
 310 0 l 257
 71 0 l 257
 329 495 l 257
 30 495 l 257
EndSplineSet
Substitution2: "Tabular Numbers lookup" uniFF17
EndChar

StartChar: plus
Encoding: 43 43 77
GlifName: plus
Width: 710
VWidth: 0
Flags: HMW
LayerCount: 2
Fore
SplineSet
65 185 m 257
 65 370 l 257
 645 370 l 257
 645 185 l 257
 65 185 l 257
255 565 m 257
 455 565 l 257
 455 -10 l 257
 255 -10 l 257
 255 565 l 257
EndSplineSet
EndChar

StartChar: equal
Encoding: 61 61 78
GlifName: equal
Width: 633
VWidth: 0
Flags: HMW
LayerCount: 2
Fore
SplineSet
50 50 m 257
 50 215 l 257
 583 215 l 257
 583 50 l 257
 50 50 l 257
50 290 m 257
 50 455 l 257
 583 455 l 257
 583 290 l 257
 50 290 l 257
EndSplineSet
EndChar

StartChar: percent
Encoding: 37 37 79
GlifName: percent
Width: 1021
VWidth: 0
Flags: HMW
LayerCount: 2
Fore
SplineSet
15 525 m 256
 15 635 108 725 223 725 c 256
 338 725 431 635 431 525 c 256
 431 415 338 325 223 325 c 256
 108 325 15 415 15 525 c 256
172 525 m 256
 172 498 195 476 223 476 c 256
 251 476 274 498 274 525 c 256
 274 552 251 574 223 574 c 256
 195 574 172 552 172 525 c 256
590 176 m 256
 590 286 683 376 798 376 c 256
 913 376 1006 286 1006 176 c 256
 1006 66 913 -24 798 -24 c 256
 683 -24 590 66 590 176 c 256
747 176 m 256
 747 149 770 127 798 127 c 256
 826 127 849 149 849 176 c 256
 849 203 826 225 798 225 c 256
 770 225 747 203 747 176 c 256
703 700 m 257
 908 700 l 257
 318 0 l 257
 113 0 l 257
 703 700 l 257
EndSplineSet
EndChar

StartChar: ampersand
Encoding: 38 38 80
GlifName: ampersand
Width: 799
VWidth: 0
Flags: HMW
LayerCount: 2
Fore
SplineSet
223 364 m 258
 168 423 132 469 132 536 c 256
 132 620 219 721 374 721 c 256
 520 721 596 628 596 544 c 256
 596 437 532 413 409 328 c 256
 339 280 243 279 243 209 c 256
 243 178 265 145 325 145 c 256
 432 145 540 236 611 356 c 257
 736 255 l 257
 660 135 504 -15 295 -15 c 256
 149 -15 40 61 40 190 c 256
 40 357 242 392 314 422 c 256
 389 454 425 491 425 522 c 256
 425 542 404 570 372 570 c 256
 332 570 316 541 316 521 c 256
 316 485 351 451 414 385 c 258
 784 0 l 257
 564 0 l 257
 223 364 l 258
EndSplineSet
EndChar

StartChar: question
Encoding: 63 63 81
GlifName: question
Width: 669
VWidth: 0
Flags: HMW
LayerCount: 2
Fore
SplineSet
423 500 m 256
 423 541 391 565 331 565 c 256
 274 565 206 536 165 476 c 257
 40 587 l 257
 126 677 222 725 341 725 c 256
 476 725 619 649 619 500 c 256
 619 373.263 507.648 307.264 403.454 282.18 c 257
 400 220 l 257
 240 220 l 257
 220 400 l 257
 256 400 l 258
 376 400 423 464 423 500 c 256
202 70 m 256
 202 123 250 170 320 170 c 256
 390 170 438 123 438 70 c 256
 438 17 390 -30 320 -30 c 256
 250 -30 202 17 202 70 c 256
EndSplineSet
EndChar

StartChar: parenleft
Encoding: 40 40 82
GlifName: parenleft
Width: 360
VWidth: 0
Flags: HMW
LayerCount: 2
Fore
SplineSet
180 780 m 257
 355 780 l 257
 285 630 240 460 240 290 c 256
 240 120 285 -50 355 -200 c 257
 180 -200 l 257
 100 -50 55 120 55 290 c 256
 55 460 100 630 180 780 c 257
EndSplineSet
EndChar

StartChar: parenright
Encoding: 41 41 83
GlifName: parenright
Width: 360
VWidth: 0
Flags: HMW
LayerCount: 2
Fore
SplineSet
180 -200 m 257
 5 -200 l 257
 75 -50 120 120 120 290 c 256
 120 460 75 630 5 780 c 257
 180 780 l 257
 260 630 305 460 305 290 c 256
 305 120 260 -50 180 -200 c 257
EndSplineSet
EndChar

StartChar: asterisk
Encoding: 42 42 84
GlifName: asterisk
Width: 592
VWidth: 0
Flags: HMW
LayerCount: 2
Fore
SplineSet
515 606 m 257
 571 435 l 257
 310 397 l 257
 282 483 l 257
 515 606 l 257
522 283 m 257
 376 177 l 257
 260 414 l 257
 332 466 l 257
 522 283 l 257
216 177 m 257
 70 283 l 257
 260 466 l 257
 332 414 l 257
 216 177 l 257
21 435 m 257
 77 606 l 257
 310 483 l 257
 282 397 l 257
 21 435 l 257
206 700 m 257
 386 700 l 257
 341 440 l 257
 251 440 l 257
 206 700 l 257
EndSplineSet
EndChar

StartChar: less
Encoding: 60 60 85
GlifName: less
Width: 640
VWidth: 0
Flags: HMW
LayerCount: 2
Fore
SplineSet
331 271 m 257
 575 180 l 257
 575 -10 l 257
 65 200 l 257
 65 335 l 257
 575 545 l 257
 575 355 l 257
 331 271 l 257
EndSplineSet
EndChar

StartChar: greater
Encoding: 62 62 86
GlifName: greater
Width: 640
VWidth: 0
Flags: HMW
LayerCount: 2
Fore
SplineSet
309 264 m 257
 65 355 l 257
 65 545 l 257
 575 335 l 257
 575 200 l 257
 65 -10 l 257
 65 180 l 257
 309 264 l 257
EndSplineSet
EndChar

StartChar: bracketleft
Encoding: 91 91 87
GlifName: bracketleft
Width: 400
VWidth: 0
Flags: HMW
LayerCount: 2
Fore
SplineSet
279 615 m 257
 279 -55 l 257
 380 -55 l 257
 380 -220 l 257
 85 -220 l 257
 85 780 l 257
 380 780 l 257
 380 615 l 257
 279 615 l 257
EndSplineSet
EndChar

StartChar: bracketright
Encoding: 93 93 88
GlifName: bracketright
Width: 400
VWidth: 0
Flags: HMW
LayerCount: 2
Fore
SplineSet
121 -55 m 257
 121 615 l 257
 20 615 l 257
 20 780 l 257
 315 780 l 257
 315 -220 l 257
 20 -220 l 257
 20 -55 l 257
 121 -55 l 257
EndSplineSet
EndChar

StartChar: asciicircum
Encoding: 94 94 89
GlifName: asciicircum
Width: 510
VWidth: 0
Flags: HMW
LayerCount: 2
Fore
SplineSet
255 556 m 257
 195 440 l 257
 25 440 l 257
 195 710 l 257
 315 710 l 257
 485 440 l 257
 315 440 l 257
 255 556 l 257
EndSplineSet
EndChar

StartChar: underscore
Encoding: 95 95 90
GlifName: underscore
Width: 550
VWidth: 0
Flags: HMW
LayerCount: 2
Fore
SplineSet
0 -166 m 257
 0 -45 l 257
 550 -45 l 257
 550 -166 l 257
 0 -166 l 257
EndSplineSet
EndChar

StartChar: grave
Encoding: 96 96 91
GlifName: grave
Width: 375
VWidth: 0
Flags: HMW
LayerCount: 2
Fore
SplineSet
40 650 m 257
 180 710 l 257
 330 550 l 257
 220 500 l 257
 40 650 l 257
EndSplineSet
EndChar

StartChar: braceleft
Encoding: 123 123 92
GlifName: braceleft
Width: 451
VWidth: 0
Flags: HMW
LayerCount: 2
Fore
SplineSet
318 580 m 258
 318 490 l 258
 318 401 314 280 155 280 c 257
 155 300 l 257
 314 300 318 179 318 90 c 258
 318 0 l 258
 318 -26 336 -50 366 -50 c 258
 401 -50 l 257
 401 -200 l 257
 291 -200 l 258
 187 -200 98 -159 98 -60 c 258
 98 110 l 258
 98 186 80 210 30 220 c 257
 30 360 l 257
 80 370 98 394 98 470 c 258
 98 640 l 258
 98 739 187 780 291 780 c 258
 401 780 l 257
 401 630 l 257
 366 630 l 258
 336 630 318 606 318 580 c 258
EndSplineSet
EndChar

StartChar: braceright
Encoding: 125 125 93
GlifName: braceright
Width: 451
VWidth: 0
Flags: HMW
LayerCount: 2
Fore
SplineSet
133 0 m 258
 133 90 l 258
 133 179 137 300 296 300 c 257
 296 280 l 257
 137 280 133 401 133 490 c 258
 133 580 l 258
 133 606 115 630 85 630 c 258
 50 630 l 257
 50 780 l 257
 160 780 l 258
 264 780 353 739 353 640 c 258
 353 470 l 258
 353 394 371 370 421 360 c 257
 421 220 l 257
 371 210 353 186 353 110 c 258
 353 -60 l 258
 353 -159 264 -200 160 -200 c 258
 50 -200 l 257
 50 -50 l 257
 85 -50 l 258
 115 -50 133 -26 133 0 c 258
EndSplineSet
EndChar

StartChar: asciitilde
Encoding: 126 126 94
GlifName: asciitilde
Width: 575
VWidth: 0
Flags: HMW
LayerCount: 2
Fore
SplineSet
165 156 m 257
 18 161 l 257
 16 168 15 176 15 185 c 256
 15 226 23 261 51 295 c 256
 79 329 112 357 194 357 c 256
 243 357 268 340 320 308 c 256
 352 288 372 272 390 272 c 256
 408 272 417 290 417 306 c 256
 417 319 413 333 409 343 c 257
 556 338 l 257
 558 330 560 320 560 310 c 256
 560 270 554 231 527 198 c 256
 500 165 470 142 404 142 c 256
 360 142 327 161 274 193 c 256
 242 213 218 228 193 228 c 256
 163 228 158 202 158 188 c 256
 158 171 162 164 165 156 c 257
EndSplineSet
EndChar

StartChar: exclamdown
Encoding: 161 161 95
GlifName: exclamdown
Width: 370
VWidth: 0
Flags: HMW
LayerCount: 2
Fore
SplineSet
305 -220 m 257
 65 -220 l 257
 105 230 l 257
 265 230 l 257
 305 -220 l 257
303 405 m 256
 303 342 255 300 185 300 c 256
 115 300 67 342 67 405 c 256
 67 468 115 510 185 510 c 256
 255 510 303 468 303 405 c 256
EndSplineSet
EndChar

StartChar: cent
Encoding: 162 162 96
GlifName: cent
Width: 580
VWidth: 0
Flags: HMW
LayerCount: 2
Fore
SplineSet
210 38 m 257
 349 38 l 257
 364 -112 l 257
 195 -112 l 257
 210 38 l 257
231 230 m 256
 231 164 284 138 334 138 c 256
 388 138 423 164 454 199 c 257
 454 19 l 257
 422 1 377 -10 314 -10 c 256
 149 -10 31 81 31 230 c 256
 31 379 149 470 314 470 c 256
 377 470 422 458 454 441 c 257
 454 261 l 257
 423 296 388 322 334 322 c 256
 284 322 231 286 231 230 c 256
195 578 m 257
 364 578 l 257
 349 428 l 257
 210 428 l 257
 195 578 l 257
EndSplineSet
EndChar

StartChar: sterling
Encoding: 163 163 97
GlifName: sterling
Width: 630
VWidth: 0
Flags: HMW
LayerCount: 2
Fore
SplineSet
67 370 m 257
 457 370 l 257
 457 255 l 257
 67 255 l 257
 67 370 l 257
425 459 m 257
 421 502 407 546 341 546 c 256
 301 546 268 526 268 480 c 256
 268 414 358 386 358 274 c 256
 358 168 206 70 132 50 c 257
 214 175 l 257
 552 175 l 257
 552 0 l 257
 44 0 l 257
 142 102 172 201 172 309 c 256
 172 403 66 417 66 523 c 256
 66 642 192 710 331 710 c 256
 494 710 596 613 601 523 c 257
 425 459 l 257
EndSplineSet
EndChar

StartChar: currency
Encoding: 164 164 98
GlifName: currency
Width: 575
VWidth: 0
Flags: HMW
LayerCount: 2
Fore
SplineSet
15 503 m 257
 85 573 l 257
 188 469 l 257
 119 400 l 257
 15 503 l 257
85 27 m 257
 15 97 l 257
 119 200 l 257
 188 131 l 257
 85 27 l 257
457 400 m 257
 387 469 l 257
 491 573 l 257
 560 503 l 257
 457 400 l 257
387 131 m 257
 457 200 l 257
 560 97 l 257
 491 27 l 257
 387 131 l 257
50 300 m 256
 50 439 153 540 288 540 c 256
 423 540 526 439 526 300 c 256
 526 161 423 60 288 60 c 256
 153 60 50 161 50 300 c 256
221 300 m 256
 221 259 248 235 288 235 c 256
 328 235 355 259 355 300 c 256
 355 341 328 365 288 365 c 256
 248 365 221 341 221 300 c 256
EndSplineSet
EndChar

StartChar: yen
Encoding: 165 165 99
GlifName: yen
Width: 723
VWidth: 0
Flags: HMW
LayerCount: 2
Fore
SplineSet
45 250 m 257
 45 365 l 257
 675 365 l 257
 675 250 l 257
 45 250 l 257
45 100 m 257
 45 215 l 257
 675 215 l 257
 675 100 l 257
 45 100 l 257
471 700 m 257
 725 700 l 257
 474 276 l 257
 474 0 l 257
 248 0 l 257
 248 273 l 257
 -5 700 l 257
 250 700 l 257
 360 474 l 257
 471 700 l 257
EndSplineSet
EndChar

StartChar: brokenbar
Encoding: 166 166 100
GlifName: brokenbar
Width: 400
VWidth: 0
Flags: HMW
LayerCount: 2
Fore
SplineSet
100 695 m 257
 300 695 l 257
 300 415 l 257
 100 415 l 257
 100 695 l 257
300 285 m 257
 300 5 l 257
 100 5 l 257
 100 285 l 257
 300 285 l 257
EndSplineSet
EndChar

StartChar: section
Encoding: 167 167 101
GlifName: section
Width: 679
VWidth: 0
Flags: HMW
LayerCount: 2
Fore
SplineSet
455 531 m 257
 423 557 373 577 346 577 c 256
 316 577 306 567 306 557 c 256
 306 537 344 539 400 527 c 256
 483 509 542 460 542 383 c 256
 542 277 417 222 303 222 c 257
 303 268 l 257
 333 278 372 292 372 333 c 256
 372 389 292 404 240 424 c 256
 185 445 123 485 123 572 c 256
 123 681 232 732 331 732 c 256
 416 732 497 700 531 665 c 257
 455 531 l 257
147 181 m 257
 219 135 289 125 316 125 c 256
 346 125 356 135 356 145 c 256
 356 165 318 170 262 182 c 256
 179 200 100 242 100 319 c 256
 100 425 235 480 349 480 c 257
 349 434 l 257
 319 424 280 410 280 369 c 256
 280 313 371 307 422 286 c 256
 487 259 549 217 549 130 c 256
 549 21 430 -30 331 -30 c 256
 206 -30 135 2 71 47 c 257
 147 181 l 257
EndSplineSet
EndChar

StartChar: dieresis
Encoding: 168 168 102
GlifName: dieresis
Width: 536
VWidth: 0
Flags: HMW
LayerCount: 2
Fore
SplineSet
295 615 m 256
 295 674 343 713 403 713 c 256
 463 713 511 674 511 615 c 256
 511 556 463 517 403 517 c 256
 343 517 295 556 295 615 c 256
25 615 m 256
 25 674 73 713 133 713 c 256
 193 713 241 674 241 615 c 256
 241 556 193 517 133 517 c 256
 73 517 25 556 25 615 c 256
EndSplineSet
EndChar

StartChar: copyright
Encoding: 169 169 103
GlifName: copyright
Width: 800
VWidth: 0
Flags: HMW
LayerCount: 2
Fore
SplineSet
319 350 m 256
 319 285 368 252 427 252 c 256
 486 252 520 279 546 304 c 257
 546 168 l 257
 513 145 478 128 417 128 c 256
 271 128 174 216 174 350 c 256
 174 484 271 572 417 572 c 256
 478 572 513 555 546 532 c 257
 546 396 l 257
 520 421 486 448 427 448 c 256
 368 448 319 415 319 350 c 256
95 350 m 256
 95 172 227 40 400 40 c 256
 573 40 705 172 705 350 c 256
 705 528 573 660 400 660 c 256
 227 660 95 528 95 350 c 256
40 350 m 256
 40 559 196 710 400 710 c 256
 604 710 760 559 760 350 c 256
 760 141 604 -10 400 -10 c 256
 196 -10 40 141 40 350 c 256
EndSplineSet
EndChar

StartChar: registered
Encoding: 174 174 104
GlifName: registered
Width: 800
VWidth: 0
Flags: HMW
LayerCount: 2
Fore
SplineSet
394 310 m 257
 509 310 l 257
 609 150 l 257
 456 150 l 257
 394 310 l 257
241 570 m 257
 373 570 l 257
 373 150 l 257
 241 150 l 257
 241 570 l 257
326 459 m 257
 326 570 l 257
 418 570 l 258
 541 570 594 509 594 436 c 256
 594 353 541 292 418 292 c 258
 326 292 l 257
 326 391 l 257
 406 391 l 258
 439 391 456 401 456 426 c 256
 456 451 439 460 406 460 c 258
 326 459 l 257
95 350 m 256
 95 172 227 40 400 40 c 256
 573 40 705 172 705 350 c 256
 705 528 573 660 400 660 c 256
 227 660 95 528 95 350 c 256
40 350 m 256
 40 559 196 710 400 710 c 256
 604 710 760 559 760 350 c 256
 760 141 604 -10 400 -10 c 256
 196 -10 40 141 40 350 c 256
EndSplineSet
EndChar

StartChar: ordfeminine
Encoding: 170 170 105
GlifName: ordfeminine
Width: 290
VWidth: 0
Flags: HMW
LayerCount: 2
Fore
SplineSet
114 529 m 256
 114 517 125 513 137 513 c 256
 157 513 178 522 178 555 c 257
 186 525 l 257
 186 481 150 455 102 455 c 256
 50 455 16 481 16 525 c 256
 16 569 56 597 116 597 c 256
 145 597 182 589 194 577 c 257
 194 533 l 257
 180 544 167 550 143 550 c 256
 126 550 114 541 114 529 c 256
66 612 m 257
 36 680 l 257
 68 692 110 705 152 705 c 256
 220 705 270 678 270 628 c 258
 270 460 l 257
 178 460 l 257
 178 596 l 258
 178 614 167 630 142 630 c 256
 109 630 77 618 66 612 c 257
EndSplineSet
EndChar

StartChar: ordmasculine
Encoding: 186 186 106
GlifName: ordmasculine
Width: 278
VWidth: 0
Flags: HMW
LayerCount: 2
Fore
SplineSet
18 580 m 256
 18 654 76 700 156 700 c 256
 236 700 296 654 296 580 c 256
 296 506 236 460 156 460 c 256
 76 460 18 506 18 580 c 256
118 580 m 256
 118 552 136 538 156 538 c 256
 176 538 195 552 195 580 c 256
 195 608 176 623 156 623 c 256
 136 623 118 608 118 580 c 256
EndSplineSet
EndChar

StartChar: guillemotleft
Encoding: 171 171 107
GlifName: guillemotleft
Width: 560
VWidth: 0
Flags: HMW
LayerCount: 2
Fore
SplineSet
389.767 259.419 m 257
 540 65 l 257
 420 -10 l 257
 250 255 l 257
 420 520 l 257
 540 445 l 257
 389.767 259.419 l 257
159.767 259.419 m 257
 310 65 l 257
 190 -10 l 257
 20 255 l 257
 190 520 l 257
 310 445 l 257
 159.767 259.419 l 257
EndSplineSet
EndChar

StartChar: guillemotright
Encoding: 187 187 108
GlifName: guillemotright
Width: 560
VWidth: 0
Flags: HMW
LayerCount: 2
Fore
SplineSet
170.233 250.581 m 257
 20 445 l 257
 140 520 l 257
 310 255 l 257
 140 -10 l 257
 20 65 l 257
 170.233 250.581 l 257
400.233 250.581 m 257
 250 445 l 257
 370 520 l 257
 540 255 l 257
 370 -10 l 257
 250 65 l 257
 400.233 250.581 l 257
EndSplineSet
EndChar

StartChar: uni00AD
Encoding: 173 173 109
GlifName: uni00A_D_
Width: 210
VWidth: 0
Flags: HMW
LayerCount: 2
Fore
SplineSet
5 200 m 257
 5 275 l 257
 205 275 l 257
 205 200 l 257
 5 200 l 257
EndSplineSet
EndChar

StartChar: logicalnot
Encoding: 172 172 110
GlifName: logicalnot
Width: 669
VWidth: 0
Flags: HMW
LayerCount: 2
Fore
SplineSet
65 255 m 257
 65 420 l 257
 604 420 l 257
 604 175 l 257
 479 175 l 257
 479 255 l 257
 65 255 l 257
EndSplineSet
EndChar

StartChar: macron
Encoding: 175 175 111
GlifName: macron
Width: 545
VWidth: 0
Flags: HMW
LayerCount: 2
Fore
SplineSet
80 555 m 257
 80 720 l 257
 465 720 l 257
 465 555 l 257
 80 555 l 257
EndSplineSet
EndChar

StartChar: degree
Encoding: 176 176 112
GlifName: degree
Width: 308
VWidth: 0
Flags: HMW
LayerCount: 2
Fore
SplineSet
15 595 m 256
 15 669 73 720 153 720 c 256
 233 720 293 669 293 595 c 256
 293 521 233 470 153 470 c 256
 73 470 15 521 15 595 c 256
110 595 m 256
 110 567 128 551 153 551 c 256
 178 551 197 567 197 595 c 256
 197 623 178 640 153 640 c 256
 128 640 110 623 110 595 c 256
EndSplineSet
EndChar

StartChar: plusminus
Encoding: 177 177 113
GlifName: plusminus
Width: 645
VWidth: 0
Flags: HMW
LayerCount: 2
Fore
SplineSet
65 10 m 257
 65 170 l 257
 580 170 l 257
 580 10 l 257
 65 10 l 257
65 325 m 257
 65 495 l 257
 580 495 l 257
 580 325 l 257
 65 325 l 257
225 620 m 257
 420 620 l 257
 420 200 l 257
 225 200 l 257
 225 620 l 257
EndSplineSet
EndChar

StartChar: uni00B2
Encoding: 178 178 114
GlifName: uni00B_2
Width: 446
VWidth: 0
Flags: HMW
LayerCount: 2
Fore
SplineSet
25 282 m 257
 206 465 l 258
 243 505 266 528 266 561 c 256
 266 582 253 601 222 601 c 256
 192 601 172 574 172 540 c 257
 43 540 l 257
 43 629 104 712 227 712 c 256
 338 712 402 642 402 571 c 256
 402 525 377 489 339 460 c 258
 263 402 l 257
 417 402 l 257
 417 282 l 257
 25 282 l 257
EndSplineSet
EndChar

StartChar: uni00B3
Encoding: 179 179 115
GlifName: uni00B_3
Width: 397
VWidth: 0
Flags: HMW
LayerCount: 2
Fore
SplineSet
162 481 m 257
 162 534 l 257
 204 534 235 556 235 581 c 256
 235 597 223 607 197 607 c 256
 170 607 152 591 152 566 c 257
 31 566 l 257
 31 646 96 709 198 709 c 256
 306 709 365 658 365 590 c 256
 365 510 273 481 162 481 c 257
192 268 m 256
 78 268 13 347 13 427 c 257
 143 427 l 257
 143 384 171 370 198 370 c 256
 225 370 247 378 247 409 c 256
 247 434 228 457 162 457 c 257
 162 519 l 257
 291 519 377 483 377 397 c 256
 377 323 312 268 192 268 c 256
EndSplineSet
EndChar

StartChar: acute
Encoding: 180 180 116
GlifName: acute
Width: 375
VWidth: 0
Flags: HMW
LayerCount: 2
Fore
SplineSet
330 650 m 257
 150 500 l 257
 40 550 l 257
 190 710 l 257
 330 650 l 257
EndSplineSet
EndChar

StartChar: mu
Encoding: 181 181 117
GlifName: mu
Width: 605
VWidth: 0
Flags: HMW
LayerCount: 2
Fore
SplineSet
360 0 m 257
 360 460 l 257
 555 460 l 257
 555 0 l 257
 360 0 l 257
255 180 m 258
 255 139 263 114 303 114 c 256
 338 114 360 134 360 180 c 257
 386 190 l 257
 386 81 343 -11 218 -11 c 256
 93 -11 50 51 50 160 c 258
 50 460 l 257
 255 460 l 257
 255 180 l 258
50 460 m 257
 235 460 l 257
 235 -320 l 257
 50 -320 l 257
 50 460 l 257
EndSplineSet
EndChar

StartChar: paragraph
Encoding: 182 182 118
GlifName: paragraph
Width: 728
VWidth: 0
Flags: HMW
LayerCount: 2
Fore
SplineSet
288 590 m 257
 288 700 l 257
 538 700 l 257
 538 590 l 257
 288 590 l 257
498 700 m 257
 668 700 l 257
 668 -220 l 257
 498 -220 l 257
 498 700 l 257
288 700 m 257
 458 700 l 257
 458 -220 l 257
 288 -220 l 257
 288 700 l 257
288 270 m 257
 163 270 60 346 60 485 c 256
 60 624 163 700 288 700 c 257
 288 270 l 257
EndSplineSet
EndChar

StartChar: periodcentered
Encoding: 183 183 119
GlifName: periodcentered
Width: 336
VWidth: 0
Flags: HMW
LayerCount: 2
Fore
SplineSet
50 285 m 256
 50 348 98 400 168 400 c 256
 238 400 286 348 286 285 c 256
 286 222 238 170 168 170 c 256
 98 170 50 222 50 285 c 256
EndSplineSet
EndChar

StartChar: uni00B9
Encoding: 185 185 120
GlifName: uni00B_9
Width: 490
VWidth: 0
Flags: HMW
LayerCount: 2
Fore
SplineSet
122 549 m 257
 122 659 l 257
 359 703 l 257
 359 274 l 257
 233 274 l 257
 233 574 l 257
 122 549 l 257
EndSplineSet
EndChar

StartChar: cedilla
Encoding: 184 184 121
GlifName: cedilla
Width: 420
VWidth: 0
Flags: HMW
LayerCount: 2
Fore
SplineSet
176 78 m 257
 316 72 l 257
 216.141 -55.5122 l 257
 231.9 -51.26 249.295 -50 269 -50 c 256
 313 -50 372 -86 372 -162 c 256
 372 -241 294 -280 226 -280 c 256
 159 -280 107 -271 49 -240 c 257
 102 -154 l 257
 131 -174 178 -180 194 -180 c 256
 228 -180 251 -172 251 -148 c 256
 251 -120 213 -118 184 -118 c 256
 174 -118 130 -119 87 -133 c 257
 176 78 l 257
EndSplineSet
EndChar

StartChar: questiondown
Encoding: 191 191 122
GlifName: questiondown
Width: 669
VWidth: 0
Flags: HMW
LayerCount: 2
Fore
SplineSet
246 200 m 256
 246 159 278 135 338 135 c 256
 395 135 463 164 504 224 c 257
 629 113 l 257
 543 23 447 -25 328 -25 c 256
 193 -25 50 51 50 200 c 256
 50 326.737 161.352 392.736 265.546 417.82 c 257
 269 480 l 257
 429 480 l 257
 449 300 l 257
 413 300 l 258
 293 300 246 236 246 200 c 256
467 630 m 256
 467 577 419 530 349 530 c 256
 279 530 231 577 231 630 c 256
 231 683 279 730 349 730 c 256
 419 730 467 683 467 630 c 256
EndSplineSet
EndChar

StartChar: multiply
Encoding: 215 215 123
GlifName: multiply
Width: 596
VWidth: 0
Flags: HMW
LayerCount: 2
Fore
SplineSet
151 -8 m 257
 35 108 l 257
 186 255 l 257
 35 402 l 257
 151 518 l 257
 298 367 l 257
 445 518 l 257
 561 402 l 257
 410 255 l 257
 561 108 l 257
 445 -8 l 257
 298 143 l 257
 151 -8 l 257
EndSplineSet
EndChar

StartChar: Oslash
Encoding: 216 216 124
GlifName: O_slash
Width: 790
VWidth: 0
Flags: HMW
LayerCount: 2
Fore
SplineSet
263 350 m 256
 263 242 322 178 420 178 c 256
 518 178 577 242 577 350 c 256
 577 458 518 522 420 522 c 256
 322 522 263 458 263 350 c 256
30 350 m 256
 30 574 196 720 420 720 c 256
 644 720 810 574 810 350 c 256
 810 126 644 -30 420 -30 c 256
 196 -30 30 126 30 350 c 256
703 760 m 257
 782 700 l 257
 133 -60 l 257
 55 0 l 257
 703 760 l 257
EndSplineSet
EndChar

StartChar: Thorn
Encoding: 222 222 125
GlifName: T_horn
Width: 650
VWidth: 0
Flags: HMW
LayerCount: 2
Fore
SplineSet
80 700 m 257
 265 700 l 257
 265 0 l 257
 80 0 l 257
 80 700 l 257
202 425 m 257
 202 590 l 257
 335 590 l 258
 540 590 628 504 628 355 c 256
 628 206 540 120 335 120 c 258
 202 120 l 257
 202 285 l 257
 335 285 l 258
 404 285 438 299 438 355 c 256
 438 411 404 425 335 425 c 258
 202 425 l 257
EndSplineSet
EndChar

StartChar: divide
Encoding: 247 247 126
GlifName: divide
Width: 650
VWidth: 0
Flags: HMW
LayerCount: 2
Fore
SplineSet
207 615 m 256
 207 678 255 730 325 730 c 256
 395 730 443 678 443 615 c 256
 443 552 395 500 325 500 c 256
 255 500 207 552 207 615 c 256
207 115 m 256
 207 178 255 230 325 230 c 256
 395 230 443 178 443 115 c 256
 443 52 395 0 325 0 c 256
 255 0 207 52 207 115 c 256
5 280 m 257
 5 450 l 257
 645 450 l 257
 645 280 l 257
 5 280 l 257
EndSplineSet
EndChar

StartChar: oslash
Encoding: 248 248 127
GlifName: oslash
Width: 546
VWidth: 0
Flags: HMW
LayerCount: 2
Fore
SplineSet
30 230 m 256
 30 389 153 470 308 470 c 256
 463 470 586 389 586 230 c 256
 586 71 463 -10 308 -10 c 256
 153 -10 30 71 30 230 c 256
211 230 m 256
 211 164 258 135 308 135 c 256
 358 135 405 164 405 230 c 256
 405 286 358 325 308 325 c 256
 258 325 211 286 211 230 c 256
465 510 m 257
 530 470 l 257
 140 -54 l 257
 75 -14 l 257
 465 510 l 257
EndSplineSet
EndChar

StartChar: circumflex
Encoding: 710 710 128
GlifName: circumflex
Width: 480
VWidth: 0
Flags: HMW
LayerCount: 2
Fore
SplineSet
240 620 m 257
 160 540 l 257
 20 630 l 257
 240 770 l 257
 460 630 l 257
 320 540 l 257
 240 620 l 257
EndSplineSet
EndChar

StartChar: ogonek
Encoding: 731 731 129
GlifName: ogonek
Width: 260
VWidth: 0
Flags: HMW
LayerCount: 2
Fore
SplineSet
194 -100 m 257
 227 -180 l 257
 212 -200 182 -220 119 -220 c 256
 65 -220 6 -189 6 -120 c 256
 6 -51 78 -11 148 25 c 257
 189 0 l 257
 137 -32 116 -63 116 -90 c 256
 116 -108 124 -120 144 -120 c 256
 160 -120 180 -113 194 -100 c 257
EndSplineSet
EndChar

StartChar: tilde
Encoding: 732 732 130
GlifName: tilde
Width: 530
VWidth: 0
Flags: HMW
LayerCount: 2
Fore
SplineSet
60 645 m 257
 70 694 114 747 189 747 c 256
 256 747 275 692 333 692 c 256
 362 692 384 716 404 748 c 257
 490 655 l 257
 474 618 409 562 339 562 c 256
 284 562 240 619 188 619 c 256
 152 619 143 583 143 568 c 257
 60 645 l 257
EndSplineSet
EndChar

StartChar: ring
Encoding: 730 730 131
GlifName: ring
Width: 358
VWidth: 0
Flags: HMW
LayerCount: 2
Fore
SplineSet
40 760 m 256
 40 834 98 885 178 885 c 256
 258 885 318 834 318 760 c 256
 318 686 258 635 178 635 c 256
 98 635 40 686 40 760 c 256
135 760 m 256
 135 732 153 716 178 716 c 256
 203 716 222 732 222 760 c 256
 222 788 203 805 178 805 c 256
 153 805 135 788 135 760 c 256
EndSplineSet
EndChar

StartChar: dotaccent
Encoding: 729 729 132
GlifName: dotaccent
Width: 300
VWidth: 0
Flags: HMW
LayerCount: 2
Fore
SplineSet
42 827 m 256
 42 886 90 925 150 925 c 256
 210 925 258 886 258 827 c 256
 258 768 210 729 150 729 c 256
 90 729 42 768 42 827 c 256
EndSplineSet
EndChar

StartChar: uni2010
Encoding: 8208 8208 133
GlifName: uni2010
Width: 230
VWidth: 0
Flags: HMW
LayerCount: 2
Fore
SplineSet
5 155 m 257
 5 320 l 257
 225 320 l 257
 225 155 l 257
 5 155 l 257
EndSplineSet
EndChar

StartChar: endash
Encoding: 8211 8211 134
GlifName: endash
Width: 810
VWidth: 0
Flags: HMW
LayerCount: 2
Fore
SplineSet
70 155 m 257
 70 320 l 257
 730 320 l 257
 730 155 l 257
 70 155 l 257
EndSplineSet
EndChar

StartChar: figuredash
Encoding: 8210 8210 135
GlifName: figuredash
Width: 650
VWidth: 0
Flags: HMW
LayerCount: 2
Fore
SplineSet
70 155 m 257
 70 320 l 257
 565 320 l 257
 565 155 l 257
 70 155 l 257
EndSplineSet
EndChar

StartChar: emdash
Encoding: 8212 8212 136
GlifName: emdash
Width: 970
VWidth: 0
Flags: HMW
LayerCount: 2
Fore
SplineSet
70 155 m 257
 70 320 l 257
 895 320 l 257
 895 155 l 257
 70 155 l 257
EndSplineSet
EndChar

StartChar: minus
Encoding: 8722 8722 137
GlifName: minus
Width: 595
VWidth: 0
Flags: HMW
LayerCount: 2
Fore
SplineSet
50 155 m 257
 50 320 l 257
 545 320 l 257
 545 155 l 257
 50 155 l 257
EndSplineSet
EndChar

StartChar: quoteright
Encoding: 8217 8217 138
GlifName: quoteright
Width: 365
VWidth: 0
Flags: HMW
LayerCount: 2
Fore
SplineSet
100 700 m 257
 295 700 l 257
 190 430 l 257
 50 430 l 257
 100 700 l 257
EndSplineSet
EndChar

StartChar: quoteleft
Encoding: 8216 8216 139
GlifName: quoteleft
Width: 365
VWidth: 0
Flags: HMW
LayerCount: 2
Fore
SplineSet
265 430 m 257
 70 430 l 257
 175 700 l 257
 315 700 l 257
 265 430 l 257
EndSplineSet
EndChar

StartChar: quotesinglbase
Encoding: 8218 8218 140
GlifName: quotesinglbase
Width: 365
VWidth: 0
Flags: HMW
LayerCount: 2
Fore
SplineSet
110 80 m 257
 305 80 l 257
 200 -190 l 257
 60 -190 l 257
 110 80 l 257
EndSplineSet
EndChar

StartChar: quotedblleft
Encoding: 8220 8220 141
GlifName: quotedblleft
Width: 615
VWidth: 0
Flags: HMW
LayerCount: 2
Fore
SplineSet
265 430 m 257
 70 430 l 257
 175 700 l 257
 315 700 l 257
 265 430 l 257
515 430 m 257
 320 430 l 257
 425 700 l 257
 565 700 l 257
 515 430 l 257
EndSplineSet
EndChar

StartChar: quotedblright
Encoding: 8221 8221 142
GlifName: quotedblright
Width: 615
VWidth: 0
Flags: HMW
LayerCount: 2
Fore
SplineSet
100 700 m 257
 295 700 l 257
 190 430 l 257
 50 430 l 257
 100 700 l 257
350 700 m 257
 545 700 l 257
 440 430 l 257
 300 430 l 257
 350 700 l 257
EndSplineSet
EndChar

StartChar: perthousand
Encoding: 8240 8240 143
GlifName: perthousand
Width: 1521
VWidth: 0
Flags: HMW
LayerCount: 2
Fore
SplineSet
1090 176 m 256
 1090 286 1183 376 1298 376 c 256
 1413 376 1506 286 1506 176 c 256
 1506 66 1413 -24 1298 -24 c 256
 1183 -24 1090 66 1090 176 c 256
1247 176 m 256
 1247 149 1270 127 1298 127 c 256
 1326 127 1349 149 1349 176 c 256
 1349 203 1326 225 1298 225 c 256
 1270 225 1247 203 1247 176 c 256
15 525 m 256
 15 635 108 725 223 725 c 256
 338 725 431 635 431 525 c 256
 431 415 338 325 223 325 c 256
 108 325 15 415 15 525 c 256
172 525 m 256
 172 498 195 476 223 476 c 256
 251 476 274 498 274 525 c 256
 274 552 251 574 223 574 c 256
 195 574 172 552 172 525 c 256
590 176 m 256
 590 286 683 376 798 376 c 256
 913 376 1006 286 1006 176 c 256
 1006 66 913 -24 798 -24 c 256
 683 -24 590 66 590 176 c 256
747 176 m 256
 747 149 770 127 798 127 c 256
 826 127 849 149 849 176 c 256
 849 203 826 225 798 225 c 256
 770 225 747 203 747 176 c 256
703 700 m 257
 908 700 l 257
 318 0 l 257
 113 0 l 257
 703 700 l 257
EndSplineSet
EndChar

StartChar: guilsinglleft
Encoding: 8249 8249 144
GlifName: guilsinglleft
Width: 350
VWidth: 0
Flags: HMW
LayerCount: 2
Fore
SplineSet
159.767 259.419 m 257
 310 65 l 257
 190 -10 l 257
 20 255 l 257
 190 520 l 257
 310 445 l 257
 159.767 259.419 l 257
EndSplineSet
EndChar

StartChar: guilsinglright
Encoding: 8250 8250 145
GlifName: guilsinglright
Width: 350
VWidth: 0
Flags: HMW
LayerCount: 2
Fore
SplineSet
190.233 250.581 m 257
 40 445 l 257
 160 520 l 257
 330 255 l 257
 160 -10 l 257
 40 65 l 257
 190.233 250.581 l 257
EndSplineSet
EndChar

StartChar: uni2031
Encoding: 8241 8241 146
GlifName: uni2031
Width: 2021
VWidth: 0
Flags: HMW
LayerCount: 2
Fore
SplineSet
1590 176 m 256
 1590 286 1683 376 1798 376 c 256
 1913 376 2006 286 2006 176 c 256
 2006 66 1913 -24 1798 -24 c 256
 1683 -24 1590 66 1590 176 c 256
1747 176 m 256
 1747 149 1770 127 1798 127 c 256
 1826 127 1849 149 1849 176 c 256
 1849 203 1826 225 1798 225 c 256
 1770 225 1747 203 1747 176 c 256
1090 176 m 256
 1090 286 1183 376 1298 376 c 256
 1413 376 1506 286 1506 176 c 256
 1506 66 1413 -24 1298 -24 c 256
 1183 -24 1090 66 1090 176 c 256
1247 176 m 256
 1247 149 1270 127 1298 127 c 256
 1326 127 1349 149 1349 176 c 256
 1349 203 1326 225 1298 225 c 256
 1270 225 1247 203 1247 176 c 256
15 525 m 256
 15 635 108 725 223 725 c 256
 338 725 431 635 431 525 c 256
 431 415 338 325 223 325 c 256
 108 325 15 415 15 525 c 256
172 525 m 256
 172 498 195 476 223 476 c 256
 251 476 274 498 274 525 c 256
 274 552 251 574 223 574 c 256
 195 574 172 552 172 525 c 256
590 176 m 256
 590 286 683 376 798 376 c 256
 913 376 1006 286 1006 176 c 256
 1006 66 913 -24 798 -24 c 256
 683 -24 590 66 590 176 c 256
747 176 m 256
 747 149 770 127 798 127 c 256
 826 127 849 149 849 176 c 256
 849 203 826 225 798 225 c 256
 770 225 747 203 747 176 c 256
703 700 m 257
 908 700 l 257
 318 0 l 257
 113 0 l 257
 703 700 l 257
EndSplineSet
EndChar

StartChar: uni203D
Encoding: 8253 8253 147
GlifName: uni203D_
Width: 669
VWidth: 0
Flags: HMW
LayerCount: 2
Fore
SplineSet
445 470 m 256
 445 536 394 565 319 565 c 256
 262 565 196 546 165 476 c 257
 40 587 l 257
 86 657 210 723 339 723 c 256
 474 723 619 649 619 500 c 256
 619 331 421 270 306 270 c 257
 306 350 l 257
 366 350 445 394 445 470 c 256
225 500 m 257
 397 500 l 257
 365 220 l 257
 257 220 l 257
 225 500 l 257
200 75 m 256
 200 135 250 180 320 180 c 256
 390 180 440 135 440 75 c 256
 440 15 390 -30 320 -30 c 256
 250 -30 200 15 200 75 c 256
EndSplineSet
EndChar

StartChar: Euro
Encoding: 8364 8364 148
GlifName: E_uro
Width: 700
VWidth: 0
Flags: HMW
LayerCount: 2
Fore
SplineSet
77 366 m 257
 77 472 l 257
 563 472 l 257
 563 366 l 257
 77 366 l 257
55 228 m 257
 55 334 l 257
 547 334 l 257
 547 228 l 257
 55 228 l 257
305 350 m 256
 305 207 362 150 440 150 c 256
 497 150 549 172 590 212 c 257
 590 16 l 257
 545 -10 494 -25 440 -25 c 256
 236 -25 120 141 120 350 c 256
 120 559 236 726 440 726 c 256
 494 726 545 711 590 685 c 257
 590 488 l 257
 549 528 497 550 440 550 c 256
 362 550 305 493 305 350 c 256
EndSplineSet
EndChar

StartChar: fraction
Encoding: 8260 8260 149
GlifName: fraction
Width: 745
VWidth: 0
Flags: HMW
LayerCount: 2
Fore
SplineSet
580 700 m 257
 735 700 l 257
 215 0 l 257
 60 0 l 257
 580 700 l 257
EndSplineSet
EndChar

StartChar: onequarter
Encoding: 188 188 150
GlifName: onequarter
Width: 864
VWidth: 0
Flags: HMW
LayerCount: 2
Fore
SplineSet
638 700 m 257
 753 700 l 257
 233 0 l 257
 118 0 l 257
 638 700 l 257
20 549 m 257
 20 659 l 257
 257 703 l 257
 257 274 l 257
 131 274 l 257
 131 574 l 257
 20 549 l 257
412 69 m 257
 520 159 l 257
 708 159 l 256
 718 180 l 256
 837 180 l 257
 837 69 l 257
 412 69 l 257
544 117 m 257
 412 69 l 257
 663 420 l 257
 771 420 l 257
 771 0 l 257
 633 0 l 257
 633 91 l 256
 651 97 l 256
 651 253 l 257
 544 117 l 257
EndSplineSet
EndChar

StartChar: onehalf
Encoding: 189 189 151
GlifName: onehalf
Width: 939
VWidth: 0
Flags: HMW
LayerCount: 2
Fore
SplineSet
638 700 m 257
 753 700 l 257
 233 0 l 257
 118 0 l 257
 638 700 l 257
20 549 m 257
 20 659 l 257
 257 703 l 257
 257 274 l 257
 131 274 l 257
 131 574 l 257
 20 549 l 257
513 2 m 257
 694 185 l 258
 731 225 754 248 754 281 c 256
 754 302 741 321 710 321 c 256
 680 321 660 294 660 260 c 257
 531 260 l 257
 531 349 592 432 715 432 c 256
 826 432 890 362 890 291 c 256
 890 245 865 209 827 180 c 258
 751 122 l 257
 905 122 l 257
 905 2 l 257
 513 2 l 257
EndSplineSet
EndChar

StartChar: threequarters
Encoding: 190 190 152
GlifName: threequarters
Width: 915
VWidth: 0
Flags: HMW
LayerCount: 2
Fore
SplineSet
700 700 m 257
 815 700 l 257
 295 0 l 257
 180 0 l 257
 700 700 l 257
172 481 m 257
 172 534 l 257
 214 534 245 556 245 581 c 256
 245 597 233 607 207 607 c 256
 180 607 162 591 162 566 c 257
 41 566 l 257
 41 646 106 709 208 709 c 256
 316 709 375 658 375 590 c 256
 375 510 283 481 172 481 c 257
202 268 m 256
 88 268 23 347 23 427 c 257
 153 427 l 257
 153 384 181 370 208 370 c 256
 235 370 257 378 257 409 c 256
 257 434 238 457 172 457 c 257
 172 519 l 257
 301 519 387 483 387 397 c 256
 387 323 322 268 202 268 c 256
464 69 m 257
 572 159 l 257
 760 159 l 256
 770 180 l 256
 889 180 l 257
 889 69 l 257
 464 69 l 257
596 117 m 257
 464 69 l 257
 715 420 l 257
 823 420 l 257
 823 0 l 257
 685 0 l 257
 685 91 l 256
 703 97 l 256
 703 253 l 257
 596 117 l 257
EndSplineSet
EndChar

StartChar: uni2150
Encoding: 8528 8528 153
GlifName: uni2150
Width: 1002
VWidth: 0
Flags: HMW
LayerCount: 2
Fore
SplineSet
628 700 m 257
 783 700 l 257
 263 0 l 257
 108 0 l 257
 628 700 l 257
20 549 m 257
 20 659 l 257
 257 703 l 257
 257 274 l 257
 131 274 l 257
 131 574 l 257
 20 549 l 257
613 297 m 257
 613 420 l 257
 985 420 l 257
 781 0 l 257
 638 0 l 257
 792 297 l 257
 613 297 l 257
EndSplineSet
EndChar

StartChar: uni2151
Encoding: 8529 8529 154
GlifName: uni2151
Width: 944
VWidth: 0
Flags: HMW
LayerCount: 2
Fore
SplineSet
618 700 m 257
 773 700 l 257
 253 0 l 257
 98 0 l 257
 618 700 l 257
20 549 m 257
 20 659 l 257
 257 703 l 257
 257 274 l 257
 131 274 l 257
 131 574 l 257
 20 549 l 257
787 269 m 256
 787 303 763 323 731 323 c 256
 699 323 674 303 674 269 c 256
 674 235 699 214 731 214 c 256
 763 214 787 235 787 269 c 256
748 5 m 257
 580 5 l 257
 719 144 l 257
 750 160 l 257
 724 137 708 132 676 132 c 256
 617 132 543 180 543 269 c 256
 543 382 629 434 731 434 c 256
 833 434 919 382 919 269 c 256
 919 217 890 175 856 134 c 258
 748 5 l 257
EndSplineSet
EndChar

StartChar: uni2152
Encoding: 8530 8530 155
GlifName: uni2152
Width: 1290
VWidth: 0
Flags: HMW
LayerCount: 2
Fore
SplineSet
618 700 m 257
 773 700 l 257
 253 0 l 257
 98 0 l 257
 618 700 l 257
20 549 m 257
 20 659 l 257
 257 703 l 257
 257 274 l 257
 131 274 l 257
 131 574 l 257
 20 549 l 257
588 276 m 257
 588 386 l 257
 825 430 l 257
 825 1 l 257
 699 1 l 257
 699 301 l 257
 588 276 l 257
1009 210 m 256
 1009 142 1034 102 1069 102 c 256
 1104 102 1129 142 1129 210 c 256
 1129 278 1104 318 1069 318 c 256
 1034 318 1009 278 1009 210 c 256
883 210 m 256
 883 353 959 429 1069 429 c 256
 1185 429 1255 353 1255 210 c 256
 1255 67 1185 -9 1069 -9 c 256
 959 -9 883 67 883 210 c 256
EndSplineSet
EndChar

StartChar: onethird
Encoding: 8531 8531 156
GlifName: onethird
Width: 945
VWidth: 0
Flags: HMW
LayerCount: 2
Fore
SplineSet
617 700 m 257
 772 700 l 257
 252 0 l 257
 97 0 l 257
 617 700 l 257
20 549 m 257
 20 659 l 257
 257 703 l 257
 257 274 l 257
 131 274 l 257
 131 574 l 257
 20 549 l 257
707 201 m 257
 707 254 l 257
 749 254 780 276 780 301 c 256
 780 317 768 327 742 327 c 256
 715 327 697 311 697 286 c 257
 576 286 l 257
 576 366 641 429 743 429 c 256
 851 429 910 378 910 310 c 256
 910 230 818 201 707 201 c 257
737 -12 m 256
 623 -12 558 67 558 147 c 257
 688 147 l 257
 688 104 716 90 743 90 c 256
 770 90 792 98 792 129 c 256
 792 154 773 177 707 177 c 257
 707 239 l 257
 836 239 922 203 922 117 c 256
 922 43 857 -12 737 -12 c 256
EndSplineSet
EndChar

StartChar: twothirds
Encoding: 8532 8532 157
GlifName: twothirds
Width: 1082
VWidth: 0
Flags: HMW
LayerCount: 2
Fore
SplineSet
775 700 m 257
 930 700 l 257
 410 0 l 257
 255 0 l 257
 775 700 l 257
30 282 m 257
 211 465 l 258
 248 505 271 528 271 561 c 256
 271 582 258 601 227 601 c 256
 197 601 177 574 177 540 c 257
 48 540 l 257
 48 629 109 712 232 712 c 256
 343 712 407 642 407 571 c 256
 407 525 382 489 344 460 c 258
 268 402 l 257
 422 402 l 257
 422 282 l 257
 30 282 l 257
844 201 m 257
 844 254 l 257
 886 254 917 276 917 301 c 256
 917 317 905 327 879 327 c 256
 852 327 834 311 834 286 c 257
 713 286 l 257
 713 366 778 429 880 429 c 256
 988 429 1047 378 1047 310 c 256
 1047 230 955 201 844 201 c 257
874 -12 m 256
 760 -12 695 67 695 147 c 257
 825 147 l 257
 825 104 853 90 880 90 c 256
 907 90 929 98 929 129 c 256
 929 154 910 177 844 177 c 257
 844 239 l 257
 973 239 1059 203 1059 117 c 256
 1059 43 994 -12 874 -12 c 256
EndSplineSet
EndChar

StartChar: uni2155
Encoding: 8533 8533 158
GlifName: uni2155
Width: 934
VWidth: 0
Flags: HMW
LayerCount: 2
Fore
SplineSet
618 700 m 257
 773 700 l 257
 253 0 l 257
 98 0 l 257
 618 700 l 257
20 549 m 257
 20 659 l 257
 257 703 l 257
 257 274 l 257
 131 274 l 257
 131 574 l 257
 20 549 l 257
915 130 m 256
 915 29 813 -11 732 -11 c 256
 655 -11 599 5 553 23 c 257
 590 140 l 257
 633 116 674 109 696 109 c 256
 741 109 770 117 770 148 c 256
 770 179 729 184 696 184 c 256
 668 184 615 180 572 164 c 257
 667 222 l 257
 701 258 739 265 786 265 c 256
 849 265 915 219 915 130 c 256
728 304 m 257
 691 212 l 257
 572 164 l 257
 632 418 l 257
 902 418 l 257
 902 304 l 257
 728 304 l 257
EndSplineSet
EndChar

StartChar: uni2156
Encoding: 8534 8534 159
GlifName: uni2156
Width: 1086
VWidth: 0
Flags: HMW
LayerCount: 2
Fore
SplineSet
775 700 m 257
 930 700 l 257
 410 0 l 257
 255 0 l 257
 775 700 l 257
30 282 m 257
 211 465 l 258
 248 505 271 528 271 561 c 256
 271 582 258 601 227 601 c 256
 197 601 177 574 177 540 c 257
 48 540 l 257
 48 629 109 712 232 712 c 256
 343 712 407 642 407 571 c 256
 407 525 382 489 344 460 c 258
 268 402 l 257
 422 402 l 257
 422 282 l 257
 30 282 l 257
1052 130 m 256
 1052 29 950 -11 869 -11 c 256
 792 -11 736 5 690 23 c 257
 727 140 l 257
 770 116 811 109 833 109 c 256
 878 109 907 117 907 148 c 256
 907 179 866 184 833 184 c 256
 805 184 752 180 709 164 c 257
 804 222 l 257
 838 258 876 265 923 265 c 256
 986 265 1052 219 1052 130 c 256
865 304 m 257
 828 212 l 257
 709 164 l 257
 769 418 l 257
 1039 418 l 257
 1039 304 l 257
 865 304 l 257
EndSplineSet
EndChar

StartChar: uni2157
Encoding: 8535 8535 160
GlifName: uni2157
Width: 991
VWidth: 0
Flags: HMW
LayerCount: 2
Fore
SplineSet
685 700 m 257
 840 700 l 257
 320 0 l 257
 165 0 l 257
 685 700 l 257
167 481 m 257
 167 534 l 257
 209 534 240 556 240 581 c 256
 240 597 228 607 202 607 c 256
 175 607 157 591 157 566 c 257
 36 566 l 257
 36 646 101 709 203 709 c 256
 311 709 370 658 370 590 c 256
 370 510 278 481 167 481 c 257
197 268 m 256
 83 268 18 347 18 427 c 257
 148 427 l 257
 148 384 176 370 203 370 c 256
 230 370 252 378 252 409 c 256
 252 434 233 457 167 457 c 257
 167 519 l 257
 296 519 382 483 382 397 c 256
 382 323 317 268 197 268 c 256
952 130 m 256
 952 29 850 -11 769 -11 c 256
 692 -11 636 5 590 23 c 257
 627 140 l 257
 670 116 711 109 733 109 c 256
 778 109 807 117 807 148 c 256
 807 179 766 184 733 184 c 256
 705 184 652 180 609 164 c 257
 704 222 l 257
 738 258 776 265 823 265 c 256
 886 265 952 219 952 130 c 256
765 304 m 257
 728 212 l 257
 609 164 l 257
 669 418 l 257
 939 418 l 257
 939 304 l 257
 765 304 l 257
EndSplineSet
EndChar

StartChar: uni2158
Encoding: 8536 8536 161
GlifName: uni2158
Width: 1106
VWidth: 0
Flags: HMW
LayerCount: 2
Fore
SplineSet
760 699 m 257
 915 699 l 257
 395 -1 l 257
 240 -1 l 257
 760 699 l 257
17 349 m 257
 125 439 l 257
 313 439 l 256
 323 460 l 256
 442 460 l 257
 442 349 l 257
 17 349 l 257
149 397 m 257
 17 349 l 257
 268 700 l 257
 376 700 l 257
 376 280 l 257
 238 280 l 257
 238 371 l 256
 256 377 l 256
 256 533 l 257
 149 397 l 257
1077 129 m 256
 1077 28 975 -12 894 -12 c 256
 817 -12 761 4 715 22 c 257
 752 139 l 257
 795 115 836 108 858 108 c 256
 903 108 932 116 932 147 c 256
 932 178 891 183 858 183 c 256
 830 183 777 179 734 163 c 257
 829 221 l 257
 863 257 901 264 948 264 c 256
 1011 264 1077 218 1077 129 c 256
890 303 m 257
 853 211 l 257
 734 163 l 257
 794 417 l 257
 1064 417 l 257
 1064 303 l 257
 890 303 l 257
EndSplineSet
EndChar

StartChar: uni2159
Encoding: 8537 8537 162
GlifName: uni2159
Width: 954
VWidth: 0
Flags: HMW
LayerCount: 2
Fore
SplineSet
648 700 m 257
 803 700 l 257
 283 0 l 257
 128 0 l 257
 648 700 l 257
20 549 m 257
 20 659 l 257
 257 703 l 257
 257 274 l 257
 131 274 l 257
 131 574 l 257
 20 549 l 257
679 151 m 256
 679 117 704 97 736 97 c 256
 768 97 792 117 792 151 c 256
 792 185 768 206 736 206 c 256
 704 206 679 185 679 151 c 256
719 415 m 257
 886 415 l 257
 748 276 l 257
 717 260 l 257
 743 283 758 288 790 288 c 256
 849 288 924 240 924 151 c 256
 924 38 838 -14 736 -14 c 256
 634 -14 548 38 548 151 c 256
 548 203 576 245 610 286 c 258
 719 415 l 257
EndSplineSet
EndChar

StartChar: uni215A
Encoding: 8538 8538 163
GlifName: uni215A_
Width: 976
VWidth: 0
Flags: HMW
LayerCount: 2
Fore
SplineSet
700 700 m 257
 855 700 l 257
 335 0 l 257
 180 0 l 257
 700 700 l 257
392 410 m 256
 392 309 290 269 209 269 c 256
 132 269 76 285 30 303 c 257
 67 420 l 257
 110 396 151 389 173 389 c 256
 218 389 247 397 247 428 c 256
 247 459 206 464 173 464 c 256
 145 464 92 460 49 444 c 257
 144 502 l 257
 178 538 216 545 263 545 c 256
 326 545 392 499 392 410 c 256
205 584 m 257
 168 492 l 257
 49 444 l 257
 109 698 l 257
 379 698 l 257
 379 584 l 257
 205 584 l 257
701 151 m 256
 701 117 726 97 758 97 c 256
 790 97 814 117 814 151 c 256
 814 185 790 206 758 206 c 256
 726 206 701 185 701 151 c 256
741 415 m 257
 908 415 l 257
 770 276 l 257
 739 260 l 257
 765 283 780 288 812 288 c 256
 871 288 946 240 946 151 c 256
 946 38 860 -14 758 -14 c 256
 656 -14 570 38 570 151 c 256
 570 203 598 245 632 286 c 258
 741 415 l 257
EndSplineSet
EndChar

StartChar: oneeighth
Encoding: 8539 8539 164
GlifName: oneeighth
Width: 970
VWidth: 0
Flags: HMW
LayerCount: 2
Fore
SplineSet
648 700 m 257
 803 700 l 257
 283 0 l 257
 128 0 l 257
 648 700 l 257
20 549 m 257
 20 659 l 257
 257 703 l 257
 257 274 l 257
 131 274 l 257
 131 574 l 257
 20 549 l 257
608 319 m 256
 608 396 682 432 766 432 c 256
 850 432 924 396 924 319 c 256
 924 236 835 201 766 201 c 256
 697 201 608 236 608 319 c 256
732 307 m 256
 732 285 745 270 766 270 c 256
 787 270 800 285 800 307 c 256
 800 329 787 342 766 342 c 256
 745 342 732 329 732 307 c 256
593 114 m 256
 593 209 697 240 766 240 c 256
 835 240 939 209 939 114 c 256
 939 31 853 -12 766 -12 c 256
 679 -12 593 31 593 114 c 256
726 135 m 256
 726 107 742 93 766 93 c 256
 790 93 806 107 806 135 c 256
 806 157 790 174 766 174 c 256
 742 174 726 157 726 135 c 256
EndSplineSet
EndChar

StartChar: threeeighths
Encoding: 8540 8540 165
GlifName: threeeighths
Width: 1017
VWidth: 0
Flags: HMW
LayerCount: 2
Fore
SplineSet
695 700 m 257
 850 700 l 257
 330 0 l 257
 175 0 l 257
 695 700 l 257
167 481 m 257
 167 534 l 257
 209 534 240 556 240 581 c 256
 240 597 228 607 202 607 c 256
 175 607 157 591 157 566 c 257
 36 566 l 257
 36 646 101 709 203 709 c 256
 311 709 370 658 370 590 c 256
 370 510 278 481 167 481 c 257
197 268 m 256
 83 268 18 347 18 427 c 257
 148 427 l 257
 148 384 176 370 203 370 c 256
 230 370 252 378 252 409 c 256
 252 434 233 457 167 457 c 257
 167 519 l 257
 296 519 382 483 382 397 c 256
 382 323 317 268 197 268 c 256
655 319 m 256
 655 396 729 432 813 432 c 256
 897 432 971 396 971 319 c 256
 971 236 882 201 813 201 c 256
 744 201 655 236 655 319 c 256
779 307 m 256
 779 285 792 270 813 270 c 256
 834 270 847 285 847 307 c 256
 847 329 834 342 813 342 c 256
 792 342 779 329 779 307 c 256
640 114 m 256
 640 209 744 240 813 240 c 256
 882 240 986 209 986 114 c 256
 986 31 900 -12 813 -12 c 256
 726 -12 640 31 640 114 c 256
773 135 m 256
 773 107 789 93 813 93 c 256
 837 93 853 107 853 135 c 256
 853 157 837 174 813 174 c 256
 789 174 773 157 773 135 c 256
EndSplineSet
EndChar

StartChar: fiveeighths
Encoding: 8541 8541 166
GlifName: fiveeighths
Width: 1022
VWidth: 0
Flags: HMW
LayerCount: 2
Fore
SplineSet
700 700 m 257
 855 700 l 257
 335 0 l 257
 180 0 l 257
 700 700 l 257
382 410 m 256
 382 309 280 269 199 269 c 256
 122 269 66 285 20 303 c 257
 57 420 l 257
 100 396 141 389 163 389 c 256
 208 389 237 397 237 428 c 256
 237 459 196 464 163 464 c 256
 135 464 82 460 39 444 c 257
 134 502 l 257
 168 538 206 545 253 545 c 256
 316 545 382 499 382 410 c 256
195 584 m 257
 158 492 l 257
 39 444 l 257
 99 698 l 257
 369 698 l 257
 369 584 l 257
 195 584 l 257
660 319 m 256
 660 396 734 432 818 432 c 256
 902 432 976 396 976 319 c 256
 976 236 887 201 818 201 c 256
 749 201 660 236 660 319 c 256
784 307 m 256
 784 285 797 270 818 270 c 256
 839 270 852 285 852 307 c 256
 852 329 839 342 818 342 c 256
 797 342 784 329 784 307 c 256
645 114 m 256
 645 209 749 240 818 240 c 256
 887 240 991 209 991 114 c 256
 991 31 905 -12 818 -12 c 256
 731 -12 645 31 645 114 c 256
778 135 m 256
 778 107 794 93 818 93 c 256
 842 93 858 107 858 135 c 256
 858 157 842 174 818 174 c 256
 794 174 778 157 778 135 c 256
EndSplineSet
EndChar

StartChar: seveneighths
Encoding: 8542 8542 167
GlifName: seveneighths
Width: 912
VWidth: 0
Flags: HMW
LayerCount: 2
Fore
SplineSet
580 700 m 257
 735 700 l 257
 215 0 l 257
 60 0 l 257
 580 700 l 257
19 577 m 257
 19 700 l 257
 391 700 l 257
 187 280 l 257
 44 280 l 257
 198 577 l 257
 19 577 l 257
550 319 m 256
 550 396 624 432 708 432 c 256
 792 432 866 396 866 319 c 256
 866 236 777 201 708 201 c 256
 639 201 550 236 550 319 c 256
674 307 m 256
 674 285 687 270 708 270 c 256
 729 270 742 285 742 307 c 256
 742 329 729 342 708 342 c 256
 687 342 674 329 674 307 c 256
535 114 m 256
 535 209 639 240 708 240 c 256
 777 240 881 209 881 114 c 256
 881 31 795 -12 708 -12 c 256
 621 -12 535 31 535 114 c 256
668 135 m 256
 668 107 684 93 708 93 c 256
 732 93 748 107 748 135 c 256
 748 157 732 174 708 174 c 256
 684 174 668 157 668 135 c 256
EndSplineSet
EndChar

StartChar: uni2074
Encoding: 8308 8308 168
GlifName: uni2074
Width: 451
VWidth: 0
Flags: HMW
LayerCount: 2
Fore
SplineSet
7 349 m 257
 115 439 l 257
 303 439 l 256
 313 460 l 256
 432 460 l 257
 432 349 l 257
 7 349 l 257
139 397 m 257
 7 349 l 257
 258 700 l 257
 366 700 l 257
 366 280 l 257
 228 280 l 257
 228 371 l 256
 246 377 l 256
 246 533 l 257
 139 397 l 257
EndSplineSet
EndChar

StartChar: uni2075
Encoding: 8309 8309 169
GlifName: uni2075
Width: 406
VWidth: 0
Flags: HMW
LayerCount: 2
Fore
SplineSet
382 410 m 256
 382 309 280 269 199 269 c 256
 122 269 66 285 20 303 c 257
 57 420 l 257
 100 396 141 389 163 389 c 256
 208 389 237 397 237 428 c 256
 237 459 196 464 163 464 c 256
 135 464 82 460 39 444 c 257
 134 502 l 257
 168 538 206 545 253 545 c 256
 316 545 382 499 382 410 c 256
195 584 m 257
 158 492 l 257
 39 444 l 257
 99 698 l 257
 369 698 l 257
 369 584 l 257
 195 584 l 257
EndSplineSet
EndChar

StartChar: uni2076
Encoding: 8310 8310 170
GlifName: uni2076
Width: 406
VWidth: 0
Flags: HMW
LayerCount: 2
Fore
SplineSet
145 431 m 256
 145 397 170 377 202 377 c 256
 234 377 258 397 258 431 c 256
 258 465 234 486 202 486 c 256
 170 486 145 465 145 431 c 256
185 695 m 257
 352 695 l 257
 214 556 l 257
 183 540 l 257
 209 563 224 568 256 568 c 256
 315 568 390 520 390 431 c 256
 390 318 304 266 202 266 c 256
 100 266 14 318 14 431 c 256
 14 483 42 525 76 566 c 258
 185 695 l 257
EndSplineSet
EndChar

StartChar: uni2077
Encoding: 8311 8311 171
GlifName: uni2077
Width: 394
VWidth: 0
Flags: HMW
LayerCount: 2
Fore
SplineSet
19 577 m 257
 19 700 l 257
 391 700 l 257
 187 280 l 257
 44 280 l 257
 198 577 l 257
 19 577 l 257
EndSplineSet
EndChar

StartChar: uni2078
Encoding: 8312 8312 172
GlifName: uni2078
Width: 386
VWidth: 0
Flags: HMW
LayerCount: 2
Fore
SplineSet
33 599 m 256
 33 676 107 712 191 712 c 256
 275 712 349 676 349 599 c 256
 349 516 260 481 191 481 c 256
 122 481 33 516 33 599 c 256
157 587 m 256
 157 565 170 550 191 550 c 256
 212 550 225 565 225 587 c 256
 225 609 212 622 191 622 c 256
 170 622 157 609 157 587 c 256
18 394 m 256
 18 489 122 520 191 520 c 256
 260 520 364 489 364 394 c 256
 364 311 278 268 191 268 c 256
 104 268 18 311 18 394 c 256
151 415 m 256
 151 387 167 373 191 373 c 256
 215 373 231 387 231 415 c 256
 231 437 215 454 191 454 c 256
 167 454 151 437 151 415 c 256
EndSplineSet
EndChar

StartChar: uni2079
Encoding: 8313 8313 173
GlifName: uni2079
Width: 401
VWidth: 0
Flags: HMW
LayerCount: 2
Fore
SplineSet
256 549 m 256
 256 583 232 603 200 603 c 256
 168 603 143 583 143 549 c 256
 143 515 168 494 200 494 c 256
 232 494 256 515 256 549 c 256
217 285 m 257
 49 285 l 257
 188 424 l 257
 219 440 l 257
 193 417 177 412 145 412 c 256
 86 412 12 460 12 549 c 256
 12 662 98 714 200 714 c 256
 302 714 388 662 388 549 c 256
 388 497 359 455 325 414 c 258
 217 285 l 257
EndSplineSet
EndChar

StartChar: uni2070
Encoding: 8304 8304 174
GlifName: uni2070
Width: 402
VWidth: 0
Flags: HMW
LayerCount: 2
Fore
SplineSet
141 490 m 256
 141 422 166 382 201 382 c 256
 236 382 261 422 261 490 c 256
 261 558 236 598 201 598 c 256
 166 598 141 558 141 490 c 256
15 490 m 256
 15 633 91 709 201 709 c 256
 317 709 387 633 387 490 c 256
 387 347 317 271 201 271 c 256
 91 271 15 347 15 490 c 256
EndSplineSet
EndChar

StartChar: uni2080
Encoding: 8320 8320 175
GlifName: uni2080
Width: 402
VWidth: 0
Flags: HMW
LayerCount: 2
Fore
SplineSet
141 210 m 256
 141 142 166 102 201 102 c 256
 236 102 261 142 261 210 c 256
 261 278 236 318 201 318 c 256
 166 318 141 278 141 210 c 256
15 210 m 256
 15 353 91 429 201 429 c 256
 317 429 387 353 387 210 c 256
 387 67 317 -9 201 -9 c 256
 91 -9 15 67 15 210 c 256
EndSplineSet
EndChar

StartChar: uni2084
Encoding: 8324 8324 176
GlifName: uni2084
Width: 459
VWidth: 0
Flags: HMW
LayerCount: 2
Fore
SplineSet
5 69 m 257
 113 159 l 257
 301 159 l 256
 311 180 l 256
 430 180 l 257
 430 69 l 257
 5 69 l 257
137 117 m 257
 5 69 l 257
 256 420 l 257
 364 420 l 257
 364 0 l 257
 226 0 l 257
 226 91 l 256
 244 97 l 256
 244 253 l 257
 137 117 l 257
EndSplineSet
EndChar

StartChar: uni2085
Encoding: 8325 8325 177
GlifName: uni2085
Width: 420
VWidth: 0
Flags: HMW
LayerCount: 2
Fore
SplineSet
387 130 m 256
 387 29 285 -11 204 -11 c 256
 127 -11 71 5 25 23 c 257
 62 140 l 257
 105 116 146 109 168 109 c 256
 213 109 242 117 242 148 c 256
 242 179 201 184 168 184 c 256
 140 184 87 180 44 164 c 257
 139 222 l 257
 173 258 211 265 258 265 c 256
 321 265 387 219 387 130 c 256
200 304 m 257
 163 212 l 257
 44 164 l 257
 104 418 l 257
 374 418 l 257
 374 304 l 257
 200 304 l 257
EndSplineSet
EndChar

StartChar: uni2086
Encoding: 8326 8326 178
GlifName: uni2086
Width: 424
VWidth: 0
Flags: HMW
LayerCount: 2
Fore
SplineSet
151 151 m 256
 151 117 176 97 208 97 c 256
 240 97 264 117 264 151 c 256
 264 185 240 206 208 206 c 256
 176 206 151 185 151 151 c 256
191 415 m 257
 358 415 l 257
 220 276 l 257
 189 260 l 257
 215 283 230 288 262 288 c 256
 321 288 396 240 396 151 c 256
 396 38 310 -14 208 -14 c 256
 106 -14 20 38 20 151 c 256
 20 203 48 245 82 286 c 258
 191 415 l 257
EndSplineSet
EndChar

StartChar: uni2087
Encoding: 8327 8327 179
GlifName: uni2087
Width: 402
VWidth: 0
Flags: HMW
LayerCount: 2
Fore
SplineSet
25 297 m 257
 25 420 l 257
 397 420 l 257
 193 0 l 257
 50 0 l 257
 204 297 l 257
 25 297 l 257
EndSplineSet
EndChar

StartChar: uni2088
Encoding: 8328 8328 180
GlifName: uni2088
Width: 396
VWidth: 0
Flags: HMW
LayerCount: 2
Fore
SplineSet
40 319 m 256
 40 396 114 432 198 432 c 256
 282 432 356 396 356 319 c 256
 356 236 267 201 198 201 c 256
 129 201 40 236 40 319 c 256
164 307 m 256
 164 285 177 270 198 270 c 256
 219 270 232 285 232 307 c 256
 232 329 219 342 198 342 c 256
 177 342 164 329 164 307 c 256
25 114 m 256
 25 209 129 240 198 240 c 256
 267 240 371 209 371 114 c 256
 371 31 285 -12 198 -12 c 256
 111 -12 25 31 25 114 c 256
158 135 m 256
 158 107 174 93 198 93 c 256
 222 93 238 107 238 135 c 256
 238 157 222 174 198 174 c 256
 174 174 158 157 158 135 c 256
EndSplineSet
EndChar

StartChar: uni2089
Encoding: 8329 8329 181
GlifName: uni2089
Width: 430
VWidth: 0
Flags: HMW
LayerCount: 2
Fore
SplineSet
269 269 m 256
 269 303 245 323 213 323 c 256
 181 323 156 303 156 269 c 256
 156 235 181 214 213 214 c 256
 245 214 269 235 269 269 c 256
230 5 m 257
 62 5 l 257
 201 144 l 257
 232 160 l 257
 206 137 190 132 158 132 c 256
 99 132 25 180 25 269 c 256
 25 382 111 434 213 434 c 256
 315 434 401 382 401 269 c 256
 401 217 372 175 338 134 c 258
 230 5 l 257
EndSplineSet
EndChar

StartChar: uni2081
Encoding: 8321 8321 182
GlifName: uni2081
Width: 389
VWidth: 0
Flags: HMW
LayerCount: 2
Fore
SplineSet
90 276 m 257
 90 386 l 257
 327 430 l 257
 327 1 l 257
 201 1 l 257
 201 301 l 257
 90 276 l 257
EndSplineSet
EndChar

StartChar: uni2082
Encoding: 8322 8322 183
GlifName: uni2082
Width: 450
VWidth: 0
Flags: HMW
LayerCount: 2
Fore
SplineSet
30 2 m 257
 211 185 l 258
 248 225 271 248 271 281 c 256
 271 302 258 321 227 321 c 256
 197 321 177 294 177 260 c 257
 48 260 l 257
 48 349 109 432 232 432 c 256
 343 432 407 362 407 291 c 256
 407 245 382 209 344 180 c 258
 268 122 l 257
 422 122 l 257
 422 2 l 257
 30 2 l 257
EndSplineSet
EndChar

StartChar: uni2083
Encoding: 8323 8323 184
GlifName: uni2083
Width: 408
VWidth: 0
Flags: HMW
LayerCount: 2
Fore
SplineSet
169 201 m 257
 169 254 l 257
 211 254 242 276 242 301 c 256
 242 317 230 327 204 327 c 256
 177 327 159 311 159 286 c 257
 38 286 l 257
 38 366 103 429 205 429 c 256
 313 429 372 378 372 310 c 256
 372 230 280 201 169 201 c 257
199 -12 m 256
 85 -12 20 67 20 147 c 257
 150 147 l 257
 150 104 178 90 205 90 c 256
 232 90 254 98 254 129 c 256
 254 154 235 177 169 177 c 257
 169 239 l 257
 298 239 384 203 384 117 c 256
 384 43 319 -12 199 -12 c 256
EndSplineSet
EndChar

StartChar: Agrave
Encoding: 192 192 185
GlifName: A_grave
Width: 780
VWidth: 0
Flags: HMW
LayerCount: 2
Fore
SplineSet
207 90 m 257
 207 248 l 257
 577 248 l 257
 577 90 l 257
 207 90 l 257
390 382 m 257
 304 189 l 257
 321 139 l 257
 245 0 l 257
 -5 0 l 257
 390 750 l 257
 785 0 l 257
 535 0 l 257
 461 132 l 257
 476 189 l 257
 390 382 l 257
210 960 m 257
 350 1020 l 257
 500 860 l 257
 390 810 l 257
 210 960 l 257
EndSplineSet
EndChar

StartChar: Aacute
Encoding: 193 193 186
GlifName: A_acute
Width: 780
VWidth: 0
Flags: HMW
LayerCount: 2
Fore
SplineSet
207 90 m 257
 207 248 l 257
 577 248 l 257
 577 90 l 257
 207 90 l 257
390 382 m 257
 304 189 l 257
 321 139 l 257
 245 0 l 257
 -5 0 l 257
 390 750 l 257
 785 0 l 257
 535 0 l 257
 461 132 l 257
 476 189 l 257
 390 382 l 257
565 960 m 257
 385 810 l 257
 275 860 l 257
 425 1020 l 257
 565 960 l 257
EndSplineSet
EndChar

StartChar: Acircumflex
Encoding: 194 194 187
GlifName: A_circumflex
Width: 780
VWidth: 0
Flags: HMW
LayerCount: 2
Fore
SplineSet
207 90 m 257
 207 248 l 257
 577 248 l 257
 577 90 l 257
 207 90 l 257
390 382 m 257
 304 189 l 257
 321 139 l 257
 245 0 l 257
 -5 0 l 257
 390 750 l 257
 785 0 l 257
 535 0 l 257
 461 132 l 257
 476 189 l 257
 390 382 l 257
390 890 m 257
 310 810 l 257
 170 900 l 257
 390 1040 l 257
 610 900 l 257
 470 810 l 257
 390 890 l 257
EndSplineSet
EndChar

StartChar: Atilde
Encoding: 195 195 188
GlifName: A_tilde
Width: 780
VWidth: 0
Flags: HMW
LayerCount: 2
Fore
SplineSet
207 90 m 257
 207 248 l 257
 577 248 l 257
 577 90 l 257
 207 90 l 257
390 382 m 257
 304 189 l 257
 321 139 l 257
 245 0 l 257
 -5 0 l 257
 390 750 l 257
 785 0 l 257
 535 0 l 257
 461 132 l 257
 476 189 l 257
 390 382 l 257
175 893 m 257
 185 942 229 995 304 995 c 256
 371 995 390 940 448 940 c 256
 477 940 499 964 519 996 c 257
 605 903 l 257
 589 866 524 810 454 810 c 256
 399 810 355 867 303 867 c 256
 267 867 258 831 258 816 c 257
 175 893 l 257
EndSplineSet
EndChar

StartChar: Adieresis
Encoding: 196 196 189
GlifName: A_dieresis
Width: 780
VWidth: 0
Flags: HMW
LayerCount: 2
Fore
SplineSet
207 90 m 257
 207 248 l 257
 577 248 l 257
 577 90 l 257
 207 90 l 257
390 382 m 257
 304 189 l 257
 321 139 l 257
 245 0 l 257
 -5 0 l 257
 390 750 l 257
 785 0 l 257
 535 0 l 257
 461 132 l 257
 476 189 l 257
 390 382 l 257
447 818 m 256
 447 877 495 916 555 916 c 256
 615 916 663 877 663 818 c 256
 663 759 615 720 555 720 c 256
 495 720 447 759 447 818 c 256
107 828 m 256
 107 887 155 926 215 926 c 256
 275 926 323 887 323 828 c 256
 323 769 275 730 215 730 c 256
 155 730 107 769 107 828 c 256
EndSplineSet
EndChar

StartChar: Aring
Encoding: 197 197 190
GlifName: A_ring
Width: 780
VWidth: 0
Flags: HMW
LayerCount: 2
Fore
SplineSet
207 90 m 257
 207 248 l 257
 577 248 l 257
 577 90 l 257
 207 90 l 257
390 382 m 257
 304 189 l 257
 321 139 l 257
 245 0 l 257
 -5 0 l 257
 390 750 l 257
 785 0 l 257
 535 0 l 257
 461 132 l 257
 476 189 l 257
 390 382 l 257
251 802 m 256
 251 876 309 927 389 927 c 256
 469 927 529 876 529 802 c 256
 529 728 469 677 389 677 c 256
 309 677 251 728 251 802 c 256
346 802 m 256
 346 774 364 758 389 758 c 256
 414 758 433 774 433 802 c 256
 433 830 414 847 389 847 c 256
 364 847 346 830 346 802 c 256
EndSplineSet
EndChar

StartChar: AE
Encoding: 198 198 191
GlifName: A_E_
Width: 1160
VWidth: 0
Flags: HMW
LayerCount: 2
Fore
SplineSet
302 115 m 257
 312 315 l 257
 612 315 l 257
 612 115 l 257
 302 115 l 257
440 700 m 257
 659 660 l 257
 305 0 l 257
 20 0 l 257
 440 700 l 257
687 0 m 257
 687 175 l 257
 1090 175 l 257
 1090 0 l 257
 687 0 l 257
695 525 m 257
 440 700 l 257
 1090 700 l 257
 1090 525 l 257
 695 525 l 257
687 275 m 257
 687 445 l 257
 1070 445 l 257
 1070 275 l 257
 687 275 l 257
585 700 m 257
 825 700 l 257
 825 0 l 257
 585 0 l 257
 585 700 l 257
EndSplineSet
EndChar

StartChar: Ccedilla
Encoding: 199 199 192
GlifName: C_cedilla
Width: 710
VWidth: 0
Flags: HMW
LayerCount: 2
Fore
SplineSet
272 350 m 256
 272 242 353 187 451 187 c 256
 550 187 606 231 650 273 c 257
 650 47 l 257
 595 9 537 -20 435 -20 c 256
 191 -20 30 126 30 350 c 256
 30 574 191 720 435 720 c 256
 537 720 595 691 650 653 c 257
 650 427 l 257
 606 469 550 513 451 513 c 256
 353 513 272 458 272 350 c 256
345 41.9336 m 257
 485 35.9336 l 257
 385.141 -91.5791 l 257
 400.899 -87.3271 418.295 -86.0664 438 -86.0664 c 256
 482 -86.0664 541 -122.066 541 -198.066 c 256
 541 -277.066 463 -316.066 395 -316.066 c 256
 328 -316.066 276 -307.066 218 -276.066 c 257
 271 -190.066 l 257
 300 -210.066 347 -216.066 363 -216.066 c 256
 397 -216.066 420 -208.066 420 -184.066 c 256
 420 -156.066 382 -154.066 353 -154.066 c 256
 343 -154.066 299 -155.066 256 -169.066 c 257
 345 41.9336 l 257
EndSplineSet
EndChar

StartChar: Egrave
Encoding: 200 200 193
GlifName: E_grave
Width: 635
VWidth: 0
Flags: HMW
LayerCount: 2
Fore
SplineSet
222 0 m 257
 222 175 l 257
 575 175 l 257
 575 0 l 257
 222 0 l 257
222 525 m 257
 222 700 l 257
 575 700 l 257
 575 525 l 257
 222 525 l 257
222 275 m 257
 222 445 l 257
 555 445 l 257
 555 275 l 257
 222 275 l 257
70 700 m 257
 280 700 l 257
 280 0 l 257
 70 0 l 257
 70 700 l 257
142 940 m 257
 282 1000 l 257
 432 840 l 257
 322 790 l 257
 142 940 l 257
EndSplineSet
EndChar

StartChar: Eacute
Encoding: 201 201 194
GlifName: E_acute
Width: 635
VWidth: 0
Flags: HMW
LayerCount: 2
Fore
SplineSet
222 0 m 257
 222 175 l 257
 575 175 l 257
 575 0 l 257
 222 0 l 257
222 525 m 257
 222 700 l 257
 575 700 l 257
 575 525 l 257
 222 525 l 257
222 275 m 257
 222 445 l 257
 555 445 l 257
 555 275 l 257
 222 275 l 257
70 700 m 257
 280 700 l 257
 280 0 l 257
 70 0 l 257
 70 700 l 257
498 940 m 257
 318 790 l 257
 208 840 l 257
 358 1000 l 257
 498 940 l 257
EndSplineSet
EndChar

StartChar: Ecircumflex
Encoding: 202 202 195
GlifName: E_circumflex
Width: 635
VWidth: 0
Flags: HMW
LayerCount: 2
Fore
SplineSet
222 0 m 257
 222 175 l 257
 575 175 l 257
 575 0 l 257
 222 0 l 257
222 525 m 257
 222 700 l 257
 575 700 l 257
 575 525 l 257
 222 525 l 257
222 275 m 257
 222 445 l 257
 555 445 l 257
 555 275 l 257
 222 275 l 257
70 700 m 257
 280 700 l 257
 280 0 l 257
 70 0 l 257
 70 700 l 257
322 895 m 257
 212 800 l 257
 162 840 l 257
 322 980 l 257
 482 840 l 257
 432 800 l 257
 322 895 l 257
EndSplineSet
EndChar

StartChar: Edieresis
Encoding: 203 203 196
GlifName: E_dieresis
Width: 635
VWidth: 0
Flags: HMW
LayerCount: 2
Fore
SplineSet
222 0 m 257
 222 175 l 257
 575 175 l 257
 575 0 l 257
 222 0 l 257
222 525 m 257
 222 700 l 257
 575 700 l 257
 575 525 l 257
 222 525 l 257
222 275 m 257
 222 445 l 257
 555 445 l 257
 555 275 l 257
 222 275 l 257
70 700 m 257
 280 700 l 257
 280 0 l 257
 70 0 l 257
 70 700 l 257
350 878 m 256
 350 937 398 976 458 976 c 256
 518 976 566 937 566 878 c 256
 566 819 518 780 458 780 c 256
 398 780 350 819 350 878 c 256
80 878 m 256
 80 937 128 976 188 976 c 256
 248 976 296 937 296 878 c 256
 296 819 248 780 188 780 c 256
 128 780 80 819 80 878 c 256
EndSplineSet
EndChar

StartChar: Igrave
Encoding: 204 204 197
GlifName: I_grave
Width: 365
VWidth: 0
Flags: HMW
LayerCount: 2
Fore
SplineSet
70 700 m 257
 295 700 l 257
 295 0 l 257
 70 0 l 257
 70 700 l 257
-8 940 m 257
 132 1000 l 257
 282 840 l 257
 172 790 l 257
 -8 940 l 257
EndSplineSet
EndChar

StartChar: Iacute
Encoding: 205 205 198
GlifName: I_acute
Width: 365
VWidth: 0
Flags: HMW
LayerCount: 2
Fore
SplineSet
70 700 m 257
 295 700 l 257
 295 0 l 257
 70 0 l 257
 70 700 l 257
348 940 m 257
 168 790 l 257
 58 840 l 257
 208 1000 l 257
 348 940 l 257
EndSplineSet
EndChar

StartChar: Icircumflex
Encoding: 206 206 199
GlifName: I_circumflex
Width: 365
VWidth: 0
Flags: HMW
LayerCount: 2
Fore
SplineSet
70 700 m 257
 295 700 l 257
 295 0 l 257
 70 0 l 257
 70 700 l 257
172 895 m 257
 62 800 l 257
 12 840 l 257
 172 980 l 257
 332 840 l 257
 282 800 l 257
 172 895 l 257
EndSplineSet
EndChar

StartChar: Idieresis
Encoding: 207 207 200
GlifName: I_dieresis
Width: 365
VWidth: 0
Flags: HMW
LayerCount: 2
Fore
SplineSet
70 700 m 257
 295 700 l 257
 295 0 l 257
 70 0 l 257
 70 700 l 257
210 878 m 256
 210 937 258 976 318 976 c 256
 378 976 426 937 426 878 c 256
 426 819 378 780 318 780 c 256
 258 780 210 819 210 878 c 256
-60 878 m 256
 -60 937 -12 976 48 976 c 256
 108 976 156 937 156 878 c 256
 156 819 108 780 48 780 c 256
 -12 780 -60 819 -60 878 c 256
EndSplineSet
EndChar

StartChar: Ntilde
Encoding: 209 209 201
GlifName: N_tilde
Width: 805
VWidth: 0
Flags: HMW
LayerCount: 2
Fore
SplineSet
525 700 m 257
 735 700 l 257
 735 -35 l 257
 280 316.591 l 257
 280 0 l 257
 70 0 l 257
 70 735 l 257
 525 383.409 l 257
 525 700 l 257
145 858 m 257
 155 907 199 960 274 960 c 256
 341 960 360 905 418 905 c 256
 447 905 469 929 489 961 c 257
 575 868 l 257
 559 831 494 775 424 775 c 256
 369 775 325 832 273 832 c 256
 237 832 228 796 228 781 c 257
 145 858 l 257
EndSplineSet
EndChar

StartChar: Eth
Encoding: 208 208 202
GlifName: E_th
Width: 765
VWidth: 0
Flags: HMW
LayerCount: 2
Fore
SplineSet
6 298 m 257
 6 413 l 257
 386 413 l 257
 386 298 l 257
 6 298 l 257
70 700 m 257
 299 700 l 257
 299 0 l 257
 70 0 l 257
 70 700 l 257
345 0 m 258
 222 0 l 257
 222 190 l 257
 335 190 l 258
 413 190 505 207 505 350 c 256
 505 493 413 510 335 510 c 258
 222 510 l 257
 222 700 l 257
 345 700 l 258
 589 700 735 569 735 350 c 256
 735 131 589 0 345 0 c 258
EndSplineSet
EndChar

StartChar: Ograve
Encoding: 210 210 203
GlifName: O_grave
Width: 840
VWidth: 0
Flags: HMW
LayerCount: 2
Fore
SplineSet
263 350 m 256
 263 247 322 178 420 178 c 256
 518 178 577 247 577 350 c 256
 577 453 523 522 420 522 c 256
 322 522 263 453 263 350 c 256
30 350 m 256
 30 574 201 720 420 720 c 256
 644 720 810 574 810 350 c 256
 810 126 649 -30 420 -30 c 256
 191 -30 30 126 30 350 c 256
255 940 m 257
 395 1000 l 257
 545 840 l 257
 435 790 l 257
 255 940 l 257
EndSplineSet
EndChar

StartChar: Oacute
Encoding: 211 211 204
GlifName: O_acute
Width: 840
VWidth: 0
Flags: HMW
LayerCount: 2
Fore
SplineSet
263 350 m 256
 263 247 322 178 420 178 c 256
 518 178 577 247 577 350 c 256
 577 453 523 522 420 522 c 256
 322 522 263 453 263 350 c 256
30 350 m 256
 30 574 201 720 420 720 c 256
 644 720 810 574 810 350 c 256
 810 126 649 -30 420 -30 c 256
 191 -30 30 126 30 350 c 256
610 940 m 257
 430 790 l 257
 320 840 l 257
 470 1000 l 257
 610 940 l 257
EndSplineSet
EndChar

StartChar: Ocircumflex
Encoding: 212 212 205
GlifName: O_circumflex
Width: 840
VWidth: 0
Flags: HMW
LayerCount: 2
Fore
SplineSet
263 350 m 256
 263 247 322 178 420 178 c 256
 518 178 577 247 577 350 c 256
 577 453 523 522 420 522 c 256
 322 522 263 453 263 350 c 256
30 350 m 256
 30 574 201 720 420 720 c 256
 644 720 810 574 810 350 c 256
 810 126 649 -30 420 -30 c 256
 191 -30 30 126 30 350 c 256
435 895 m 257
 325 800 l 257
 275 840 l 257
 435 980 l 257
 595 840 l 257
 545 800 l 257
 435 895 l 257
EndSplineSet
EndChar

StartChar: Otilde
Encoding: 213 213 206
GlifName: O_tilde
Width: 840
VWidth: 0
Flags: HMW
LayerCount: 2
Fore
SplineSet
263 350 m 256
 263 247 322 178 420 178 c 256
 518 178 577 247 577 350 c 256
 577 453 523 522 420 522 c 256
 322 522 263 453 263 350 c 256
30 350 m 256
 30 574 201 720 420 720 c 256
 644 720 810 574 810 350 c 256
 810 126 649 -30 420 -30 c 256
 191 -30 30 126 30 350 c 256
260 863 m 257
 270 912 319 945 364 945 c 256
 429 945 434 898 488 898 c 256
 507 898 524 914 544 946 c 257
 590 903 l 257
 574 866 534 830 484 830 c 256
 429 830 408 877 363 877 c 256
 322 877 313 841 313 826 c 257
 260 863 l 257
EndSplineSet
EndChar

StartChar: Odieresis
Encoding: 214 214 207
GlifName: O_dieresis
Width: 840
VWidth: 0
Flags: HMW
LayerCount: 2
Fore
SplineSet
263 350 m 256
 263 247 322 178 420 178 c 256
 518 178 577 247 577 350 c 256
 577 453 523 522 420 522 c 256
 322 522 263 453 263 350 c 256
30 350 m 256
 30 574 201 720 420 720 c 256
 644 720 810 574 810 350 c 256
 810 126 649 -30 420 -30 c 256
 191 -30 30 126 30 350 c 256
447 878 m 256
 447 937 495 976 555 976 c 256
 615 976 663 937 663 878 c 256
 663 819 615 780 555 780 c 256
 495 780 447 819 447 878 c 256
177 878 m 256
 177 937 225 976 285 976 c 256
 345 976 393 937 393 878 c 256
 393 819 345 780 285 780 c 256
 225 780 177 819 177 878 c 256
EndSplineSet
EndChar

StartChar: Ugrave
Encoding: 217 217 208
GlifName: U_grave
Width: 746
VWidth: 0
Flags: HMW
LayerCount: 2
Fore
SplineSet
65 700 m 257
 285 700 l 257
 285 250 l 258
 285 194 313 155 373 155 c 256
 433 155 461 194 461 250 c 258
 461 700 l 257
 681 700 l 257
 681 230 l 258
 681 31 538 -40 373 -40 c 256
 208 -40 65 31 65 230 c 258
 65 700 l 257
193 930 m 257
 333 990 l 257
 483 830 l 257
 373 780 l 257
 193 930 l 257
EndSplineSet
EndChar

StartChar: Uacute
Encoding: 218 218 209
GlifName: U_acute
Width: 746
VWidth: 0
Flags: HMW
LayerCount: 2
Fore
SplineSet
65 700 m 257
 285 700 l 257
 285 250 l 258
 285 194 313 155 373 155 c 256
 433 155 461 194 461 250 c 258
 461 700 l 257
 681 700 l 257
 681 230 l 258
 681 31 538 -40 373 -40 c 256
 208 -40 65 31 65 230 c 258
 65 700 l 257
553 930 m 257
 373 780 l 257
 263 830 l 257
 413 990 l 257
 553 930 l 257
EndSplineSet
EndChar

StartChar: Ucircumflex
Encoding: 219 219 210
GlifName: U_circumflex
Width: 746
VWidth: 0
Flags: HMW
LayerCount: 2
Fore
SplineSet
65 700 m 257
 285 700 l 257
 285 250 l 258
 285 194 313 155 373 155 c 256
 433 155 461 194 461 250 c 258
 461 700 l 257
 681 700 l 257
 681 230 l 258
 681 31 538 -40 373 -40 c 256
 208 -40 65 31 65 230 c 258
 65 700 l 257
373 860 m 257
 293 780 l 257
 153 870 l 257
 373 1010 l 257
 593 870 l 257
 453 780 l 257
 373 860 l 257
EndSplineSet
EndChar

StartChar: Udieresis
Encoding: 220 220 211
GlifName: U_dieresis
Width: 746
VWidth: 0
Flags: HMW
LayerCount: 2
Fore
SplineSet
65 700 m 257
 285 700 l 257
 285 250 l 258
 285 194 313 155 373 155 c 256
 433 155 461 194 461 250 c 258
 461 700 l 257
 681 700 l 257
 681 230 l 258
 681 31 538 -40 373 -40 c 256
 208 -40 65 31 65 230 c 258
 65 700 l 257
430 878 m 256
 430 937 478 976 538 976 c 256
 598 976 646 937 646 878 c 256
 646 819 598 780 538 780 c 256
 478 780 430 819 430 878 c 256
100 878 m 256
 100 937 148 976 208 976 c 256
 268 976 316 937 316 878 c 256
 316 819 268 780 208 780 c 256
 148 780 100 819 100 878 c 256
EndSplineSet
EndChar

StartChar: Yacute
Encoding: 221 221 212
GlifName: Y_acute
Width: 720
VWidth: 0
Flags: HMW
LayerCount: 2
Fore
SplineSet
540 930 m 257
 360 780 l 257
 250 830 l 257
 400 990 l 257
 540 930 l 257
470 700 m 257
 725 700 l 257
 473 274.707 l 257
 473 0 l 257
 248 0 l 257
 248 273.019 l 257
 -5 700 l 257
 250 700 l 257
 360 474 l 257
 470 700 l 257
EndSplineSet
EndChar

StartChar: agrave
Encoding: 224 224 213
GlifName: agrave
Width: 580
VWidth: 0
Flags: HMW
LayerCount: 2
Fore
SplineSet
216 139 m 256
 216 115 238 106 263 106 c 256
 303 106 345 124 345 190 c 257
 361 130 l 257
 361 41 288 -10 193 -10 c 256
 88 -10 20 41 20 130 c 256
 20 217 100 275 221 275 c 256
 279 275 354 257 378 233 c 257
 378 147 l 257
 350 169 323 180 275 180 c 256
 241 180 216 163 216 139 c 256
121 298 m 257
 62 424 l 257
 126 449 210 475 293 475 c 256
 428 475 530 419 530 320 c 258
 530 0 l 257
 345 0 l 257
 345 272 l 258
 345 307 323 333 273 333 c 256
 207 333 143 309 121 298 c 257
113 685 m 257
 253 745 l 257
 403 585 l 257
 293 535 l 257
 113 685 l 257
EndSplineSet
Substitution2: "alt a" agrave.alt
EndChar

StartChar: aacute
Encoding: 225 225 214
GlifName: aacute
Width: 580
VWidth: 0
Flags: HMW
LayerCount: 2
Fore
SplineSet
216 139 m 256
 216 115 238 106 263 106 c 256
 303 106 345 124 345 190 c 257
 361 130 l 257
 361 41 288 -10 193 -10 c 256
 88 -10 20 41 20 130 c 256
 20 217 100 275 221 275 c 256
 279 275 354 257 378 233 c 257
 378 147 l 257
 350 169 323 180 275 180 c 256
 241 180 216 163 216 139 c 256
121 298 m 257
 62 424 l 257
 126 449 210 475 293 475 c 256
 428 475 530 419 530 320 c 258
 530 0 l 257
 345 0 l 257
 345 272 l 258
 345 307 323 333 273 333 c 256
 207 333 143 309 121 298 c 257
473 685 m 257
 293 535 l 257
 183 585 l 257
 333 745 l 257
 473 685 l 257
EndSplineSet
Substitution2: "alt a" aacute.alt
EndChar

StartChar: acircumflex
Encoding: 226 226 215
GlifName: acircumflex
Width: 580
VWidth: 0
Flags: HMW
LayerCount: 2
Fore
SplineSet
216 139 m 256
 216 115 238 106 263 106 c 256
 303 106 345 124 345 190 c 257
 361 130 l 257
 361 41 288 -10 193 -10 c 256
 88 -10 20 41 20 130 c 256
 20 217 100 275 221 275 c 256
 279 275 354 257 378 233 c 257
 378 147 l 257
 350 169 323 180 275 180 c 256
 241 180 216 163 216 139 c 256
121 298 m 257
 62 424 l 257
 126 449 210 475 293 475 c 256
 428 475 530 419 530 320 c 258
 530 0 l 257
 345 0 l 257
 345 272 l 258
 345 307 323 333 273 333 c 256
 207 333 143 309 121 298 c 257
293 615 m 257
 213 535 l 257
 73 625 l 257
 293 765 l 257
 513 625 l 257
 373 535 l 257
 293 615 l 257
EndSplineSet
Substitution2: "alt a" acircumflex.alt
EndChar

StartChar: atilde
Encoding: 227 227 216
GlifName: atilde
Width: 580
VWidth: 0
Flags: HMW
LayerCount: 2
Fore
SplineSet
216 139 m 256
 216 115 238 106 263 106 c 256
 303 106 345 124 345 190 c 257
 361 130 l 257
 361 41 288 -10 193 -10 c 256
 88 -10 20 41 20 130 c 256
 20 217 100 275 221 275 c 256
 279 275 354 257 378 233 c 257
 378 147 l 257
 350 169 323 180 275 180 c 256
 241 180 216 163 216 139 c 256
121 298 m 257
 62 424 l 257
 126 449 210 475 293 475 c 256
 428 475 530 419 530 320 c 258
 530 0 l 257
 345 0 l 257
 345 272 l 258
 345 307 323 333 273 333 c 256
 207 333 143 309 121 298 c 257
78 618 m 257
 88 667 132 720 207 720 c 256
 274 720 293 665 351 665 c 256
 380 665 402 689 422 721 c 257
 508 628 l 257
 492 591 427 535 357 535 c 256
 302 535 258 592 206 592 c 256
 170 592 161 556 161 541 c 257
 78 618 l 257
EndSplineSet
Substitution2: "alt a" atilde.alt
EndChar

StartChar: adieresis
Encoding: 228 228 217
GlifName: adieresis
Width: 580
VWidth: 0
Flags: HMW
LayerCount: 2
Fore
SplineSet
216 139 m 256
 216 115 238 106 263 106 c 256
 303 106 345 124 345 190 c 257
 361 130 l 257
 361 41 288 -10 193 -10 c 256
 88 -10 20 41 20 130 c 256
 20 217 100 275 221 275 c 256
 279 275 354 257 378 233 c 257
 378 147 l 257
 350 169 323 180 275 180 c 256
 241 180 216 163 216 139 c 256
121 298 m 257
 62 424 l 257
 126 449 210 475 293 475 c 256
 428 475 530 419 530 320 c 258
 530 0 l 257
 345 0 l 257
 345 272 l 258
 345 307 323 333 273 333 c 256
 207 333 143 309 121 298 c 257
320 633 m 256
 320 692 368 731 428 731 c 256
 488 731 536 692 536 633 c 256
 536 574 488 535 428 535 c 256
 368 535 320 574 320 633 c 256
50 633 m 256
 50 692 98 731 158 731 c 256
 218 731 266 692 266 633 c 256
 266 574 218 535 158 535 c 256
 98 535 50 574 50 633 c 256
EndSplineSet
Substitution2: "alt a" adieresis.alt
EndChar

StartChar: aring
Encoding: 229 229 218
GlifName: aring
Width: 580
VWidth: 0
Flags: HMW
LayerCount: 2
Fore
SplineSet
216 139 m 256
 216 115 238 106 263 106 c 256
 303 106 345 124 345 190 c 257
 361 130 l 257
 361 41 288 -10 193 -10 c 256
 88 -10 20 41 20 130 c 256
 20 217 100 275 221 275 c 256
 279 275 354 257 378 233 c 257
 378 147 l 257
 350 169 323 180 275 180 c 256
 241 180 216 163 216 139 c 256
121 298 m 257
 62 424 l 257
 126 449 210 475 293 475 c 256
 428 475 530 419 530 320 c 258
 530 0 l 257
 345 0 l 257
 345 272 l 258
 345 307 323 333 273 333 c 256
 207 333 143 309 121 298 c 257
154 660 m 256
 154 734 212 785 292 785 c 256
 372 785 432 734 432 660 c 256
 432 586 372 535 292 535 c 256
 212 535 154 586 154 660 c 256
249 660 m 256
 249 632 267 616 292 616 c 256
 317 616 336 632 336 660 c 256
 336 688 317 705 292 705 c 256
 267 705 249 688 249 660 c 256
EndSplineSet
Substitution2: "alt a" aring.alt
EndChar

StartChar: germandbls
Encoding: 223 223 219
GlifName: germandbls
Width: 605
VWidth: 0
Flags: HMW
LayerCount: 2
Fore
SplineSet
287 165 m 257
 367 165 399 209 399 265 c 256
 399 311 387 345 277 345 c 257
 277 480 l 257
 452 480 595 384 595 225 c 256
 595 66 482 -10 287 -10 c 257
 287 165 l 257
277 405 m 257
 277 520 l 257
 347 520 359 540 359 576 c 256
 359 612 332 625 292 625 c 256
 242 625 225 602 225 576 c 258
 225 0 l 257
 40 0 l 257
 40 606 l 258
 40 735 157 800 292 800 c 256
 457 800 545 715 545 606 c 256
 545 487 452 405 277 405 c 257
EndSplineSet
EndChar

StartChar: ae
Encoding: 230 230 220
GlifName: ae
Width: 939
VWidth: 0
Flags: HMW
LayerCount: 2
Fore
SplineSet
216 139 m 256
 216 115 238 106 263 106 c 256
 303 106 345 124 345 190 c 257
 431 130 l 257
 431 41 368 -10 223 -10 c 256
 98 -10 20 41 20 130 c 256
 20 217 100 275 221 275 c 256
 279 275 354 257 378 233 c 257
 378 147 l 257
 350 169 323 180 275 180 c 256
 241 180 216 163 216 139 c 256
121 298 m 257
 62 424 l 257
 126 449 210 475 293 475 c 256
 428 475 460 419 460 320 c 258
 460 130 l 257
 345 130 l 257
 345 272 l 258
 345 307 323 333 273 333 c 256
 207 333 143 309 121 298 c 257
426 190 m 257
 426 284 l 257
 889 284 l 257
 903 190 l 257
 426 190 l 257
700 240 m 258
 700 316 683 350 633 350 c 256
 583 350 558 316 558 250 c 257
 556 230 l 257
 556 144 598 120 638 120 c 256
 685 120 718 135 734 165 c 257
 912 137 l 257
 866 47 787 -10 648 -10 c 256
 453 -10 410 91 410 230 c 256
 410 247 411 263 414 279 c 256
 433 392 519 470 668 470 c 256
 818 470 905 384 905 239 c 256
 905 231 905 211 903 190 c 257
 700 210 l 257
 700 240 l 258
EndSplineSet
EndChar

StartChar: ccedilla
Encoding: 231 231 221
GlifName: ccedilla
Width: 503
VWidth: 0
Flags: HMW
LayerCount: 2
Fore
SplineSet
231 230 m 256
 231 169 278 138 333 138 c 256
 377 138 422 154 453 197 c 257
 453 21 l 257
 421 3 386 -10 313 -10 c 256
 148 -10 30 81 30 230 c 256
 30 379 148 470 313 470 c 256
 386 470 421 455 453 441 c 257
 453 264 l 257
 422 307 367 322 333 322 c 256
 278 322 231 281 231 230 c 256
225 61.9336 m 257
 365 55.9336 l 257
 265.141 -71.5791 l 257
 280.899 -67.3271 298.295 -66.0664 318 -66.0664 c 256
 362 -66.0664 421 -102.066 421 -178.066 c 256
 421 -257.066 343 -296.066 275 -296.066 c 256
 208 -296.066 156 -287.066 98 -256.066 c 257
 151 -170.066 l 257
 180 -190.066 227 -196.066 243 -196.066 c 256
 277 -196.066 300 -188.066 300 -164.066 c 256
 300 -136.066 262 -134.066 233 -134.066 c 256
 223 -134.066 179 -135.066 136 -149.066 c 257
 225 61.9336 l 257
EndSplineSet
EndChar

StartChar: egrave
Encoding: 232 232 222
GlifName: egrave
Width: 609
VWidth: 0
Flags: HMW
LayerCount: 2
Fore
SplineSet
136 190 m 257
 136 284 l 257
 367.382 284 l 257
 360.964 329.27 342.042 350 303 350 c 256
 253 350 228 316 228 250 c 257
 226 230 l 257
 226 144 268 120 308 120 c 256
 355 120 388 135 404 165 c 257
 582 137 l 257
 536 47 457 -10 318 -10 c 256
 123 -10 30 91 30 230 c 256
 30 247 31 263 34 279 c 256
 53 392 139 470 308 470 c 256
 488 470 575 384 575 239 c 256
 575 231 575 211 573 190 c 257
 136 190 l 257
128 681 m 257
 268 741 l 257
 418 581 l 257
 308 531 l 257
 128 681 l 257
EndSplineSet
EndChar

StartChar: eacute
Encoding: 233 233 223
GlifName: eacute
Width: 609
VWidth: 0
Flags: HMW
LayerCount: 2
Fore
SplineSet
136 190 m 257
 136 284 l 257
 367.382 284 l 257
 360.964 329.27 342.042 350 303 350 c 256
 253 350 228 316 228 250 c 257
 226 230 l 257
 226 144 268 120 308 120 c 256
 355 120 388 135 404 165 c 257
 582 137 l 257
 536 47 457 -10 318 -10 c 256
 123 -10 30 91 30 230 c 256
 30 247 31 263 34 279 c 256
 53 392 139 470 308 470 c 256
 488 470 575 384 575 239 c 256
 575 231 575 211 573 190 c 257
 136 190 l 257
488 681 m 257
 308 531 l 257
 198 581 l 257
 348 741 l 257
 488 681 l 257
EndSplineSet
EndChar

StartChar: ecircumflex
Encoding: 234 234 224
GlifName: ecircumflex
Width: 609
VWidth: 0
Flags: HMW
LayerCount: 2
Fore
SplineSet
136 190 m 257
 136 284 l 257
 367.382 284 l 257
 360.964 329.27 342.042 350 303 350 c 256
 253 350 228 316 228 250 c 257
 226 230 l 257
 226 144 268 120 308 120 c 256
 355 120 388 135 404 165 c 257
 582 137 l 257
 536 47 457 -10 318 -10 c 256
 123 -10 30 91 30 230 c 256
 30 247 31 263 34 279 c 256
 53 392 139 470 308 470 c 256
 488 470 575 384 575 239 c 256
 575 231 575 211 573 190 c 257
 136 190 l 257
308 611 m 257
 228 531 l 257
 88 621 l 257
 308 761 l 257
 528 621 l 257
 388 531 l 257
 308 611 l 257
EndSplineSet
EndChar

StartChar: edieresis
Encoding: 235 235 225
GlifName: edieresis
Width: 609
VWidth: 0
Flags: HMW
LayerCount: 2
Fore
SplineSet
136 190 m 257
 136 284 l 257
 367.382 284 l 257
 360.964 329.27 342.042 350 303 350 c 256
 253 350 228 316 228 250 c 257
 226 230 l 257
 226 144 268 120 308 120 c 256
 355 120 388 135 404 165 c 257
 582 137 l 257
 536 47 457 -10 318 -10 c 256
 123 -10 30 91 30 230 c 256
 30 247 31 263 34 279 c 256
 53 392 139 470 308 470 c 256
 488 470 575 384 575 239 c 256
 575 231 575 211 573 190 c 257
 136 190 l 257
335 629 m 256
 335 688 383 727 443 727 c 256
 503 727 551 688 551 629 c 256
 551 570 503 531 443 531 c 256
 383 531 335 570 335 629 c 256
65 629 m 256
 65 688 113 727 173 727 c 256
 233 727 281 688 281 629 c 256
 281 570 233 531 173 531 c 256
 113 531 65 570 65 629 c 256
EndSplineSet
EndChar

StartChar: igrave
Encoding: 236 236 226
GlifName: igrave
Width: 286
VWidth: 0
Flags: HMW
LayerCount: 2
Fore
SplineSet
49 460 m 257
 236 460 l 257
 236 0 l 257
 49 0 l 257
 49 460 l 257
-50 681 m 257
 90 741 l 257
 240 581 l 257
 130 531 l 257
 -50 681 l 257
EndSplineSet
EndChar

StartChar: dotlessi
Encoding: 305 305 227
GlifName: dotlessi
Width: 286
VWidth: 0
Flags: HMW
LayerCount: 2
Fore
SplineSet
49 460 m 257
 236 460 l 257
 236 0 l 257
 49 0 l 257
 49 460 l 257
EndSplineSet
EndChar

StartChar: kgreenlandic
Encoding: 312 312 228
GlifName: kgreenlandic
Width: 660
VWidth: 0
Flags: HMW
LayerCount: 2
Fore
SplineSet
50 460 m 257
 235 460 l 257
 235 0 l 257
 50 0 l 257
 50 460 l 257
401 460 m 257
 630 460 l 257
 435 270 l 257
 650 0 l 257
 425 0 l 257
 206 270 l 257
 401 460 l 257
EndSplineSet
EndChar

StartChar: iacute
Encoding: 237 237 229
GlifName: iacute
Width: 286
VWidth: 0
Flags: HMW
LayerCount: 2
Fore
SplineSet
49 460 m 257
 236 460 l 257
 236 0 l 257
 49 0 l 257
 49 460 l 257
322 681 m 257
 142 531 l 257
 32 581 l 257
 182 741 l 257
 322 681 l 257
EndSplineSet
EndChar

StartChar: icircumflex
Encoding: 238 238 230
GlifName: icircumflex
Width: 286
VWidth: 0
Flags: HMW
LayerCount: 2
Fore
SplineSet
49 460 m 257
 236 460 l 257
 236 0 l 257
 49 0 l 257
 49 460 l 257
142 611 m 257
 62 531 l 257
 -78 621 l 257
 142 761 l 257
 362 621 l 257
 222 531 l 257
 142 611 l 257
EndSplineSet
EndChar

StartChar: idieresis
Encoding: 239 239 231
GlifName: idieresis
Width: 286
VWidth: 0
Flags: HMW
LayerCount: 2
Fore
SplineSet
49 460 m 257
 236 460 l 257
 236 0 l 257
 49 0 l 257
 49 460 l 257
170 629 m 256
 170 688 218 727 278 727 c 256
 338 727 386 688 386 629 c 256
 386 570 338 531 278 531 c 256
 218 531 170 570 170 629 c 256
-100 629 m 256
 -100 688 -52 727 8 727 c 256
 68 727 116 688 116 629 c 256
 116 570 68 531 8 531 c 256
 -52 531 -100 570 -100 629 c 256
EndSplineSet
EndChar

StartChar: ntilde
Encoding: 241 241 232
GlifName: ntilde
Width: 605
VWidth: 0
Flags: HMW
LayerCount: 2
Fore
SplineSet
245 460 m 257
 245 0 l 257
 50 0 l 257
 50 460 l 257
 245 460 l 257
350 280 m 258
 350 321 342 346 302 346 c 256
 267 346 245 326 245 280 c 257
 219 270 l 257
 219 379 262 471 387 471 c 256
 512 471 555 409 555 300 c 258
 555 0 l 257
 350 0 l 257
 350 280 l 258
88 614 m 257
 98 663 141 716 216 716 c 256
 283 716 302 661 360 661 c 256
 389 661 412 685 432 717 c 257
 518 624 l 257
 502 587 436 531 366 531 c 256
 311 531 268 588 216 588 c 256
 180 588 170 552 170 537 c 257
 88 614 l 257
EndSplineSet
EndChar

StartChar: ograve
Encoding: 242 242 233
GlifName: ograve
Width: 616
VWidth: 0
Flags: HMW
LayerCount: 2
Fore
SplineSet
30 230 m 256
 30 379 148 471 308 471 c 256
 468 471 586 379 586 230 c 256
 586 81 468 -10 308 -10 c 256
 148 -10 30 81 30 230 c 256
231 230 m 256
 231 174 268 145 308 145 c 256
 348 145 385 174 385 230 c 256
 385 286 348 316 308 316 c 256
 268 316 231 286 231 230 c 256
148 681 m 257
 288 741 l 257
 438 581 l 257
 328 531 l 257
 148 681 l 257
EndSplineSet
EndChar

StartChar: oacute
Encoding: 243 243 234
GlifName: oacute
Width: 616
VWidth: 0
Flags: HMW
LayerCount: 2
Fore
SplineSet
30 230 m 256
 30 379 148 471 308 471 c 256
 468 471 586 379 586 230 c 256
 586 81 468 -10 308 -10 c 256
 148 -10 30 81 30 230 c 256
231 230 m 256
 231 174 268 145 308 145 c 256
 348 145 385 174 385 230 c 256
 385 286 348 316 308 316 c 256
 268 316 231 286 231 230 c 256
468 681 m 257
 288 531 l 257
 178 581 l 257
 328 741 l 257
 468 681 l 257
EndSplineSet
EndChar

StartChar: ocircumflex
Encoding: 244 244 235
GlifName: ocircumflex
Width: 616
VWidth: 0
Flags: HMW
LayerCount: 2
Fore
SplineSet
30 230 m 256
 30 379 148 471 308 471 c 256
 468 471 586 379 586 230 c 256
 586 81 468 -10 308 -10 c 256
 148 -10 30 81 30 230 c 256
231 230 m 256
 231 174 268 145 308 145 c 256
 348 145 385 174 385 230 c 256
 385 286 348 316 308 316 c 256
 268 316 231 286 231 230 c 256
308 611 m 257
 228 531 l 257
 88 621 l 257
 308 761 l 257
 528 621 l 257
 388 531 l 257
 308 611 l 257
EndSplineSet
EndChar

StartChar: otilde
Encoding: 245 245 236
GlifName: otilde
Width: 616
VWidth: 0
Flags: HMW
LayerCount: 2
Fore
SplineSet
30 230 m 256
 30 379 148 471 308 471 c 256
 468 471 586 379 586 230 c 256
 586 81 468 -10 308 -10 c 256
 148 -10 30 81 30 230 c 256
231 230 m 256
 231 174 268 145 308 145 c 256
 348 145 385 174 385 230 c 256
 385 286 348 316 308 316 c 256
 268 316 231 286 231 230 c 256
93 614 m 257
 103 663 147 716 222 716 c 256
 289 716 308 661 366 661 c 256
 395 661 417 685 437 717 c 257
 523 624 l 257
 507 587 442 531 372 531 c 256
 317 531 273 588 221 588 c 256
 185 588 176 552 176 537 c 257
 93 614 l 257
EndSplineSet
EndChar

StartChar: odieresis
Encoding: 246 246 237
GlifName: odieresis
Width: 616
VWidth: 0
Flags: HMW
LayerCount: 2
Fore
SplineSet
30 230 m 256
 30 379 148 471 308 471 c 256
 468 471 586 379 586 230 c 256
 586 81 468 -10 308 -10 c 256
 148 -10 30 81 30 230 c 256
231 230 m 256
 231 174 268 145 308 145 c 256
 348 145 385 174 385 230 c 256
 385 286 348 316 308 316 c 256
 268 316 231 286 231 230 c 256
335 629 m 256
 335 688 383 727 443 727 c 256
 503 727 551 688 551 629 c 256
 551 570 503 531 443 531 c 256
 383 531 335 570 335 629 c 256
65 629 m 256
 65 688 113 727 173 727 c 256
 233 727 281 688 281 629 c 256
 281 570 233 531 173 531 c 256
 113 531 65 570 65 629 c 256
EndSplineSet
EndChar

StartChar: ugrave
Encoding: 249 249 238
GlifName: ugrave
Width: 605
VWidth: 0
Flags: HMW
LayerCount: 2
Fore
SplineSet
360 0 m 257
 360 460 l 257
 555 460 l 257
 555 0 l 257
 360 0 l 257
255 180 m 258
 255 139 263 114 303 114 c 256
 338 114 360 134 360 180 c 257
 386 190 l 257
 386 81 343 -11 218 -11 c 256
 93 -11 50 51 50 160 c 258
 50 460 l 257
 255 460 l 257
 255 180 l 258
142 681 m 257
 282 741 l 257
 432 581 l 257
 322 531 l 257
 142 681 l 257
EndSplineSet
EndChar

StartChar: uacute
Encoding: 250 250 239
GlifName: uacute
Width: 605
VWidth: 0
Flags: HMW
LayerCount: 2
Fore
SplineSet
360 0 m 257
 360 460 l 257
 555 460 l 257
 555 0 l 257
 360 0 l 257
255 180 m 258
 255 139 263 114 303 114 c 256
 338 114 360 134 360 180 c 257
 386 190 l 257
 386 81 343 -11 218 -11 c 256
 93 -11 50 51 50 160 c 258
 50 460 l 257
 255 460 l 257
 255 180 l 258
462 681 m 257
 282 531 l 257
 172 581 l 257
 322 741 l 257
 462 681 l 257
EndSplineSet
EndChar

StartChar: ucircumflex
Encoding: 251 251 240
GlifName: ucircumflex
Width: 605
VWidth: 0
Flags: HMW
LayerCount: 2
Fore
SplineSet
360 0 m 257
 360 460 l 257
 555 460 l 257
 555 0 l 257
 360 0 l 257
255 180 m 258
 255 139 263 114 303 114 c 256
 338 114 360 134 360 180 c 257
 386 190 l 257
 386 81 343 -11 218 -11 c 256
 93 -11 50 51 50 160 c 258
 50 460 l 257
 255 460 l 257
 255 180 l 258
302 611 m 257
 222 531 l 257
 82 621 l 257
 302 761 l 257
 522 621 l 257
 382 531 l 257
 302 611 l 257
EndSplineSet
EndChar

StartChar: udieresis
Encoding: 252 252 241
GlifName: udieresis
Width: 605
VWidth: 0
Flags: HMW
LayerCount: 2
Fore
SplineSet
360 0 m 257
 360 460 l 257
 555 460 l 257
 555 0 l 257
 360 0 l 257
255 180 m 258
 255 139 263 114 303 114 c 256
 338 114 360 134 360 180 c 257
 386 190 l 257
 386 81 343 -11 218 -11 c 256
 93 -11 50 51 50 160 c 258
 50 460 l 257
 255 460 l 257
 255 180 l 258
330 629 m 256
 330 688 378 727 438 727 c 256
 498 727 546 688 546 629 c 256
 546 570 498 531 438 531 c 256
 378 531 330 570 330 629 c 256
60 629 m 256
 60 688 108 727 168 727 c 256
 228 727 276 688 276 629 c 256
 276 570 228 531 168 531 c 256
 108 531 60 570 60 629 c 256
EndSplineSet
EndChar

StartChar: yacute
Encoding: 253 253 242
GlifName: yacute
Width: 570
VWidth: 0
Flags: HMW
LayerCount: 2
Fore
SplineSet
585 460 m 257
 285 -220 l 257
 95 -220 l 257
 198 20 l 257
 -15 460 l 257
 195 460 l 257
 345 85 l 257
 240 85 l 257
 390 460 l 257
 585 460 l 257
465 681 m 257
 285 531 l 257
 175 581 l 257
 325 741 l 257
 465 681 l 257
EndSplineSet
EndChar

StartChar: thorn
Encoding: 254 254 243
GlifName: thorn
Width: 645
VWidth: 0
Flags: HMW
LayerCount: 2
Fore
SplineSet
245 -220 m 257
 50 -220 l 257
 50 780 l 257
 245 780 l 257
 245 -220 l 257
615 230 m 256
 615 71 507 -10 402 -10 c 256
 287 -10 199 81 199 230 c 256
 199 379 287 470 402 470 c 256
 507 470 615 389 615 230 c 256
409 230 m 256
 409 281 372 320 327 320 c 256
 287 320 245 286 245 230 c 256
 245 174 287 140 327 140 c 256
 372 140 409 179 409 230 c 256
EndSplineSet
EndChar

StartChar: ydieresis
Encoding: 255 255 244
GlifName: ydieresis
Width: 570
VWidth: 0
Flags: HMW
LayerCount: 2
Fore
SplineSet
585 460 m 257
 285 -220 l 257
 95 -220 l 257
 198 20 l 257
 -15 460 l 257
 195 460 l 257
 345 85 l 257
 240 85 l 257
 390 460 l 257
 585 460 l 257
312 629 m 256
 312 688 360 727 420 727 c 256
 480 727 528 688 528 629 c 256
 528 570 480 531 420 531 c 256
 360 531 312 570 312 629 c 256
42 629 m 256
 42 688 90 727 150 727 c 256
 210 727 258 688 258 629 c 256
 258 570 210 531 150 531 c 256
 90 531 42 570 42 629 c 256
EndSplineSet
EndChar

StartChar: Amacron
Encoding: 256 256 245
GlifName: A_macron
Width: 780
VWidth: 0
Flags: HMW
LayerCount: 2
Fore
SplineSet
207 90 m 257
 207 248 l 257
 577 248 l 257
 577 90 l 257
 207 90 l 257
390 382 m 257
 304 189 l 257
 321 139 l 257
 245 0 l 257
 -5 0 l 257
 390 750 l 257
 785 0 l 257
 535 0 l 257
 461 132 l 257
 476 189 l 257
 390 382 l 257
198 810 m 257
 198 975 l 257
 582 975 l 257
 582 810 l 257
 198 810 l 257
EndSplineSet
EndChar

StartChar: amacron
Encoding: 257 257 246
GlifName: amacron
Width: 580
VWidth: 0
Flags: HMW
LayerCount: 2
Fore
SplineSet
216 139 m 256
 216 115 238 106 263 106 c 256
 303 106 345 124 345 190 c 257
 361 130 l 257
 361 41 288 -10 193 -10 c 256
 88 -10 20 41 20 130 c 256
 20 217 100 275 221 275 c 256
 279 275 354 257 378 233 c 257
 378 147 l 257
 350 169 323 180 275 180 c 256
 241 180 216 163 216 139 c 256
121 298 m 257
 62 424 l 257
 126 449 210 475 293 475 c 256
 428 475 530 419 530 320 c 258
 530 0 l 257
 345 0 l 257
 345 272 l 258
 345 307 323 333 273 333 c 256
 207 333 143 309 121 298 c 257
100 535 m 257
 100 700 l 257
 486 700 l 257
 486 535 l 257
 100 535 l 257
EndSplineSet
Substitution2: "alt a" amacron.alt
EndChar

StartChar: breve
Encoding: 728 728 247
GlifName: breve
Width: 546
VWidth: 0
Flags: HMW
LayerCount: 2
Fore
SplineSet
105 850 m 257
 221 850 l 257
 221 809 253 800 273 800 c 256
 293 800 325 809 325 850 c 257
 441 850 l 257
 441 761 378 700 273 700 c 256
 168 700 105 761 105 850 c 257
EndSplineSet
EndChar

StartChar: Abreve
Encoding: 258 258 248
GlifName: A_breve
Width: 780
VWidth: 0
Flags: HMW
LayerCount: 2
Fore
SplineSet
207 90 m 257
 207 248 l 257
 577 248 l 257
 577 90 l 257
 207 90 l 257
390 382 m 257
 304 189 l 257
 321 139 l 257
 245 0 l 257
 -5 0 l 257
 390 750 l 257
 785 0 l 257
 535 0 l 257
 461 132 l 257
 476 189 l 257
 390 382 l 257
222 960 m 257
 338 960 l 257
 338 919 370 910 390 910 c 256
 410 910 442 919 442 960 c 257
 558 960 l 257
 558 871 495 810 390 810 c 256
 285 810 222 871 222 960 c 257
EndSplineSet
EndChar

StartChar: abreve
Encoding: 259 259 249
GlifName: abreve
Width: 580
VWidth: 0
Flags: HMW
LayerCount: 2
Fore
SplineSet
216 139 m 256
 216 115 238 106 263 106 c 256
 303 106 345 124 345 190 c 257
 361 130 l 257
 361 41 288 -10 193 -10 c 256
 88 -10 20 41 20 130 c 256
 20 217 100 275 221 275 c 256
 279 275 354 257 378 233 c 257
 378 147 l 257
 350 169 323 180 275 180 c 256
 241 180 216 163 216 139 c 256
121 298 m 257
 62 424 l 257
 126 449 210 475 293 475 c 256
 428 475 530 419 530 320 c 258
 530 0 l 257
 345 0 l 257
 345 272 l 258
 345 307 323 333 273 333 c 256
 207 333 143 309 121 298 c 257
125 685 m 257
 241 685 l 257
 241 644 273 635 293 635 c 256
 313 635 345 644 345 685 c 257
 461 685 l 257
 461 596 398 535 293 535 c 256
 188 535 125 596 125 685 c 257
EndSplineSet
Substitution2: "alt a" abreve.alt
EndChar

StartChar: Aogonek
Encoding: 260 260 250
GlifName: A_ogonek
Width: 780
VWidth: 0
Flags: HMW
LayerCount: 2
Fore
SplineSet
207 90 m 257
 207 248 l 257
 577 248 l 257
 577 90 l 257
 207 90 l 257
390 382 m 257
 304 189 l 257
 321 139 l 257
 245 0 l 257
 -5 0 l 257
 390 750 l 257
 785 0 l 257
 535 0 l 257
 461 132 l 257
 476 189 l 257
 390 382 l 257
710 -100 m 257
 743 -180 l 257
 728 -200 698 -220 635 -220 c 256
 581 -220 522 -189 522 -120 c 256
 522 -51 594 -11 664 25 c 257
 705 0 l 257
 653 -32 632 -63 632 -90 c 256
 632 -108 640 -120 660 -120 c 256
 676 -120 696 -113 710 -100 c 257
EndSplineSet
EndChar

StartChar: aogonek
Encoding: 261 261 251
GlifName: aogonek
Width: 580
VWidth: 0
Flags: HMW
LayerCount: 2
Fore
SplineSet
216 139 m 256
 216 115 238 106 263 106 c 256
 303 106 345 124 345 190 c 257
 361 130 l 257
 361 41 288 -10 193 -10 c 256
 88 -10 20 41 20 130 c 256
 20 217 100 275 221 275 c 256
 279 275 354 257 378 233 c 257
 378 147 l 257
 350 169 323 180 275 180 c 256
 241 180 216 163 216 139 c 256
121 298 m 257
 62 424 l 257
 126 449 210 475 293 475 c 256
 428 475 530 419 530 320 c 258
 530 0 l 257
 345 0 l 257
 345 272 l 258
 345 307 323 333 273 333 c 256
 207 333 143 309 121 298 c 257
485 -100 m 257
 518 -180 l 257
 503 -200 473 -220 410 -220 c 256
 356 -220 297 -189 297 -120 c 256
 297 -51 369 -11 439 25 c 257
 480 0 l 257
 428 -32 407 -63 407 -90 c 256
 407 -108 415 -120 435 -120 c 256
 451 -120 471 -113 485 -100 c 257
EndSplineSet
Substitution2: "alt a" aogonek.alt
EndChar

StartChar: Cacute
Encoding: 262 262 252
GlifName: C_acute
Width: 710
VWidth: 0
Flags: HMW
LayerCount: 2
Fore
SplineSet
272 350 m 256
 272 242 353 187 451 187 c 256
 550 187 606 231 650 273 c 257
 650 47 l 257
 595 9 537 -20 435 -20 c 256
 191 -20 30 126 30 350 c 256
 30 574 191 720 435 720 c 256
 537 720 595 691 650 653 c 257
 650 427 l 257
 606 469 550 513 451 513 c 256
 353 513 272 458 272 350 c 256
565 930 m 257
 385 780 l 257
 275 830 l 257
 425 990 l 257
 565 930 l 257
EndSplineSet
EndChar

StartChar: cacute
Encoding: 263 263 253
GlifName: cacute
Width: 503
VWidth: 0
Flags: HMW
LayerCount: 2
Fore
SplineSet
231 230 m 256
 231 169 278 138 333 138 c 256
 377 138 422 154 453 197 c 257
 453 21 l 257
 421 3 386 -10 313 -10 c 256
 148 -10 30 81 30 230 c 256
 30 379 148 470 313 470 c 256
 386 470 421 455 453 441 c 257
 453 264 l 257
 422 307 367 322 333 322 c 256
 278 322 231 281 231 230 c 256
443 681 m 257
 263 531 l 257
 153 581 l 257
 303 741 l 257
 443 681 l 257
EndSplineSet
EndChar

StartChar: Ccircumflex
Encoding: 264 264 254
GlifName: C_circumflex
Width: 710
VWidth: 0
Flags: HMW
LayerCount: 2
Fore
SplineSet
272 350 m 256
 272 242 353 187 451 187 c 256
 550 187 606 231 650 273 c 257
 650 47 l 257
 595 9 537 -20 435 -20 c 256
 191 -20 30 126 30 350 c 256
 30 574 191 720 435 720 c 256
 537 720 595 691 650 653 c 257
 650 427 l 257
 606 469 550 513 451 513 c 256
 353 513 272 458 272 350 c 256
435 860 m 257
 355 780 l 257
 215 870 l 257
 435 1010 l 257
 655 870 l 257
 515 780 l 257
 435 860 l 257
EndSplineSet
EndChar

StartChar: ccircumflex
Encoding: 265 265 255
GlifName: ccircumflex
Width: 503
VWidth: 0
Flags: HMW
LayerCount: 2
Fore
SplineSet
231 230 m 256
 231 169 278 138 333 138 c 256
 377 138 422 154 453 197 c 257
 453 21 l 257
 421 3 386 -10 313 -10 c 256
 148 -10 30 81 30 230 c 256
 30 379 148 470 313 470 c 256
 386 470 421 455 453 441 c 257
 453 264 l 257
 422 307 367 322 333 322 c 256
 278 322 231 281 231 230 c 256
263 611 m 257
 183 531 l 257
 43 621 l 257
 263 761 l 257
 483 621 l 257
 343 531 l 257
 263 611 l 257
EndSplineSet
EndChar

StartChar: Cdotaccent
Encoding: 266 266 256
GlifName: C_dotaccent
Width: 710
VWidth: 0
Flags: HMW
LayerCount: 2
Fore
SplineSet
272 350 m 256
 272 242 353 187 451 187 c 256
 550 187 606 231 650 273 c 257
 650 47 l 257
 595 9 537 -20 435 -20 c 256
 191 -20 30 126 30 350 c 256
 30 574 191 720 435 720 c 256
 537 720 595 691 650 653 c 257
 650 427 l 257
 606 469 550 513 451 513 c 256
 353 513 272 458 272 350 c 256
287 878 m 256
 287 937 335 976 395 976 c 256
 455 976 503 937 503 878 c 256
 503 819 455 780 395 780 c 256
 335 780 287 819 287 878 c 256
EndSplineSet
EndChar

StartChar: cdotaccent
Encoding: 267 267 257
GlifName: cdotaccent
Width: 503
VWidth: 0
Flags: HMW
LayerCount: 2
Fore
SplineSet
231 230 m 256
 231 169 278 138 333 138 c 256
 377 138 422 154 453 197 c 257
 453 21 l 257
 421 3 386 -10 313 -10 c 256
 148 -10 30 81 30 230 c 256
 30 379 148 470 313 470 c 256
 386 470 421 455 453 441 c 257
 453 264 l 257
 422 307 367 322 333 322 c 256
 278 322 231 281 231 230 c 256
165 639 m 256
 165 698 213 737 273 737 c 256
 333 737 381 698 381 639 c 256
 381 580 333 541 273 541 c 256
 213 541 165 580 165 639 c 256
EndSplineSet
EndChar

StartChar: Ccaron
Encoding: 268 268 258
GlifName: C_caron
Width: 710
VWidth: 0
Flags: HMW
LayerCount: 2
Fore
SplineSet
272 350 m 256
 272 242 353 187 451 187 c 256
 550 187 606 231 650 273 c 257
 650 47 l 257
 595 9 537 -20 435 -20 c 256
 191 -20 30 126 30 350 c 256
 30 574 191 720 435 720 c 256
 537 720 595 691 650 653 c 257
 650 427 l 257
 606 469 550 513 451 513 c 256
 353 513 272 458 272 350 c 256
435 930 m 257
 515 1010 l 257
 655 920 l 257
 435 780 l 257
 215 920 l 257
 355 1010 l 257
 435 930 l 257
EndSplineSet
EndChar

StartChar: ccaron
Encoding: 269 269 259
GlifName: ccaron
Width: 503
VWidth: 0
Flags: HMW
LayerCount: 2
Fore
SplineSet
231 230 m 256
 231 169 278 138 333 138 c 256
 377 138 422 154 453 197 c 257
 453 21 l 257
 421 3 386 -10 313 -10 c 256
 148 -10 30 81 30 230 c 256
 30 379 148 470 313 470 c 256
 386 470 421 455 453 441 c 257
 453 264 l 257
 422 307 367 322 333 322 c 256
 278 322 231 281 231 230 c 256
263 681 m 257
 343 761 l 257
 483 671 l 257
 263 531 l 257
 43 671 l 257
 183 761 l 257
 263 681 l 257
EndSplineSet
EndChar

StartChar: Dcaron
Encoding: 270 270 260
GlifName: D_caron
Width: 765
VWidth: 0
Flags: HMW
LayerCount: 2
Fore
SplineSet
70 700 m 257
 299 700 l 257
 299 0 l 257
 70 0 l 257
 70 700 l 257
345 0 m 258
 222 0 l 257
 222 190 l 257
 335 190 l 258
 413 190 505 207 505 350 c 256
 505 493 413 510 335 510 c 258
 222 510 l 257
 222 700 l 257
 345 700 l 258
 589 700 735 569 735 350 c 256
 735 131 589 0 345 0 c 258
402.5 930 m 257
 482.5 1010 l 257
 622.5 920 l 257
 402.5 780 l 257
 182.5 920 l 257
 322.5 1010 l 257
 402.5 930 l 257
EndSplineSet
EndChar

StartChar: dcaron
Encoding: 271 271 261
GlifName: dcaron
Width: 645
VWidth: 0
Flags: HMW
LayerCount: 2
Fore
SplineSet
400 780 m 257
 595 780 l 257
 595 0 l 257
 400 0 l 257
 400 780 l 257
30 230 m 256
 30 389 138 470 243 470 c 256
 358 470 446 379 446 230 c 256
 446 81 358 -10 243 -10 c 256
 138 -10 30 71 30 230 c 256
236 230 m 256
 236 179 273 140 318 140 c 256
 358 140 400 174 400 230 c 256
 400 286 358 320 318 320 c 256
 273 320 236 281 236 230 c 256
713 780 m 257
 908 746 l 257
 773 496 l 257
 625 521 l 257
 713 780 l 257
EndSplineSet
EndChar

StartChar: Dcroat
Encoding: 272 272 262
GlifName: D_croat
Width: 765
VWidth: 0
Flags: HMW
LayerCount: 2
Fore
SplineSet
5 290 m 257
 5 405 l 257
 375 405 l 257
 375 290 l 257
 5 290 l 257
70 700 m 257
 299 700 l 257
 299 0 l 257
 70 0 l 257
 70 700 l 257
345 0 m 258
 222 0 l 257
 222 190 l 257
 335 190 l 258
 413 190 505 207 505 350 c 256
 505 493 413 510 335 510 c 258
 222 510 l 257
 222 700 l 257
 345 700 l 258
 589 700 735 569 735 350 c 256
 735 131 589 0 345 0 c 258
EndSplineSet
EndChar

StartChar: dcroat
Encoding: 273 273 263
GlifName: dcroat
Width: 645
VWidth: 0
Flags: HMW
LayerCount: 2
Fore
SplineSet
295 550 m 257
 295 665 l 257
 685 665 l 257
 685 550 l 257
 295 550 l 257
400 780 m 257
 595 780 l 257
 595 0 l 257
 400 0 l 257
 400 780 l 257
30 230 m 256
 30 389 138 470 243 470 c 256
 358 470 446 379 446 230 c 256
 446 81 358 -10 243 -10 c 256
 138 -10 30 71 30 230 c 256
236 230 m 256
 236 179 273 140 318 140 c 256
 358 140 400 174 400 230 c 256
 400 286 358 320 318 320 c 256
 273 320 236 281 236 230 c 256
EndSplineSet
EndChar

StartChar: Emacron
Encoding: 274 274 264
GlifName: E_macron
Width: 635
VWidth: 0
Flags: HMW
LayerCount: 2
Fore
SplineSet
222 0 m 257
 222 175 l 257
 575 175 l 257
 575 0 l 257
 222 0 l 257
222 525 m 257
 222 700 l 257
 575 700 l 257
 575 525 l 257
 222 525 l 257
222 275 m 257
 222 445 l 257
 555 445 l 257
 555 275 l 257
 222 275 l 257
70 700 m 257
 280 700 l 257
 280 0 l 257
 70 0 l 257
 70 700 l 257
130 780 m 257
 130 945 l 257
 515 945 l 257
 515 780 l 257
 130 780 l 257
EndSplineSet
EndChar

StartChar: emacron
Encoding: 275 275 265
GlifName: emacron
Width: 609
VWidth: 0
Flags: HMW
LayerCount: 2
Fore
SplineSet
136 190 m 257
 136 284 l 257
 367.382 284 l 257
 360.964 329.27 342.042 350 303 350 c 256
 253 350 228 316 228 250 c 257
 226 230 l 257
 226 144 268 120 308 120 c 256
 355 120 388 135 404 165 c 257
 582 137 l 257
 536 47 457 -10 318 -10 c 256
 123 -10 30 91 30 230 c 256
 30 247 31 263 34 279 c 256
 53 392 139 470 308 470 c 256
 488 470 575 384 575 239 c 256
 575 231 575 211 573 190 c 257
 136 190 l 257
115.5 531 m 257
 115.5 696 l 257
 500.5 696 l 257
 500.5 531 l 257
 115.5 531 l 257
EndSplineSet
EndChar

StartChar: Ebreve
Encoding: 276 276 266
GlifName: E_breve
Width: 635
VWidth: 0
Flags: HMW
LayerCount: 2
Fore
SplineSet
222 0 m 257
 222 175 l 257
 575 175 l 257
 575 0 l 257
 222 0 l 257
222 525 m 257
 222 700 l 257
 575 700 l 257
 575 525 l 257
 222 525 l 257
222 275 m 257
 222 445 l 257
 555 445 l 257
 555 275 l 257
 222 275 l 257
70 700 m 257
 280 700 l 257
 280 0 l 257
 70 0 l 257
 70 700 l 257
154 930 m 257
 270 930 l 257
 270 889 302 880 322 880 c 256
 342 880 374 889 374 930 c 257
 490 930 l 257
 490 841 427 780 322 780 c 256
 217 780 154 841 154 930 c 257
EndSplineSet
EndChar

StartChar: ebreve
Encoding: 277 277 267
GlifName: ebreve
Width: 609
VWidth: 0
Flags: HMW
LayerCount: 2
Fore
SplineSet
136 190 m 257
 136 284 l 257
 367.382 284 l 257
 360.964 329.27 342.042 350 303 350 c 256
 253 350 228 316 228 250 c 257
 226 230 l 257
 226 144 268 120 308 120 c 256
 355 120 388 135 404 165 c 257
 582 137 l 257
 536 47 457 -10 318 -10 c 256
 123 -10 30 91 30 230 c 256
 30 247 31 263 34 279 c 256
 53 392 139 470 308 470 c 256
 488 470 575 384 575 239 c 256
 575 231 575 211 573 190 c 257
 136 190 l 257
140 681 m 257
 256 681 l 257
 256 640 288 631 308 631 c 256
 328 631 360 640 360 681 c 257
 476 681 l 257
 476 592 413 531 308 531 c 256
 203 531 140 592 140 681 c 257
EndSplineSet
EndChar

StartChar: Edotaccent
Encoding: 278 278 268
GlifName: E_dotaccent
Width: 635
VWidth: 0
Flags: HMW
LayerCount: 2
Fore
SplineSet
222 0 m 257
 222 175 l 257
 575 175 l 257
 575 0 l 257
 222 0 l 257
222 525 m 257
 222 700 l 257
 575 700 l 257
 575 525 l 257
 222 525 l 257
222 275 m 257
 222 445 l 257
 555 445 l 257
 555 275 l 257
 222 275 l 257
70 700 m 257
 280 700 l 257
 280 0 l 257
 70 0 l 257
 70 700 l 257
214 878 m 256
 214 937 262 976 322 976 c 256
 382 976 430 937 430 878 c 256
 430 819 382 780 322 780 c 256
 262 780 214 819 214 878 c 256
EndSplineSet
EndChar

StartChar: edotaccent
Encoding: 279 279 269
GlifName: edotaccent
Width: 609
VWidth: 0
Flags: HMW
LayerCount: 2
Fore
SplineSet
136 190 m 257
 136 284 l 257
 367.382 284 l 257
 360.964 329.27 342.042 350 303 350 c 256
 253 350 228 316 228 250 c 257
 226 230 l 257
 226 144 268 120 308 120 c 256
 355 120 388 135 404 165 c 257
 582 137 l 257
 536 47 457 -10 318 -10 c 256
 123 -10 30 91 30 230 c 256
 30 247 31 263 34 279 c 256
 53 392 139 470 308 470 c 256
 488 470 575 384 575 239 c 256
 575 231 575 211 573 190 c 257
 136 190 l 257
200 629 m 256
 200 688 248 727 308 727 c 256
 368 727 416 688 416 629 c 256
 416 570 368 531 308 531 c 256
 248 531 200 570 200 629 c 256
EndSplineSet
EndChar

StartChar: Eogonek
Encoding: 280 280 270
GlifName: E_ogonek
Width: 635
VWidth: 0
Flags: HMW
LayerCount: 2
Fore
SplineSet
222 0 m 257
 222 175 l 257
 575 175 l 257
 575 0 l 257
 222 0 l 257
222 525 m 257
 222 700 l 257
 575 700 l 257
 575 525 l 257
 222 525 l 257
222 275 m 257
 222 445 l 257
 555 445 l 257
 555 275 l 257
 222 275 l 257
70 700 m 257
 280 700 l 257
 280 0 l 257
 70 0 l 257
 70 700 l 257
420 -100 m 257
 453 -180 l 257
 438 -200 408 -220 345 -220 c 256
 291 -220 232 -189 232 -120 c 256
 232 -51 304 -11 374 25 c 257
 415 0 l 257
 363 -32 342 -63 342 -90 c 256
 342 -108 350 -120 370 -120 c 256
 386 -120 406 -113 420 -100 c 257
EndSplineSet
EndChar

StartChar: eogonek
Encoding: 281 281 271
GlifName: eogonek
Width: 609
VWidth: 0
Flags: HMW
LayerCount: 2
Fore
SplineSet
136 190 m 257
 136 284 l 257
 367.382 284 l 257
 360.964 329.27 342.042 350 303 350 c 256
 253 350 228 316 228 250 c 257
 226 230 l 257
 226 144 268 120 308 120 c 256
 355 120 388 135 404 165 c 257
 582 137 l 257
 536 47 457 -10 318 -10 c 256
 123 -10 30 91 30 230 c 256
 30 247 31 263 34 279 c 256
 53 392 139 470 308 470 c 256
 488 470 575 384 575 239 c 256
 575 231 575 211 573 190 c 257
 136 190 l 257
344 -86.833 m 257
 377 -166.833 l 257
 362 -186.833 332 -206.833 269 -206.833 c 256
 215 -206.833 156 -175.833 156 -106.833 c 256
 156 -37.833 228 2.16699 298 38.167 c 257
 339 13.167 l 257
 287 -18.833 266 -49.833 266 -76.833 c 256
 266 -94.833 274 -106.833 294 -106.833 c 256
 310 -106.833 330 -99.833 344 -86.833 c 257
EndSplineSet
EndChar

StartChar: Ecaron
Encoding: 282 282 272
GlifName: E_caron
Width: 635
VWidth: 0
Flags: HMW
LayerCount: 2
Fore
SplineSet
222 0 m 257
 222 175 l 257
 575 175 l 257
 575 0 l 257
 222 0 l 257
222 525 m 257
 222 700 l 257
 575 700 l 257
 575 525 l 257
 222 525 l 257
222 275 m 257
 222 445 l 257
 555 445 l 257
 555 275 l 257
 222 275 l 257
70 700 m 257
 280 700 l 257
 280 0 l 257
 70 0 l 257
 70 700 l 257
322 930 m 257
 402 1010 l 257
 542 920 l 257
 322 780 l 257
 102 920 l 257
 242 1010 l 257
 322 930 l 257
EndSplineSet
EndChar

StartChar: ecaron
Encoding: 283 283 273
GlifName: ecaron
Width: 609
VWidth: 0
Flags: HMW
LayerCount: 2
Fore
SplineSet
136 190 m 257
 136 284 l 257
 367.382 284 l 257
 360.964 329.27 342.042 350 303 350 c 256
 253 350 228 316 228 250 c 257
 226 230 l 257
 226 144 268 120 308 120 c 256
 355 120 388 135 404 165 c 257
 582 137 l 257
 536 47 457 -10 318 -10 c 256
 123 -10 30 91 30 230 c 256
 30 247 31 263 34 279 c 256
 53 392 139 470 308 470 c 256
 488 470 575 384 575 239 c 256
 575 231 575 211 573 190 c 257
 136 190 l 257
308 681 m 257
 388 761 l 257
 528 671 l 257
 308 531 l 257
 88 671 l 257
 228 761 l 257
 308 681 l 257
EndSplineSet
EndChar

StartChar: Gcircumflex
Encoding: 284 284 274
GlifName: G_circumflex
Width: 838
VWidth: 0
Flags: HMW
LayerCount: 2
Fore
SplineSet
430 240 m 257
 430 400 l 257
 802 400 l 257
 822 161 684 -30 430 -30 c 256
 196 -30 30 121 30 350 c 256
 30 579 206 720 440 720 c 256
 599 720 701 641 771 544 c 257
 566 452 l 257
 542 496 507 535 440 535 c 256
 342 535 260 473 260 350 c 256
 260 227 332 155 440 155 c 256
 520.624 155 564.45 188.237 587.644 240 c 257
 430 240 l 257
440 860 m 257
 360 780 l 257
 220 870 l 257
 440 1010 l 257
 660 870 l 257
 520 780 l 257
 440 860 l 257
EndSplineSet
EndChar

StartChar: gcircumflex
Encoding: 285 285 275
GlifName: gcircumflex
Width: 635
VWidth: 0
Flags: HMW
LayerCount: 2
Fore
SplineSet
40 -35 m 257
 227 -35 l 257
 235 -86 266 -95 306 -95 c 256
 366 -95 400 -56 400 10 c 258
 400 460 l 257
 585 460 l 257
 585 10 l 258
 585 -179 471 -245 316 -245 c 256
 121 -245 58 -159 40 -35 c 257
30 240 m 256
 30 399 138 470 243 470 c 256
 358 470 446 389 446 240 c 256
 446 91 358 10 243 10 c 256
 138 10 30 81 30 240 c 256
236 240 m 256
 236 189 273 160 318 160 c 256
 358 160 400 184 400 240 c 256
 400 296 358 320 318 320 c 256
 273 320 236 291 236 240 c 256
353 611 m 257
 273 531 l 257
 133 621 l 257
 353 761 l 257
 573 621 l 257
 433 531 l 257
 353 611 l 257
EndSplineSet
EndChar

StartChar: Gbreve
Encoding: 286 286 276
GlifName: G_breve
Width: 838
VWidth: 0
Flags: HMW
LayerCount: 2
Fore
SplineSet
430 240 m 257
 430 400 l 257
 802 400 l 257
 822 161 684 -30 430 -30 c 256
 196 -30 30 121 30 350 c 256
 30 579 206 720 440 720 c 256
 599 720 701 641 771 544 c 257
 566 452 l 257
 542 496 507 535 440 535 c 256
 342 535 260 473 260 350 c 256
 260 227 332 155 440 155 c 256
 520.624 155 564.45 188.237 587.644 240 c 257
 430 240 l 257
272 930 m 257
 388 930 l 257
 388 889 420 880 440 880 c 256
 460 880 492 889 492 930 c 257
 608 930 l 257
 608 841 545 780 440 780 c 256
 335 780 272 841 272 930 c 257
EndSplineSet
EndChar

StartChar: gbreve
Encoding: 287 287 277
GlifName: gbreve
Width: 635
VWidth: 0
Flags: HMW
LayerCount: 2
Fore
SplineSet
40 -35 m 257
 227 -35 l 257
 235 -86 266 -95 306 -95 c 256
 366 -95 400 -56 400 10 c 258
 400 460 l 257
 585 460 l 257
 585 10 l 258
 585 -179 471 -245 316 -245 c 256
 121 -245 58 -159 40 -35 c 257
30 240 m 256
 30 399 138 470 243 470 c 256
 358 470 446 389 446 240 c 256
 446 91 358 10 243 10 c 256
 138 10 30 81 30 240 c 256
236 240 m 256
 236 189 273 160 318 160 c 256
 358 160 400 184 400 240 c 256
 400 296 358 320 318 320 c 256
 273 320 236 291 236 240 c 256
185 681 m 257
 301 681 l 257
 301 640 333 631 353 631 c 256
 373 631 405 640 405 681 c 257
 521 681 l 257
 521 592 458 531 353 531 c 256
 248 531 185 592 185 681 c 257
EndSplineSet
EndChar

StartChar: Gdotaccent
Encoding: 288 288 278
GlifName: G_dotaccent
Width: 838
VWidth: 0
Flags: HMW
LayerCount: 2
Fore
SplineSet
430 240 m 257
 430 400 l 257
 802 400 l 257
 822 161 684 -30 430 -30 c 256
 196 -30 30 121 30 350 c 256
 30 579 206 720 440 720 c 256
 599 720 701 641 771 544 c 257
 566 452 l 257
 542 496 507 535 440 535 c 256
 342 535 260 473 260 350 c 256
 260 227 332 155 440 155 c 256
 520.624 155 564.45 188.237 587.644 240 c 257
 430 240 l 257
332 878 m 256
 332 937 380 976 440 976 c 256
 500 976 548 937 548 878 c 256
 548 819 500 780 440 780 c 256
 380 780 332 819 332 878 c 256
EndSplineSet
EndChar

StartChar: gdotaccent
Encoding: 289 289 279
GlifName: gdotaccent
Width: 635
VWidth: 0
Flags: HMW
LayerCount: 2
Fore
SplineSet
40 -35 m 257
 227 -35 l 257
 235 -86 266 -95 306 -95 c 256
 366 -95 400 -56 400 10 c 258
 400 460 l 257
 585 460 l 257
 585 10 l 258
 585 -179 471 -245 316 -245 c 256
 121 -245 58 -159 40 -35 c 257
30 240 m 256
 30 399 138 470 243 470 c 256
 358 470 446 389 446 240 c 256
 446 91 358 10 243 10 c 256
 138 10 30 81 30 240 c 256
236 240 m 256
 236 189 273 160 318 160 c 256
 358 160 400 184 400 240 c 256
 400 296 358 320 318 320 c 256
 273 320 236 291 236 240 c 256
215 629 m 256
 215 688 263 727 323 727 c 256
 383 727 431 688 431 629 c 256
 431 570 383 531 323 531 c 256
 263 531 215 570 215 629 c 256
EndSplineSet
EndChar

StartChar: uni0122
Encoding: 290 290 280
GlifName: uni0122
Width: 838
VWidth: 0
Flags: HMW
LayerCount: 2
Fore
SplineSet
430 240 m 257
 430 400 l 257
 802 400 l 257
 822 161 684 -30 430 -30 c 256
 196 -30 30 121 30 350 c 256
 30 579 206 720 440 720 c 256
 599 720 701 641 771 544 c 257
 566 452 l 257
 542 496 507 535 440 535 c 256
 342 535 260 473 260 350 c 256
 260 227 332 155 440 155 c 256
 520.624 155 564.45 188.237 587.644 240 c 257
 430 240 l 257
326.5 -90 m 257
 521.5 -124 l 257
 386.5 -374 l 257
 238.5 -349 l 257
 326.5 -90 l 257
EndSplineSet
EndChar

StartChar: Hcircumflex
Encoding: 292 292 281
GlifName: H_circumflex
Width: 830
VWidth: 0
Flags: HMW
LayerCount: 2
Fore
SplineSet
117 265 m 257
 117 460 l 257
 677 460 l 257
 677 265 l 257
 117 265 l 257
540 700 m 257
 760 700 l 257
 760 0 l 257
 540 0 l 257
 540 700 l 257
70 700 m 257
 290 700 l 257
 290 0 l 257
 70 0 l 257
 70 700 l 257
415 860 m 257
 335 780 l 257
 195 870 l 257
 415 1010 l 257
 635 870 l 257
 495 780 l 257
 415 860 l 257
EndSplineSet
EndChar

StartChar: hcircumflex
Encoding: 293 293 282
GlifName: hcircumflex
Width: 595
VWidth: 0
Flags: HMW
LayerCount: 2
Fore
SplineSet
245 780 m 257
 245 0 l 257
 50 0 l 257
 50 780 l 257
 245 780 l 257
350 280 m 258
 350 321 342 346 302 346 c 256
 267 346 245 326 245 280 c 257
 219 280 l 257
 219 389 262 481 387 481 c 256
 512 481 545 419 545 310 c 258
 545 0 l 257
 350 0 l 257
 350 280 l 258
147.5 920 m 261
 67.5 840 l 261
 -72.5 930 l 261
 147.5 1070 l 261
 367.5 930 l 261
 227.5 840 l 261
 147.5 920 l 261
EndSplineSet
EndChar

StartChar: Itilde
Encoding: 296 296 283
GlifName: I_tilde
Width: 365
VWidth: 0
Flags: HMW
LayerCount: 2
Fore
SplineSet
70 700 m 257
 295 700 l 257
 295 0 l 257
 70 0 l 257
 70 700 l 257
-32 863 m 257
 -22 912 21 965 96 965 c 256
 163 965 182 910 240 910 c 256
 269 910 292 934 312 966 c 257
 398 873 l 257
 382 836 316 780 246 780 c 256
 191 780 148 837 96 837 c 256
 60 837 50 801 50 786 c 257
 -32 863 l 257
EndSplineSet
EndChar

StartChar: itilde
Encoding: 297 297 284
GlifName: itilde
Width: 286
VWidth: 0
Flags: HMW
LayerCount: 2
Fore
SplineSet
49 460 m 257
 236 460 l 257
 236 0 l 257
 49 0 l 257
 49 460 l 257
-72 614 m 257
 -62 663 -19 716 56 716 c 256
 123 716 142 661 200 661 c 256
 229 661 252 685 272 717 c 257
 358 624 l 257
 342 587 276 531 206 531 c 256
 151 531 108 588 56 588 c 256
 20 588 10 552 10 537 c 257
 -72 614 l 257
EndSplineSet
EndChar

StartChar: Imacron
Encoding: 298 298 285
GlifName: I_macron
Width: 365
VWidth: 0
Flags: HMW
LayerCount: 2
Fore
SplineSet
70 700 m 257
 295 700 l 257
 295 0 l 257
 70 0 l 257
 70 700 l 257
-10 780 m 257
 -10 945 l 257
 375 945 l 257
 375 780 l 257
 -10 780 l 257
EndSplineSet
EndChar

StartChar: imacron
Encoding: 299 299 286
GlifName: imacron
Width: 286
VWidth: 0
Flags: HMW
LayerCount: 2
Fore
SplineSet
49 460 m 257
 236 460 l 257
 236 0 l 257
 49 0 l 257
 49 460 l 257
-50 531 m 257
 -50 696 l 257
 335 696 l 257
 335 531 l 257
 -50 531 l 257
EndSplineSet
EndChar

StartChar: Ibreve
Encoding: 300 300 287
GlifName: I_breve
Width: 365
VWidth: 0
Flags: HMW
LayerCount: 2
Fore
SplineSet
70 700 m 257
 295 700 l 257
 295 0 l 257
 70 0 l 257
 70 700 l 257
14 930 m 257
 130 930 l 257
 130 889 162 880 182 880 c 256
 202 880 234 889 234 930 c 257
 350 930 l 257
 350 841 287 780 182 780 c 256
 77 780 14 841 14 930 c 257
EndSplineSet
EndChar

StartChar: ibreve
Encoding: 301 301 288
GlifName: ibreve
Width: 286
VWidth: 0
Flags: HMW
LayerCount: 2
Fore
SplineSet
49 460 m 257
 236 460 l 257
 236 0 l 257
 49 0 l 257
 49 460 l 257
-26 681 m 257
 90 681 l 257
 90 640 122 631 142 631 c 256
 162 631 194 640 194 681 c 257
 310 681 l 257
 310 592 247 531 142 531 c 256
 37 531 -26 592 -26 681 c 257
EndSplineSet
EndChar

StartChar: Iogonek
Encoding: 302 302 289
GlifName: I_ogonek
Width: 365
VWidth: 0
Flags: HMW
LayerCount: 2
Fore
SplineSet
70 700 m 257
 295 700 l 257
 295 0 l 257
 70 0 l 257
 70 700 l 257
258 -97 m 257
 292 -177 l 257
 277 -197 247 -217 184 -217 c 256
 130 -217 70 -186 70 -117 c 256
 70 -48 142 -8 212 28 c 257
 254 3 l 257
 202 -29 180 -60 180 -87 c 256
 180 -105 188 -117 208 -117 c 256
 224 -117 244 -110 258 -97 c 257
EndSplineSet
EndChar

StartChar: iogonek
Encoding: 303 303 290
GlifName: iogonek
Width: 286
VWidth: 0
Flags: HMW
LayerCount: 2
Fore
SplineSet
35 622 m 256
 35 681 83 720 143 720 c 256
 203 720 251 681 251 622 c 256
 251 563 203 524 143 524 c 256
 83 524 35 563 35 622 c 256
49 460 m 257
 236 460 l 257
 236 0 l 257
 49 0 l 257
 49 460 l 257
201 -100 m 257
 234 -180 l 257
 219 -200 189 -220 126 -220 c 256
 72 -220 13 -189 13 -120 c 256
 13 -51 85 -11 155 25 c 257
 196 0 l 257
 144 -32 123 -63 123 -90 c 256
 123 -108 131 -120 151 -120 c 256
 167 -120 187 -113 201 -100 c 257
EndSplineSet
EndChar

StartChar: Idotaccent
Encoding: 304 304 291
GlifName: I_dotaccent
Width: 365
VWidth: 0
Flags: HMW
LayerCount: 2
Fore
SplineSet
70 700 m 257
 295 700 l 257
 295 0 l 257
 70 0 l 257
 70 700 l 257
74 878 m 256
 74 937 122 976 182 976 c 256
 242 976 290 937 290 878 c 256
 290 819 242 780 182 780 c 256
 122 780 74 819 74 878 c 256
EndSplineSet
EndChar

StartChar: uni0136
Encoding: 310 310 292
GlifName: uni0136
Width: 781
VWidth: 0
Flags: HMW
LayerCount: 2
Fore
SplineSet
70 700 m 257
 300 700 l 257
 300 0 l 257
 70 0 l 257
 70 700 l 257
515 700 m 257
 771 700 l 257
 498 372 l 257
 786 0 l 257
 520 0 l 257
 237 365 l 257
 515 700 l 257
334 -60 m 257
 530 -94 l 257
 394 -344 l 257
 246 -319 l 257
 334 -60 l 257
EndSplineSet
EndChar

StartChar: uni0137
Encoding: 311 311 293
GlifName: uni0137
Width: 660
VWidth: 0
Flags: HMW
LayerCount: 2
Fore
SplineSet
50 780 m 257
 235 780 l 257
 235 0 l 257
 50 0 l 257
 50 780 l 257
401 460 m 257
 630 460 l 257
 435 270 l 257
 650 0 l 257
 425 0 l 257
 206 270 l 257
 401 460 l 257
256 -60 m 257
 452 -94 l 257
 316 -344 l 257
 168 -319 l 257
 256 -60 l 257
EndSplineSet
EndChar

StartChar: Lacute
Encoding: 313 313 294
GlifName: L_acute
Width: 575
VWidth: 0
Flags: HMW
LayerCount: 2
Fore
SplineSet
70 700 m 257
 290 700 l 257
 290 185 l 257
 575 185 l 257
 575 0 l 257
 70 0 l 257
 70 700 l 257
502.5 930 m 257
 322.5 780 l 257
 212.5 830 l 257
 362.5 990 l 257
 502.5 930 l 257
EndSplineSet
EndChar

StartChar: lacute
Encoding: 314 314 295
GlifName: lacute
Width: 295
VWidth: 0
Flags: HMW
LayerCount: 2
Fore
SplineSet
50 780 m 257
 245 780 l 257
 245 0 l 257
 50 0 l 257
 50 780 l 257
328 990 m 257
 148 840 l 257
 38 890 l 257
 188 1050 l 257
 328 990 l 257
EndSplineSet
EndChar

StartChar: uni013B
Encoding: 315 315 296
GlifName: uni013B_
Width: 575
VWidth: 0
Flags: HMW
LayerCount: 2
Fore
SplineSet
70 700 m 257
 290 700 l 257
 290 185 l 257
 575 185 l 257
 575 0 l 257
 70 0 l 257
 70 700 l 257
269 -60 m 257
 464 -94 l 257
 329 -344 l 257
 181 -319 l 257
 269 -60 l 257
EndSplineSet
EndChar

StartChar: uni013C
Encoding: 316 316 297
GlifName: uni013C_
Width: 295
VWidth: 0
Flags: HMW
LayerCount: 2
Fore
SplineSet
50 780 m 257
 245 780 l 257
 245 0 l 257
 50 0 l 257
 50 780 l 257
94 -60 m 257
 289 -94 l 257
 154 -344 l 257
 6 -319 l 257
 94 -60 l 257
EndSplineSet
EndChar

StartChar: Lcaron
Encoding: 317 317 298
GlifName: L_caron
Width: 575
VWidth: 0
Flags: HMW
LayerCount: 2
Fore
SplineSet
70 700 m 257
 290 700 l 257
 290 185 l 257
 575 185 l 257
 575 0 l 257
 70 0 l 257
 70 700 l 257
463 720 m 257
 658 686 l 257
 523 436 l 257
 375 461 l 257
 463 720 l 257
EndSplineSet
EndChar

StartChar: lcaron
Encoding: 318 318 299
GlifName: lcaron
Width: 295
VWidth: 0
Flags: HMW
LayerCount: 2
Fore
SplineSet
50 780 m 257
 245 780 l 257
 245 0 l 257
 50 0 l 257
 50 780 l 257
383 780 m 257
 578 746 l 257
 443 496 l 257
 295 521 l 257
 383 780 l 257
EndSplineSet
EndChar

StartChar: Ldot
Encoding: 319 319 300
GlifName: L_dot
Width: 575
VWidth: 0
Flags: HMW
LayerCount: 2
Fore
SplineSet
70 700 m 257
 290 700 l 257
 290 185 l 257
 575 185 l 257
 575 0 l 257
 70 0 l 257
 70 700 l 257
364.5 440 m 256
 364.5 503 412.5 555 482.5 555 c 256
 552.5 555 600.5 503 600.5 440 c 256
 600.5 377 552.5 325 482.5 325 c 256
 412.5 325 364.5 377 364.5 440 c 256
EndSplineSet
EndChar

StartChar: ldot
Encoding: 320 320 301
GlifName: ldot
Width: 541
VWidth: 0
Flags: HMW
LayerCount: 2
Fore
SplineSet
50 780 m 257
 245 780 l 257
 245 0 l 257
 50 0 l 257
 50 780 l 257
275 405 m 256
 275 468 323 520 393 520 c 256
 463 520 511 468 511 405 c 256
 511 342 463 290 393 290 c 256
 323 290 275 342 275 405 c 256
EndSplineSet
EndChar

StartChar: eth
Encoding: 240 240 302
GlifName: eth
Width: 726
VWidth: 0
Flags: HMW
LayerCount: 2
Fore
SplineSet
457 255 m 256
 457 311 416 347 363 347 c 256
 310 347 269 311 269 255 c 256
 269 199 310 165 363 165 c 256
 416 165 457 199 457 255 c 256
391 695 m 257
 572 480 l 258
 629 412 676 342 676 255 c 256
 676 66 533 -20 363 -20 c 256
 193 -20 50 66 50 255 c 256
 50 404 173 483 272 483 c 256
 325 483 351 475 395 437 c 257
 343 464 l 257
 112 695 l 257
 391 695 l 257
125 520 m 257
 125 605 l 257
 645 605 l 257
 645 520 l 257
 125 520 l 257
EndSplineSet
EndChar

StartChar: racute
Encoding: 341 341 303
GlifName: racute
Width: 453
VWidth: 0
Flags: HMW
LayerCount: 2
Fore
SplineSet
240 460 m 257
 240 0 l 257
 50 0 l 257
 50 460 l 257
 240 460 l 257
369 262 m 257
 357 278 338 290 312 290 c 256
 277 290 240 261 240 195 c 257
 204 280 l 257
 204 389 282 472 367 472 c 256
 400 472 436 452 448 430 c 257
 369 262 l 257
429 682 m 257
 249 532 l 257
 139 582 l 257
 289 742 l 257
 429 682 l 257
EndSplineSet
EndChar

StartChar: rcaron
Encoding: 345 345 304
GlifName: rcaron
Width: 453
VWidth: 0
Flags: HMW
LayerCount: 2
Fore
SplineSet
240 460 m 257
 240 0 l 257
 50 0 l 257
 50 460 l 257
 240 460 l 257
369 262 m 257
 357 278 338 290 312 290 c 256
 277 290 240 261 240 195 c 257
 204 280 l 257
 204 389 282 472 367 472 c 256
 400 472 436 452 448 430 c 257
 369 262 l 257
249 682 m 257
 329 762 l 257
 469 672 l 257
 249 532 l 257
 29 672 l 257
 169 762 l 257
 249 682 l 257
EndSplineSet
EndChar

StartChar: Rcaron
Encoding: 344 344 305
GlifName: R_caron
Width: 700
VWidth: 0
Flags: HMW
LayerCount: 2
Fore
SplineSet
275 300 m 257
 500 300 l 257
 700 0 l 257
 445 0 l 257
 275 300 l 257
70 700 m 257
 290 700 l 257
 290 0 l 257
 70 0 l 257
 70 700 l 257
212 515 m 257
 212 700 l 257
 365 700 l 258
 570 700 658 599 658 460 c 256
 658 321 570 220 365 220 c 258
 212 220 l 257
 212 385 l 257
 345 385 l 258
 400 385 428 409 428 450 c 256
 428 491 400 515 345 515 c 258
 212 515 l 257
348 930 m 257
 428 1010 l 257
 568 920 l 257
 348 780 l 257
 128 920 l 257
 268 1010 l 257
 348 930 l 257
EndSplineSet
EndChar

StartChar: uni0213
Encoding: 531 531 306
GlifName: uni0213
Width: 453
VWidth: 0
Flags: HMW
LayerCount: 2
Fore
SplineSet
240 460 m 257
 240 0 l 257
 50 0 l 257
 50 460 l 257
 240 460 l 257
369 262 m 257
 357 278 338 290 312 290 c 256
 277 290 240 261 240 195 c 257
 204 280 l 257
 204 389 282 472 367 472 c 256
 400 472 436 452 448 430 c 257
 369 262 l 257
81 532 m 257
 197 532 l 257
 197 573 229 582 249 582 c 256
 269 582 301 573 301 532 c 257
 417 532 l 257
 417 621 354 682 249 682 c 256
 144 682 81 621 81 532 c 257
EndSplineSet
EndChar

StartChar: uni0212
Encoding: 530 530 307
GlifName: uni0212
Width: 700
VWidth: 0
Flags: HMW
LayerCount: 2
Fore
SplineSet
275 300 m 257
 500 300 l 257
 700 0 l 257
 445 0 l 257
 275 300 l 257
70 700 m 257
 290 700 l 257
 290 0 l 257
 70 0 l 257
 70 700 l 257
212 515 m 257
 212 700 l 257
 365 700 l 258
 570 700 658 599 658 460 c 256
 658 321 570 220 365 220 c 258
 212 220 l 257
 212 385 l 257
 345 385 l 258
 400 385 428 409 428 450 c 256
 428 491 400 515 345 515 c 258
 212 515 l 257
190 780 m 257
 306 780 l 257
 306 821 338 830 358 830 c 256
 378 830 410 821 410 780 c 257
 526 780 l 257
 526 869 463 930 358 930 c 256
 253 930 190 869 190 780 c 257
EndSplineSet
EndChar

StartChar: OE
Encoding: 338 338 308
GlifName: O_E_
Width: 985
VWidth: 0
Flags: HMW
LayerCount: 2
Fore
SplineSet
562 275 m 257
 562 445 l 257
 950 445 l 257
 950 275 l 257
 562 275 l 257
465 670 m 257
 675 670 l 257
 675 30 l 257
 465 30 l 257
 465 670 l 257
971 175 m 257
 971 0 l 257
 390 0 l 258
 187 0 30 141 30 350 c 256
 30 559 186 700 390 700 c 258
 970 700 l 257
 970 525 l 257
 568 525 l 257
 551 510 l 257
 440 510 l 258
 312 510 260 463 260 350 c 256
 260 237 313 190 440 190 c 258
 548 190 l 257
 572 175 l 257
 971 175 l 257
EndSplineSet
EndChar

StartChar: oe
Encoding: 339 339 309
GlifName: oe
Width: 900
VWidth: 0
Flags: HMW
LayerCount: 2
Fore
SplineSet
660 250 m 258
 660 316 638 350 598 350 c 256
 558 350 523 326 523 260 c 257
 521 230 l 257
 521 154 552 115 602 115 c 256
 649 115 672 136 696 166 c 257
 872 137 l 257
 836 57 737 -10 638 -10 c 256
 513 -10 430 91 430 230 c 256
 430 247 431 263 434 279 c 256
 453 392 539 470 658 470 c 256
 768 470 865 379 865 234 c 256
 865 226 863 198 862 190 c 257
 660 230 l 257
 660 250 l 258
481 190 m 257
 481 283 l 257
 844 283 l 257
 862 190 l 257
 481 190 l 257
35 230 m 256
 35 379 138 470 263 470 c 256
 388 470 466 379 466 230 c 256
 466 81 388 -10 263 -10 c 256
 138 -10 35 81 35 230 c 256
226 230 m 256
 226 174 258 145 303 145 c 256
 353 145 380 174 380 230 c 256
 380 286 353 315 303 315 c 256
 258 315 226 286 226 230 c 256
EndSplineSet
EndChar

StartChar: a.alt
Encoding: 65536 -1 310
GlifName: a.alt
Width: 645
VWidth: 0
Flags: HMW
LayerCount: 2
Fore
SplineSet
400 460 m 257
 595 460 l 257
 595 0 l 257
 400 0 l 257
 400 460 l 257
30 230 m 256
 30 389 138 470 243 470 c 256
 358 470 446 379 446 230 c 256
 446 81 358 -10 243 -10 c 256
 138 -10 30 71 30 230 c 256
236 230 m 256
 236 179 273 140 318 140 c 256
 358 140 400 174 400 230 c 256
 400 286 358 320 318 320 c 256
 273 320 236 281 236 230 c 256
EndSplineSet
EndChar

StartChar: Jcircumflex
Encoding: 308 308 312
GlifName: J_circumflex
Width: 385
VWidth: 0
Flags: HMW
LayerCount: 2
Fore
SplineSet
-75 -39 m 257
 -51 -54 -19 -70 7 -70 c 256
 37 -70 70 -51 70 5 c 258
 70 700 l 257
 315 700 l 257
 315 -50 l 258
 315 -199 181 -250 37 -250 c 256
 -56 -250 -141 -220 -196 -190 c 257
 -75 -39 l 257
192 860 m 257
 112 780 l 257
 -28 870 l 257
 192 1010 l 257
 412 870 l 257
 272 780 l 257
 192 860 l 257
EndSplineSet
EndChar

StartChar: jcircumflex
Encoding: 309 309 313
GlifName: jcircumflex
Width: 285
VWidth: 0
Flags: HMW
LayerCount: 2
Fore
SplineSet
-43 -55 m 257
 -30 -70 -17 -80 2 -80 c 256
 32 -80 50 -61 50 -25 c 258
 50 460 l 257
 235 460 l 257
 235 -80 l 258
 235 -179 171 -250 37 -250 c 256
 -46 -250 -89 -213 -114 -193 c 257
 -43 -55 l 257
142 611 m 257
 62 531 l 257
 -78 621 l 257
 142 761 l 257
 362 621 l 257
 222 531 l 257
 142 611 l 257
EndSplineSet
EndChar

StartChar: Nacute
Encoding: 323 323 314
GlifName: N_acute
Width: 805
VWidth: 0
Flags: HMW
LayerCount: 2
Fore
SplineSet
525 700 m 257
 735 700 l 257
 735 -35 l 257
 280 316.591 l 257
 280 0 l 257
 70 0 l 257
 70 735 l 257
 525 383.409 l 257
 525 700 l 257
540 915 m 257
 360 765 l 257
 250 815 l 257
 400 975 l 257
 540 915 l 257
EndSplineSet
EndChar

StartChar: nacute
Encoding: 324 324 315
GlifName: nacute
Width: 605
VWidth: 0
Flags: HMW
LayerCount: 2
Fore
SplineSet
245 460 m 257
 245 0 l 257
 50 0 l 257
 50 460 l 257
 245 460 l 257
350 280 m 258
 350 321 342 346 302 346 c 256
 267 346 245 326 245 280 c 257
 219 270 l 257
 219 379 262 471 387 471 c 256
 512 471 555 409 555 300 c 258
 555 0 l 257
 350 0 l 257
 350 280 l 258
482 681 m 257
 302 531 l 257
 192 581 l 257
 342 741 l 257
 482 681 l 257
EndSplineSet
EndChar

StartChar: uni0145
Encoding: 325 325 316
GlifName: uni0145
Width: 805
VWidth: 0
Flags: HMW
LayerCount: 2
Fore
SplineSet
342 -65 m 257
 536 -99 l 257
 402 -349 l 257
 254 -324 l 257
 342 -65 l 257
525 700 m 257
 735 700 l 257
 735 -35 l 257
 280 316.591 l 257
 280 0 l 257
 70 0 l 257
 70 735 l 257
 525 383.409 l 257
 525 700 l 257
EndSplineSet
EndChar

StartChar: uni0146
Encoding: 326 326 317
GlifName: uni0146
Width: 605
VWidth: 0
Flags: HMW
LayerCount: 2
Fore
SplineSet
245 460 m 257
 245 0 l 257
 50 0 l 257
 50 460 l 257
 245 460 l 257
350 280 m 258
 350 321 342 346 302 346 c 256
 267 346 245 326 245 280 c 257
 219 270 l 257
 219 379 262 471 387 471 c 256
 512 471 555 409 555 300 c 258
 555 0 l 257
 350 0 l 257
 350 280 l 258
249 -60 m 257
 444 -94 l 257
 309 -344 l 257
 161 -319 l 257
 249 -60 l 257
EndSplineSet
EndChar

StartChar: Ncaron
Encoding: 327 327 318
GlifName: N_caron
Width: 805
VWidth: 0
Flags: HMW
LayerCount: 2
Fore
SplineSet
360 915 m 257
 440 995 l 257
 580 905 l 257
 360 765 l 257
 140 905 l 257
 280 995 l 257
 360 915 l 257
525 700 m 257
 735 700 l 257
 735 -35 l 257
 280 316.591 l 257
 280 0 l 257
 70 0 l 257
 70 735 l 257
 525 383.409 l 257
 525 700 l 257
EndSplineSet
EndChar

StartChar: ncaron
Encoding: 328 328 319
GlifName: ncaron
Width: 605
VWidth: 0
Flags: HMW
LayerCount: 2
Fore
SplineSet
245 460 m 257
 245 0 l 257
 50 0 l 257
 50 460 l 257
 245 460 l 257
350 280 m 258
 350 321 342 346 302 346 c 256
 267 346 245 326 245 280 c 257
 219 270 l 257
 219 379 262 471 387 471 c 256
 512 471 555 409 555 300 c 258
 555 0 l 257
 350 0 l 257
 350 280 l 258
302 681 m 257
 382 761 l 257
 522 671 l 257
 302 531 l 257
 82 671 l 257
 222 761 l 257
 302 681 l 257
EndSplineSet
EndChar

StartChar: Omacron
Encoding: 332 332 320
GlifName: O_macron
Width: 840
VWidth: 0
Flags: HMW
LayerCount: 2
Fore
SplineSet
263 350 m 256
 263 247 322 178 420 178 c 256
 518 178 577 247 577 350 c 256
 577 453 523 522 420 522 c 256
 322 522 263 453 263 350 c 256
30 350 m 256
 30 574 201 720 420 720 c 256
 644 720 810 574 810 350 c 256
 810 126 649 -30 420 -30 c 256
 191 -30 30 126 30 350 c 256
228 780 m 257
 228 945 l 257
 612 945 l 257
 612 780 l 257
 228 780 l 257
EndSplineSet
EndChar

StartChar: omacron
Encoding: 333 333 321
GlifName: omacron
Width: 616
VWidth: 0
Flags: HMW
LayerCount: 2
Fore
SplineSet
30 230 m 256
 30 379 148 471 308 471 c 256
 468 471 586 379 586 230 c 256
 586 81 468 -10 308 -10 c 256
 148 -10 30 81 30 230 c 256
231 230 m 256
 231 174 268 145 308 145 c 256
 348 145 385 174 385 230 c 256
 385 286 348 316 308 316 c 256
 268 316 231 286 231 230 c 256
116 531 m 257
 116 696 l 257
 500 696 l 257
 500 531 l 257
 116 531 l 257
EndSplineSet
EndChar

StartChar: Obreve
Encoding: 334 334 322
GlifName: O_breve
Width: 840
VWidth: 0
Flags: HMW
LayerCount: 2
Fore
SplineSet
263 350 m 256
 263 247 322 178 420 178 c 256
 518 178 577 247 577 350 c 256
 577 453 523 522 420 522 c 256
 322 522 263 453 263 350 c 256
30 350 m 256
 30 574 201 720 420 720 c 256
 644 720 810 574 810 350 c 256
 810 126 649 -30 420 -30 c 256
 191 -30 30 126 30 350 c 256
252 930 m 257
 368 930 l 257
 368 889 400 880 420 880 c 256
 440 880 472 889 472 930 c 257
 588 930 l 257
 588 841 525 780 420 780 c 256
 315 780 252 841 252 930 c 257
EndSplineSet
EndChar

StartChar: obreve
Encoding: 335 335 323
GlifName: obreve
Width: 616
VWidth: 0
Flags: HMW
LayerCount: 2
Fore
SplineSet
30 230 m 256
 30 379 148 471 308 471 c 256
 468 471 586 379 586 230 c 256
 586 81 468 -10 308 -10 c 256
 148 -10 30 81 30 230 c 256
231 230 m 256
 231 174 268 145 308 145 c 256
 348 145 385 174 385 230 c 256
 385 286 348 316 308 316 c 256
 268 316 231 286 231 230 c 256
140 681 m 257
 256 681 l 257
 256 640 288 631 308 631 c 256
 328 631 360 640 360 681 c 257
 476 681 l 257
 476 592 413 531 308 531 c 256
 203 531 140 592 140 681 c 257
EndSplineSet
EndChar

StartChar: Racute
Encoding: 340 340 324
GlifName: R_acute
Width: 700
VWidth: 0
Flags: HMW
LayerCount: 2
Fore
SplineSet
275 300 m 257
 500 300 l 257
 700 0 l 257
 445 0 l 257
 275 300 l 257
70 700 m 257
 290 700 l 257
 290 0 l 257
 70 0 l 257
 70 700 l 257
212 515 m 257
 212 700 l 257
 365 700 l 258
 570 700 658 599 658 460 c 256
 658 321 570 220 365 220 c 258
 212 220 l 257
 212 385 l 257
 345 385 l 258
 400 385 428 409 428 450 c 256
 428 491 400 515 345 515 c 258
 212 515 l 257
508 930 m 257
 328 780 l 257
 218 830 l 257
 368 990 l 257
 508 930 l 257
EndSplineSet
EndChar

StartChar: uni0156
Encoding: 342 342 325
GlifName: uni0156
Width: 700
VWidth: 0
Flags: HMW
LayerCount: 2
Fore
SplineSet
275 300 m 257
 500 300 l 257
 700 0 l 257
 445 0 l 257
 275 300 l 257
70 700 m 257
 290 700 l 257
 290 0 l 257
 70 0 l 257
 70 700 l 257
212 515 m 257
 212 700 l 257
 365 700 l 258
 570 700 658 599 658 460 c 256
 658 321 570 220 365 220 c 258
 212 220 l 257
 212 385 l 257
 345 385 l 258
 400 385 428 409 428 450 c 256
 428 491 400 515 345 515 c 258
 212 515 l 257
332 -60 m 257
 526 -94 l 257
 392 -344 l 257
 244 -319 l 257
 332 -60 l 257
EndSplineSet
EndChar

StartChar: uni0157
Encoding: 343 343 326
GlifName: uni0157
Width: 453
VWidth: 0
Flags: HMW
LayerCount: 2
Fore
SplineSet
240 460 m 257
 240 0 l 257
 50 0 l 257
 50 460 l 257
 240 460 l 257
369 262 m 257
 357 278 338 290 312 290 c 256
 277 290 240 261 240 195 c 257
 204 280 l 257
 204 389 282 472 367 472 c 256
 400 472 436 452 448 430 c 257
 369 262 l 257
92 -60 m 257
 286 -94 l 257
 152 -344 l 257
 4 -319 l 257
 92 -60 l 257
EndSplineSet
EndChar

StartChar: Scedilla
Encoding: 350 350 327
GlifName: S_cedilla
Width: 672
VWidth: 0
Flags: HMW
LayerCount: 2
Fore
SplineSet
178 266 m 257
 230 190 273 158 340 158 c 256
 380 158 404 169 404 199 c 256
 404 239 352 247 272 280 c 256
 204 308 74 363 74 510 c 256
 74 636 183 720 347 720 c 256
 520 720 599 635 627 564 c 257
 464 474 l 257
 434 522 398 539 358 539 c 256
 322 539 298 525 298 504 c 256
 298 468 376 452 458 423 c 256
 570 384 637 317 637 200 c 256
 637 43 515 -30 336 -30 c 256
 201 -30 74 43 30 158 c 257
 178 266 l 257
286 62 m 257
 426 56 l 257
 326.141 -71.5122 l 257
 341.9 -67.26 359.295 -66 379 -66 c 256
 423 -66 482 -102 482 -178 c 256
 482 -257 404 -296 336 -296 c 256
 269 -296 217 -287 159 -256 c 257
 212 -170 l 257
 241 -190 288 -196 304 -196 c 256
 338 -196 361 -188 361 -164 c 256
 361 -136 323 -134 294 -134 c 256
 284 -134 240 -135 197 -149 c 257
 286 62 l 257
EndSplineSet
EndChar

StartChar: scedilla
Encoding: 351 351 328
GlifName: scedilla
Width: 488
VWidth: 0
Flags: HMW
LayerCount: 2
Fore
SplineSet
78 183 m 257
 180 111 233 110 250 110 c 256
 266 110 275 120 275 133 c 256
 275 161 232 169 181 186 c 256
 114 209 52 242 52 334 c 256
 52 420 124 470 238 470 c 256
 321 470 386 446 454 415 c 257
 406 282 l 257
 361 320 301 346 264 346 c 256
 237 346 229 336 229 327 c 256
 229 297 279 293 341 270 c 256
 406 246 468 217 468 130 c 256
 468 21 404 -25 285 -25 c 256
 180 -25 99 1 15 46 c 257
 78 183 l 257
225 66.9336 m 257
 365 60.9336 l 257
 265.141 -66.5791 l 257
 280.899 -62.3271 298.295 -61.0664 318 -61.0664 c 256
 362 -61.0664 421 -97.0664 421 -173.066 c 256
 421 -252.066 343 -291.066 275 -291.066 c 256
 208 -291.066 156 -282.066 98 -251.066 c 257
 151 -165.066 l 257
 180 -185.066 227 -191.066 243 -191.066 c 256
 277 -191.066 300 -183.066 300 -159.066 c 256
 300 -131.066 262 -129.066 233 -129.066 c 256
 223 -129.066 179 -130.066 136 -144.066 c 257
 225 66.9336 l 257
EndSplineSet
EndChar

StartChar: Zcaron
Encoding: 381 381 329
GlifName: Z_caron
Width: 665
VWidth: 0
Flags: HMW
LayerCount: 2
Fore
SplineSet
70 505 m 257
 70 700 l 257
 655 700 l 257
 347 185 l 257
 610 185 l 257
 610 0 l 257
 5 0 l 257
 306 505 l 257
 70 505 l 257
362 930 m 257
 442 1010 l 257
 582 920 l 257
 362 780 l 257
 142 920 l 257
 282 1010 l 257
 362 930 l 257
EndSplineSet
EndChar

StartChar: zcaron
Encoding: 382 382 330
GlifName: zcaron
Width: 550
VWidth: 0
Flags: HMW
LayerCount: 2
Fore
SplineSet
305 681 m 257
 385 760 l 257
 525 670 l 257
 305 530 l 257
 85 670 l 257
 225 760 l 257
 305 681 l 257
231.848 285 m 257
 65 285 l 257
 65 460 l 257
 545 460 l 257
 346.739 175 l 257
 505 175 l 257
 505 0 l 257
 15 0 l 257
 231.848 285 l 257
EndSplineSet
EndChar

StartChar: Ydieresis
Encoding: 376 376 331
GlifName: Y_dieresis
Width: 720
VWidth: 0
Flags: HMW
LayerCount: 2
Fore
SplineSet
87 895 m 256
 87 954 135 993 195 993 c 256
 255 993 303 954 303 895 c 256
 303 836 255 797 195 797 c 256
 135 797 87 836 87 895 c 256
417 895 m 256
 417 954 465 993 525 993 c 256
 585 993 633 954 633 895 c 256
 633 836 585 797 525 797 c 256
 465 797 417 836 417 895 c 256
470 700 m 257
 725 700 l 257
 473 274.707 l 257
 473 0 l 257
 248 0 l 257
 248 273.019 l 257
 -5 700 l 257
 250 700 l 257
 360 474 l 257
 470 700 l 257
EndSplineSet
EndChar

StartChar: Scaron
Encoding: 352 352 332
GlifName: S_caron
Width: 672
VWidth: 0
Flags: HMW
LayerCount: 2
Fore
SplineSet
178 266 m 257
 230 190 273 158 340 158 c 256
 380 158 404 169 404 199 c 256
 404 239 352 247 272 280 c 256
 204 308 74 363 74 510 c 256
 74 636 183 720 347 720 c 256
 520 720 599 635 627 564 c 257
 464 474 l 257
 434 522 398 539 358 539 c 256
 322 539 298 525 298 504 c 256
 298 468 376 452 458 423 c 256
 570 384 637 317 637 200 c 256
 637 43 515 -30 336 -30 c 256
 201 -30 74 43 30 158 c 257
 178 266 l 257
347 930 m 257
 427 1010 l 257
 567 920 l 257
 347 780 l 257
 127 920 l 257
 267 1010 l 257
 347 930 l 257
EndSplineSet
EndChar

StartChar: scaron
Encoding: 353 353 333
GlifName: scaron
Width: 488
VWidth: 0
Flags: HMW
LayerCount: 2
Fore
SplineSet
78 183 m 257
 180 121 233 117 250 117 c 256
 263 117 275 118 275 131 c 256
 275 156 195 159 141 186 c 256
 82 216 34 247 34 329 c 256
 34 425 124 470 238 470 c 256
 321 470 386 446 454 415 c 257
 406 282 l 257
 361 320 291 339 254 339 c 256
 227 339 219 335 219 324 c 256
 219 302 279 293 341 270 c 256
 406 246 468 217 468 130 c 256
 468 21 404 -25 285 -25 c 256
 180 -25 99 1 15 46 c 257
 78 183 l 257
238 661 m 257
 318 741 l 257
 458 651 l 257
 238 511 l 257
 18 651 l 257
 158 741 l 257
 238 661 l 257
EndSplineSet
EndChar

StartChar: Lslash
Encoding: 321 321 334
GlifName: L_slash
Width: 585
VWidth: 0
Flags: HMW
LayerCount: 2
Fore
SplineSet
5 290 m 257
 -45 375 l 257
 375 665 l 257
 425 580 l 257
 5 290 l 257
70 700 m 257
 290 700 l 257
 290 185 l 257
 575 185 l 257
 575 0 l 257
 70 0 l 257
 70 700 l 257
EndSplineSet
EndChar

StartChar: lslash
Encoding: 322 322 335
GlifName: lslash
Width: 295
VWidth: 0
Flags: HMW
LayerCount: 2
Fore
SplineSet
-15 290 m 257
 -65 375 l 257
 315 635 l 257
 365 550 l 257
 -15 290 l 257
50 780 m 257
 245 780 l 257
 245 0 l 257
 50 0 l 257
 50 780 l 257
EndSplineSet
EndChar

StartChar: uni0218
Encoding: 536 536 336
GlifName: uni0218
Width: 672
VWidth: 0
Flags: HMW
LayerCount: 2
Fore
SplineSet
178 266 m 257
 230 190 273 158 340 158 c 256
 380 158 404 169 404 199 c 256
 404 239 352 247 272 280 c 256
 204 308 74 363 74 510 c 256
 74 636 183 720 347 720 c 256
 520 720 599 635 627 564 c 257
 464 474 l 257
 434 522 398 539 358 539 c 256
 322 539 298 525 298 504 c 256
 298 468 376 452 458 423 c 256
 570 384 637 317 637 200 c 256
 637 43 515 -30 336 -30 c 256
 201 -30 74 43 30 158 c 257
 178 266 l 257
242 -70 m 257
 438 -104 l 257
 302 -354 l 257
 154 -329 l 257
 242 -70 l 257
EndSplineSet
EndChar

StartChar: uni0219
Encoding: 537 537 337
GlifName: uni0219
Width: 488
VWidth: 0
Flags: HMW
LayerCount: 2
Fore
SplineSet
78 183 m 257
 180 121 233 117 250 117 c 256
 263 117 275 118 275 131 c 256
 275 156 195 159 141 186 c 256
 82 216 34 247 34 329 c 256
 34 425 124 470 238 470 c 256
 321 470 386 446 454 415 c 257
 406 282 l 257
 361 320 291 339 254 339 c 256
 227 339 219 335 219 324 c 256
 219 302 279 293 341 270 c 256
 406 246 468 217 468 130 c 256
 468 21 404 -25 285 -25 c 256
 180 -25 99 1 15 46 c 257
 78 183 l 257
192 -65 m 257
 386 -99 l 257
 252 -349 l 257
 104 -324 l 257
 192 -65 l 257
EndSplineSet
EndChar

StartChar: pi
Encoding: 960 960 338
GlifName: pi
Width: 640
VWidth: 0
Flags: HMW
LayerCount: 2
Fore
SplineSet
90 430 m 257
 270 430 l 257
 270 0 l 257
 90 0 l 257
 90 430 l 257
30 460 m 257
 600 460 l 257
 600 305 l 257
 30 305 l 257
 30 460 l 257
340 430 m 257
 520 430 l 257
 520 201 l 258
 520 135 543 131 573 131 c 257
 573 -9 l 257
 419 -9 340 -8 340 121 c 258
 340 430 l 257
EndSplineSet
EndChar

StartChar: trademark
Encoding: 8482 8482 339
GlifName: trademark
Width: 795
VWidth: 0
Flags: HMW
LayerCount: 2
Fore
SplineSet
28 602 m 257
 28 700 l 257
 338 700 l 257
 338 602 l 257
 238 602 l 257
 238 350 l 257
 128 350 l 257
 128 602 l 257
 28 602 l 257
626 588 m 257
 708 718 l 257
 773 350 l 257
 656 350 l 257
 626 588 l 257
398 718 m 257
 480 588 l 257
 450 350 l 257
 333 350 l 257
 398 718 l 257
708 718 m 257
 708 585 l 257
 553 382 l 257
 398 585 l 257
 398 718 l 257
 553 528 l 257
 708 718 l 257
EndSplineSet
EndChar

StartChar: uni2219
Encoding: 8729 8729 340
GlifName: uni2219
Width: 336
VWidth: 0
Flags: HMW
LayerCount: 2
Fore
SplineSet
50 460 m 256
 50 523 98 575 168 575 c 256
 238 575 286 523 286 460 c 256
 286 397 238 345 168 345 c 256
 98 345 50 397 50 460 c 256
EndSplineSet
EndChar

StartChar: agrave.alt
Encoding: 65537 -1 341
GlifName: agrave.alt
Width: 645
VWidth: 0
Flags: HMW
LayerCount: 2
Fore
SplineSet
400 460 m 257
 595 460 l 257
 595 0 l 257
 400 0 l 257
 400 460 l 257
30 230 m 256
 30 389 138 470 243 470 c 256
 358 470 446 379 446 230 c 256
 446 81 358 -10 243 -10 c 256
 138 -10 30 71 30 230 c 256
236 230 m 256
 236 179 273 140 318 140 c 256
 358 140 400 174 400 230 c 256
 400 286 358 320 318 320 c 256
 273 320 236 281 236 230 c 256
143 681 m 257
 283 741 l 257
 433 581 l 257
 323 531 l 257
 143 681 l 257
EndSplineSet
EndChar

StartChar: aacute.alt
Encoding: 65538 -1 342
GlifName: aacute.alt
Width: 645
VWidth: 0
Flags: HMW
LayerCount: 2
Fore
SplineSet
400 460 m 257
 595 460 l 257
 595 0 l 257
 400 0 l 257
 400 460 l 257
30 230 m 256
 30 389 138 470 243 470 c 256
 358 470 446 379 446 230 c 256
 446 81 358 -10 243 -10 c 256
 138 -10 30 71 30 230 c 256
236 230 m 256
 236 179 273 140 318 140 c 256
 358 140 400 174 400 230 c 256
 400 286 358 320 318 320 c 256
 273 320 236 281 236 230 c 256
483 681 m 257
 303 531 l 257
 193 581 l 257
 343 741 l 257
 483 681 l 257
EndSplineSet
EndChar

StartChar: acircumflex.alt
Encoding: 65539 -1 343
GlifName: acircumflex.alt
Width: 645
VWidth: 0
Flags: HMW
LayerCount: 2
Fore
SplineSet
400 460 m 257
 595 460 l 257
 595 0 l 257
 400 0 l 257
 400 460 l 257
30 230 m 256
 30 389 138 470 243 470 c 256
 358 470 446 379 446 230 c 256
 446 81 358 -10 243 -10 c 256
 138 -10 30 71 30 230 c 256
236 230 m 256
 236 179 273 140 318 140 c 256
 358 140 400 174 400 230 c 256
 400 286 358 320 318 320 c 256
 273 320 236 281 236 230 c 256
333 611 m 257
 253 531 l 257
 113 621 l 257
 333 761 l 257
 553 621 l 257
 413 531 l 257
 333 611 l 257
EndSplineSet
EndChar

StartChar: atilde.alt
Encoding: 65540 -1 344
GlifName: atilde.alt
Width: 645
VWidth: 0
Flags: HMW
LayerCount: 2
Fore
SplineSet
400 460 m 257
 595 460 l 257
 595 0 l 257
 400 0 l 257
 400 460 l 257
30 230 m 256
 30 389 138 470 243 470 c 256
 358 470 446 379 446 230 c 256
 446 81 358 -10 243 -10 c 256
 138 -10 30 71 30 230 c 256
236 230 m 256
 236 179 273 140 318 140 c 256
 358 140 400 174 400 230 c 256
 400 286 358 320 318 320 c 256
 273 320 236 281 236 230 c 256
128 614 m 257
 138 663 182 716 257 716 c 256
 324 716 343 661 401 661 c 256
 430 661 452 685 472 717 c 257
 558 624 l 257
 542 587 477 531 407 531 c 256
 352 531 308 588 256 588 c 256
 220 588 211 552 211 537 c 257
 128 614 l 257
EndSplineSet
EndChar

StartChar: adieresis.alt
Encoding: 65541 -1 345
GlifName: adieresis.alt
Width: 645
VWidth: 0
Flags: HMW
LayerCount: 2
Fore
SplineSet
400 460 m 257
 595 460 l 257
 595 0 l 257
 400 0 l 257
 400 460 l 257
30 230 m 256
 30 389 138 470 243 470 c 256
 358 470 446 379 446 230 c 256
 446 81 358 -10 243 -10 c 256
 138 -10 30 71 30 230 c 256
236 230 m 256
 236 179 273 140 318 140 c 256
 358 140 400 174 400 230 c 256
 400 286 358 320 318 320 c 256
 273 320 236 281 236 230 c 256
350 629 m 256
 350 688 398 727 458 727 c 256
 518 727 566 688 566 629 c 256
 566 570 518 531 458 531 c 256
 398 531 350 570 350 629 c 256
80 629 m 256
 80 688 128 727 188 727 c 256
 248 727 296 688 296 629 c 256
 296 570 248 531 188 531 c 256
 128 531 80 570 80 629 c 256
EndSplineSet
EndChar

StartChar: aring.alt
Encoding: 65542 -1 346
GlifName: aring.alt
Width: 645
VWidth: 0
Flags: HMW
LayerCount: 2
Fore
SplineSet
400 460 m 257
 595 460 l 257
 595 0 l 257
 400 0 l 257
 400 460 l 257
30 230 m 256
 30 389 138 470 243 470 c 256
 358 470 446 379 446 230 c 256
 446 81 358 -10 243 -10 c 256
 138 -10 30 71 30 230 c 256
236 230 m 256
 236 179 273 140 318 140 c 256
 358 140 400 174 400 230 c 256
 400 286 358 320 318 320 c 256
 273 320 236 281 236 230 c 256
184 656 m 256
 184 730 242 781 322 781 c 256
 402 781 462 730 462 656 c 256
 462 582 402 531 322 531 c 256
 242 531 184 582 184 656 c 256
279 656 m 256
 279 628 297 612 322 612 c 256
 347 612 366 628 366 656 c 256
 366 684 347 701 322 701 c 256
 297 701 279 684 279 656 c 256
EndSplineSet
EndChar

StartChar: amacron.alt
Encoding: 65543 -1 347
GlifName: amacron.alt
Width: 645
VWidth: 0
Flags: HMW
LayerCount: 2
Fore
SplineSet
400 460 m 257
 595 460 l 257
 595 0 l 257
 400 0 l 257
 400 460 l 257
30 230 m 256
 30 389 138 470 243 470 c 256
 358 470 446 379 446 230 c 256
 446 81 358 -10 243 -10 c 256
 138 -10 30 71 30 230 c 256
236 230 m 256
 236 179 273 140 318 140 c 256
 358 140 400 174 400 230 c 256
 400 286 358 320 318 320 c 256
 273 320 236 281 236 230 c 256
140.5 531 m 257
 140.5 696 l 257
 525.5 696 l 257
 525.5 531 l 257
 140.5 531 l 257
EndSplineSet
EndChar

StartChar: abreve.alt
Encoding: 65544 -1 348
GlifName: abreve.alt
Width: 645
VWidth: 0
Flags: HMW
LayerCount: 2
Fore
SplineSet
400 460 m 257
 595 460 l 257
 595 0 l 257
 400 0 l 257
 400 460 l 257
30 230 m 256
 30 389 138 470 243 470 c 256
 358 470 446 379 446 230 c 256
 446 81 358 -10 243 -10 c 256
 138 -10 30 71 30 230 c 256
236 230 m 256
 236 179 273 140 318 140 c 256
 358 140 400 174 400 230 c 256
 400 286 358 320 318 320 c 256
 273 320 236 281 236 230 c 256
155 681 m 257
 271 681 l 257
 271 640 303 631 323 631 c 256
 343 631 375 640 375 681 c 257
 491 681 l 257
 491 592 428 531 323 531 c 256
 218 531 155 592 155 681 c 257
EndSplineSet
EndChar

StartChar: aogonek.alt
Encoding: 65545 -1 349
GlifName: aogonek.alt
Width: 645
VWidth: 0
Flags: HMW
LayerCount: 2
Fore
SplineSet
400 460 m 257
 595 460 l 257
 595 0 l 257
 400 0 l 257
 400 460 l 257
30 230 m 256
 30 389 138 470 243 470 c 256
 358 470 446 379 446 230 c 256
 446 81 358 -10 243 -10 c 256
 138 -10 30 71 30 230 c 256
236 230 m 256
 236 179 273 140 318 140 c 256
 358 140 400 174 400 230 c 256
 400 286 358 320 318 320 c 256
 273 320 236 281 236 230 c 256
550 -100 m 257
 583 -180 l 257
 568 -200 538 -220 475 -220 c 256
 421 -220 362 -189 362 -120 c 256
 362 -51 434 -11 504 25 c 257
 545 0 l 257
 493 -32 472 -63 472 -90 c 256
 472 -108 480 -120 500 -120 c 256
 516 -120 536 -113 550 -100 c 257
EndSplineSet
EndChar

StartChar: dagger
Encoding: 8224 8224 350
GlifName: dagger
Width: 670
VWidth: 0
Flags: HMW
LayerCount: 2
Fore
SplineSet
90 540 m 257
 580 540 l 257
 580 385 l 257
 90 385 l 257
 90 540 l 257
245 700 m 257
 425 700 l 257
 425 -150 l 257
 245 -150 l 257
 245 700 l 257
EndSplineSet
EndChar

StartChar: daggerdbl
Encoding: 8225 8225 351
GlifName: daggerdbl
Width: 670
VWidth: 0
Flags: HMW
LayerCount: 2
Fore
SplineSet
90 180 m 257
 580 180 l 257
 580 25 l 257
 90 25 l 257
 90 180 l 257
90 540 m 257
 580 540 l 257
 580 385 l 257
 90 385 l 257
 90 540 l 257
245 700 m 257
 425 700 l 257
 425 -150 l 257
 245 -150 l 257
 245 700 l 257
EndSplineSet
EndChar

StartChar: ellipsis
Encoding: 8230 8230 352
GlifName: ellipsis
Width: 940
VWidth: 0
Flags: HMW
LayerCount: 2
Fore
SplineSet
50 85 m 256
 50 148 98 200 168 200 c 256
 238 200 286 148 286 85 c 256
 286 22 238 -30 168 -30 c 256
 98 -30 50 22 50 85 c 256
350 85 m 256
 350 148 398 200 468 200 c 256
 538 200 586 148 586 85 c 256
 586 22 538 -30 468 -30 c 256
 398 -30 350 22 350 85 c 256
650 85 m 256
 650 148 698 200 768 200 c 256
 838 200 886 148 886 85 c 256
 886 22 838 -30 768 -30 c 256
 698 -30 650 22 650 85 c 256
EndSplineSet
EndChar

StartChar: uniFF10
Encoding: 65296 65296 353
GlifName: uniF_F_10
Width: 660
VWidth: 0
Flags: HMW
LayerCount: 2
Fore
SplineSet
229 350 m 256
 229 237 271 170 329 170 c 256
 387 170 429 237 429 350 c 256
 429 463 387 530 329 530 c 256
 271 530 229 463 229 350 c 256
19 350 m 256
 19 589 145 715 329 715 c 256
 523 715 639 589 639 350 c 256
 639 111 523 -15 329 -15 c 256
 145 -15 19 111 19 350 c 256
EndSplineSet
EndChar

StartChar: uniFF11
Encoding: 65297 65297 354
GlifName: uniF_F_11
Width: 660
VWidth: 0
Flags: HMW
LayerCount: 2
Fore
SplineSet
105 459 m 257
 105 642 l 257
 500 715 l 257
 500 0 l 257
 290 0 l 257
 290 500 l 257
 105 459 l 257
EndSplineSet
EndChar

StartChar: uniFF12
Encoding: 65298 65298 355
GlifName: uniF_F_12
Width: 660
VWidth: 0
Flags: HMW
LayerCount: 2
Fore
SplineSet
5 0 m 257
 306 305 l 258
 368 372 406 410 406 465 c 256
 406 500 385 531 334 531 c 256
 284 531 250 486 250 430 c 257
 35 430 l 257
 35 579 137 716 342 716 c 256
 527 716 634 600 634 481 c 256
 634 404 592 346 528 297 c 258
 402 200 l 257
 659 200 l 257
 659 0 l 257
 5 0 l 257
EndSplineSet
EndChar

StartChar: uniFF13
Encoding: 65299 65299 356
GlifName: uniF_F_13
Width: 660
VWidth: 0
Flags: HMW
LayerCount: 2
Fore
SplineSet
275 335 m 257
 275 424 l 257
 345 424 397 460 397 501 c 256
 397 527 377 545 334 545 c 256
 289 545 258 517 258 476 c 257
 57 476 l 257
 57 610 165 715 335 715 c 256
 515 715 613 630 613 516 c 256
 613 382 460 335 275 335 c 257
325 -20 m 256
 135 -20 27 111 27 245 c 257
 243 245 l 257
 243 174 290 150 335 150 c 256
 380 150 417 164 417 215 c 256
 417 256 385 295 275 295 c 257
 275 399 l 257
 490 399 633 339 633 195 c 256
 633 71 525 -20 325 -20 c 256
EndSplineSet
EndChar

StartChar: uniFF14
Encoding: 65300 65300 357
GlifName: uniF_F_14
Width: 660
VWidth: 0
Flags: HMW
LayerCount: 2
Fore
SplineSet
8 115 m 257
 188 265 l 257
 451 265 l 256
 468 300 l 256
 646 300 l 257
 646 115 l 257
 8 115 l 257
208 195 m 257
 8 115 l 257
 376 700 l 257
 556 700 l 257
 556 0 l 257
 326 0 l 257
 326 151 l 256
 356 162 l 256
 356 421 l 257
 208 195 l 257
EndSplineSet
EndChar

StartChar: uniFF15
Encoding: 65301 65301 358
GlifName: uniF_F_15
Width: 660
VWidth: 0
Flags: HMW
LayerCount: 2
Fore
SplineSet
626 220 m 256
 626 51 456 -15 321 -15 c 256
 192 -15 98 12 22 42 c 257
 84 236 l 257
 155 196 224 185 261 185 c 256
 336 185 383 199 383 250 c 256
 383 301 316 310 261 310 c 256
 214 310 124 304 53 277 c 257
 212 373 l 257
 268 433 332 445 411 445 c 256
 516 445 626 369 626 220 c 256
313 510 m 257
 252 357 l 257
 53 277 l 257
 154 700 l 257
 604 700 l 257
 604 510 l 257
 313 510 l 257
EndSplineSet
EndChar

StartChar: uniFF16
Encoding: 65302 65302 359
GlifName: uniF_F_16
Width: 660
VWidth: 0
Flags: HMW
LayerCount: 2
Fore
SplineSet
235 255 m 256
 235 199 276 165 329 165 c 256
 382 165 423 199 423 255 c 256
 423 311 382 347 329 347 c 256
 276 347 235 311 235 255 c 256
301 695 m 257
 580 695 l 257
 349 464 l 257
 297 437 l 257
 341 475 367 483 420 483 c 256
 519 483 642 404 642 255 c 256
 642 66 499 -20 329 -20 c 256
 159 -20 16 66 16 255 c 256
 16 342 63 412 120 480 c 258
 301 695 l 257
EndSplineSet
EndChar

StartChar: uniFF17
Encoding: 65303 65303 360
GlifName: uniF_F_17
Width: 660
VWidth: 0
Flags: HMW
LayerCount: 2
Fore
SplineSet
27 495 m 257
 27 700 l 257
 647 700 l 257
 307 0 l 257
 68 0 l 257
 326 495 l 257
 27 495 l 257
EndSplineSet
EndChar

StartChar: uniFF18
Encoding: 65304 65304 361
GlifName: uniF_F_18
Width: 660
VWidth: 0
Flags: HMW
LayerCount: 2
Fore
SplineSet
87 531 m 256
 87 660 210 720 350 720 c 256
 490 720 613 660 613 531 c 256
 613 392 465 335 350 335 c 256
 235 335 87 392 87 531 c 256
293 511 m 256
 293 475 315 450 350 450 c 256
 385 450 407 475 407 511 c 256
 407 547 385 570 350 570 c 256
 315 570 293 547 293 511 c 256
62 190 m 256
 62 349 235 400 350 400 c 256
 465 400 638 349 638 190 c 256
 638 51 495 -20 350 -20 c 256
 205 -20 62 51 62 190 c 256
283 225 m 256
 283 179 310 155 350 155 c 256
 390 155 417 179 417 225 c 256
 417 261 390 290 350 290 c 256
 310 290 283 261 283 225 c 256
EndSplineSet
EndChar

StartChar: uniFF19
Encoding: 65305 65305 362
GlifName: uniF_F_19
Width: 660
VWidth: 0
Flags: HMW
LayerCount: 2
Fore
SplineSet
423 445 m 256
 423 501 382 535 329 535 c 256
 276 535 235 501 235 445 c 256
 235 389 276 353 329 353 c 256
 382 353 423 389 423 445 c 256
357 5 m 257
 78 5 l 257
 309 236 l 257
 361 263 l 257
 317 225 291 217 238 217 c 256
 139 217 16 296 16 445 c 256
 16 634 159 720 329 720 c 256
 499 720 642 634 642 445 c 256
 642 358 595 288 538 220 c 258
 357 5 l 257
EndSplineSet
EndChar

StartChar: caron
Encoding: 711 711 363
GlifName: caron
Width: 480
VWidth: 0
Flags: HMW
LayerCount: 2
Fore
SplineSet
240 689 m 257
 320 769 l 257
 460 679 l 257
 240 539 l 257
 20 679 l 257
 160 769 l 257
 240 689 l 257
EndSplineSet
EndChar

StartChar: napostrophe
Encoding: 329 329 364
GlifName: napostrophe
Width: 815
VWidth: 0
Flags: HMW
LayerCount: 2
Fore
SplineSet
455 460 m 257
 455 0 l 257
 260 0 l 257
 260 460 l 257
 455 460 l 257
560 280 m 258
 560 321 552 346 512 346 c 256
 477 346 455 326 455 280 c 257
 429 270 l 257
 429 379 472 471 597 471 c 256
 722 471 765 409 765 300 c 258
 765 0 l 257
 560 0 l 257
 560 280 l 258
100 700 m 257
 295 700 l 257
 190 430 l 257
 50 430 l 257
 100 700 l 257
EndSplineSet
EndChar

StartChar: IJ
Encoding: 306 306 365
GlifName: I_J_
Width: 705
VWidth: 0
Flags: HMW
LayerCount: 2
Fore
SplineSet
245 -39 m 257
 269 -54 301 -70 327 -70 c 256
 357 -70 390 -51 390 5 c 258
 390 700 l 257
 635 700 l 257
 635 -50 l 258
 635 -199 501 -250 357 -250 c 256
 264 -250 179 -220 124 -190 c 257
 245 -39 l 257
70 700 m 257
 295 700 l 257
 295 0 l 257
 70 0 l 257
 70 700 l 257
EndSplineSet
EndChar

StartChar: ij
Encoding: 307 307 366
GlifName: ij
Width: 566
VWidth: 0
Flags: HMW
LayerCount: 2
Fore
SplineSet
315 622 m 256
 315 681 363 720 423 720 c 256
 483 720 531 681 531 622 c 256
 531 563 483 524 423 524 c 256
 363 524 315 563 315 622 c 256
237 -55 m 257
 250 -70 263 -80 282 -80 c 256
 312 -80 330 -61 330 -25 c 258
 330 460 l 257
 515 460 l 257
 515 -80 l 258
 515 -179 451 -250 317 -250 c 256
 234 -250 191 -213 166 -193 c 257
 237 -55 l 257
35 622 m 256
 35 681 83 720 143 720 c 256
 203 720 251 681 251 622 c 256
 251 563 203 524 143 524 c 256
 83 524 35 563 35 622 c 256
49 460 m 257
 236 460 l 257
 236 0 l 257
 49 0 l 257
 49 460 l 257
EndSplineSet
EndChar

StartChar: uni0237
Encoding: 567 567 367
GlifName: uni0237
Width: 285
VWidth: 0
Flags: HMW
LayerCount: 2
Fore
SplineSet
-43 -55 m 257
 -30 -70 -17 -80 2 -80 c 256
 32 -80 50 -61 50 -25 c 258
 50 460 l 257
 235 460 l 257
 235 -80 l 258
 235 -179 171 -250 37 -250 c 256
 -46 -250 -89 -213 -114 -193 c 257
 -43 -55 l 257
EndSplineSet
EndChar

StartChar: Sacute
Encoding: 346 346 368
GlifName: S_acute
Width: 672
VWidth: 0
Flags: HMW
LayerCount: 2
Fore
SplineSet
178 266 m 257
 230 190 273 158 340 158 c 256
 380 158 404 169 404 199 c 256
 404 239 352 247 272 280 c 256
 204 308 74 363 74 510 c 256
 74 636 183 720 347 720 c 256
 520 720 599 635 627 564 c 257
 464 474 l 257
 434 522 398 539 358 539 c 256
 322 539 298 525 298 504 c 256
 298 468 376 452 458 423 c 256
 570 384 637 317 637 200 c 256
 637 43 515 -30 336 -30 c 256
 201 -30 74 43 30 158 c 257
 178 266 l 257
527 930 m 257
 347 780 l 257
 237 830 l 257
 387 990 l 257
 527 930 l 257
EndSplineSet
EndChar

StartChar: sacute
Encoding: 347 347 369
GlifName: sacute
Width: 488
VWidth: 0
Flags: HMW
LayerCount: 2
Fore
SplineSet
78 183 m 257
 180 121 233 117 250 117 c 256
 263 117 275 118 275 131 c 256
 275 156 195 159 141 186 c 256
 82 216 34 247 34 329 c 256
 34 425 124 470 238 470 c 256
 321 470 386 446 454 415 c 257
 406 282 l 257
 361 320 291 339 254 339 c 256
 227 339 219 335 219 324 c 256
 219 302 279 293 341 270 c 256
 406 246 468 217 468 130 c 256
 468 21 404 -25 285 -25 c 256
 180 -25 99 1 15 46 c 257
 78 183 l 257
418 681 m 257
 238 531 l 257
 128 581 l 257
 278 741 l 257
 418 681 l 257
EndSplineSet
EndChar

StartChar: Scircumflex
Encoding: 348 348 370
GlifName: S_circumflex
Width: 672
VWidth: 0
Flags: HMW
LayerCount: 2
Fore
SplineSet
178 266 m 257
 230 190 273 158 340 158 c 256
 380 158 404 169 404 199 c 256
 404 239 352 247 272 280 c 256
 204 308 74 363 74 510 c 256
 74 636 183 720 347 720 c 256
 520 720 599 635 627 564 c 257
 464 474 l 257
 434 522 398 539 358 539 c 256
 322 539 298 525 298 504 c 256
 298 468 376 452 458 423 c 256
 570 384 637 317 637 200 c 256
 637 43 515 -30 336 -30 c 256
 201 -30 74 43 30 158 c 257
 178 266 l 257
347 860 m 257
 267 780 l 257
 127 870 l 257
 347 1010 l 257
 567 870 l 257
 427 780 l 257
 347 860 l 257
EndSplineSet
EndChar

StartChar: scircumflex
Encoding: 349 349 371
GlifName: scircumflex
Width: 488
VWidth: 0
Flags: HMW
LayerCount: 2
Fore
SplineSet
78 183 m 257
 180 121 233 117 250 117 c 256
 263 117 275 118 275 131 c 256
 275 156 195 159 141 186 c 256
 82 216 34 247 34 329 c 256
 34 425 124 470 238 470 c 256
 321 470 386 446 454 415 c 257
 406 282 l 257
 361 320 291 339 254 339 c 256
 227 339 219 335 219 324 c 256
 219 302 279 293 341 270 c 256
 406 246 468 217 468 130 c 256
 468 21 404 -25 285 -25 c 256
 180 -25 99 1 15 46 c 257
 78 183 l 257
258 611 m 257
 178 531 l 257
 38 621 l 257
 258 761 l 257
 478 621 l 257
 338 531 l 257
 258 611 l 257
EndSplineSet
EndChar

StartChar: uni1E9E
Encoding: 7838 7838 372
Width: 996
VWidth: 0
Flags: HMW
LayerCount: 2
Fore
SplineSet
623 -20 m 256
 408 -20 345 136 345 245 c 257
 531 245 l 257
 531 189 566 150 623 150 c 256
 683 150 704 169 704 215 c 256
 704 271 653 295 563 295 c 257
 563 380 l 257
 768 380 921 324 921 185 c 256
 921 66 798 -20 623 -20 c 256
563 345 m 257
 563 425 l 257
 633 425 674 445 674 491 c 256
 674 527 638 548 538 548 c 256
 413 548 300 477 300 306 c 258
 300 0 l 257
 80 0 l 257
 80 346 l 258
 80 555 252 710 527 710 c 256
 777 710 901 628 901 514 c 256
 901 405 768 345 563 345 c 257
EndSplineSet
EndChar

StartChar: Zacute
Encoding: 377 377 373
Width: 665
VWidth: 0
Flags: HW
LayerCount: 2
Fore
SplineSet
70 505 m 257
 70 700 l 257
 655 700 l 257
 347 185 l 257
 610 185 l 257
 610 0 l 257
 5 0 l 257
 306 505 l 257
 70 505 l 257
542 930 m 257
 362 780 l 257
 252 830 l 257
 402 990 l 257
 542 930 l 257
EndSplineSet
EndChar

StartChar: zacute
Encoding: 378 378 374
Width: 560
VWidth: 0
Flags: HW
LayerCount: 2
Fore
SplineSet
230 285 m 257
 65 285 l 257
 65 460 l 257
 545 460 l 257
 349 175 l 257
 505 175 l 257
 505 0 l 257
 15 0 l 257
 230 285 l 257
485 681 m 257
 305 531 l 257
 195 581 l 257
 345 741 l 257
 485 681 l 257
EndSplineSet
EndChar

StartChar: Zdotaccent
Encoding: 379 379 375
Width: 665
VWidth: 0
Flags: HW
LayerCount: 2
Fore
SplineSet
70 505 m 257
 70 700 l 257
 655 700 l 257
 347 185 l 257
 610 185 l 257
 610 0 l 257
 5 0 l 257
 306 505 l 257
 70 505 l 257
254 878 m 256
 254 937 302 976 362 976 c 256
 422 976 470 937 470 878 c 256
 470 819 422 780 362 780 c 256
 302 780 254 819 254 878 c 256
EndSplineSet
EndChar

StartChar: zdotaccent
Encoding: 380 380 376
Width: 560
VWidth: 0
Flags: HW
LayerCount: 2
Fore
SplineSet
230 285 m 257
 65 285 l 257
 65 460 l 257
 545 460 l 257
 349 175 l 257
 505 175 l 257
 505 0 l 257
 15 0 l 257
 230 285 l 257
197 629 m 256
 197 688 245 727 305 727 c 256
 365 727 413 688 413 629 c 256
 413 570 365 531 305 531 c 256
 245 531 197 570 197 629 c 256
EndSplineSet
EndChar

StartChar: Tcaron
Encoding: 356 356 377
Width: 620
VWidth: 0
Flags: HW
LayerCount: 2
Fore
SplineSet
0 505 m 257
 0 700 l 257
 620 700 l 257
 620 505 l 257
 420 505 l 257
 420 0 l 257
 200 0 l 257
 200 505 l 257
 0 505 l 257
310 930 m 257
 390 1010 l 257
 530 920 l 257
 310 780 l 257
 90 920 l 257
 230 1010 l 257
 310 930 l 257
EndSplineSet
EndChar

StartChar: tcaron
Encoding: 357 357 378
Width: 565
VWidth: 0
Flags: HW
LayerCount: 2
Fore
SplineSet
5 460 m 257
 360 460 l 257
 360 305 l 257
 5 305 l 257
 5 460 l 257
90 620 m 257
 275 620 l 257
 275 0 l 257
 90 0 l 257
 90 620 l 257
432 772 m 257
 627 738 l 257
 492 488 l 257
 344 513 l 257
 432 772 l 257
EndSplineSet
EndChar

StartChar: Uring
Encoding: 366 366 379
Width: 746
VWidth: 0
Flags: HW
LayerCount: 2
Fore
SplineSet
65 700 m 257
 285 700 l 257
 285 250 l 258
 285 194 313 155 373 155 c 256
 433 155 461 194 461 250 c 258
 461 700 l 257
 681 700 l 257
 681 230 l 258
 681 31 538 -40 373 -40 c 256
 208 -40 65 31 65 230 c 258
 65 700 l 257
234 905 m 256
 234 979 292 1030 372 1030 c 256
 452 1030 512 979 512 905 c 256
 512 831 452 780 372 780 c 256
 292 780 234 831 234 905 c 256
329 905 m 256
 329 877 347 861 372 861 c 256
 397 861 416 877 416 905 c 256
 416 933 397 950 372 950 c 256
 347 950 329 933 329 905 c 256
EndSplineSet
EndChar

StartChar: uring
Encoding: 367 367 380
Width: 605
VWidth: 0
Flags: HW
LayerCount: 2
Fore
SplineSet
360 0 m 257
 360 460 l 257
 555 460 l 257
 555 0 l 257
 360 0 l 257
255 180 m 258
 255 139 263 114 303 114 c 256
 338 114 360 134 360 180 c 257
 386 190 l 257
 386 81 343 -11 218 -11 c 256
 93 -11 50 51 50 160 c 258
 50 460 l 257
 255 460 l 257
 255 180 l 258
163.5 656 m 256
 163.5 730 221.5 781 301.5 781 c 256
 381.5 781 441.5 730 441.5 656 c 256
 441.5 582 381.5 531 301.5 531 c 256
 221.5 531 163.5 582 163.5 656 c 256
258.5 656 m 256
 258.5 628 276.5 612 301.5 612 c 256
 326.5 612 345.5 628 345.5 656 c 256
 345.5 684 326.5 701 301.5 701 c 256
 276.5 701 258.5 684 258.5 656 c 256
EndSplineSet
EndChar

StartChar: Utilde
Encoding: 360 360 381
Width: 746
VWidth: 0
Flags: HW
LayerCount: 2
Fore
SplineSet
65 700 m 257
 285 700 l 257
 285 250 l 258
 285 194 313 155 373 155 c 256
 433 155 461 194 461 250 c 258
 461 700 l 257
 681 700 l 257
 681 230 l 258
 681 31 538 -40 373 -40 c 256
 208 -40 65 31 65 230 c 258
 65 700 l 257
158 863 m 257
 168 912 212 965 287 965 c 256
 354 965 373 910 431 910 c 256
 460 910 482 934 502 966 c 257
 588 873 l 257
 572 836 507 780 437 780 c 256
 382 780 338 837 286 837 c 256
 250 837 241 801 241 786 c 257
 158 863 l 257
EndSplineSet
EndChar

StartChar: utilde
Encoding: 361 361 382
Width: 605
VWidth: 0
Flags: HW
LayerCount: 2
Fore
SplineSet
360 0 m 257
 360 460 l 257
 555 460 l 257
 555 0 l 257
 360 0 l 257
255 180 m 258
 255 139 263 114 303 114 c 256
 338 114 360 134 360 180 c 257
 386 190 l 257
 386 81 343 -11 218 -11 c 256
 93 -11 50 51 50 160 c 258
 50 460 l 257
 255 460 l 257
 255 180 l 258
87.5 614 m 257
 97.5 663 141.5 716 216.5 716 c 256
 283.5 716 302.5 661 360.5 661 c 256
 389.5 661 411.5 685 431.5 717 c 257
 517.5 624 l 257
 501.5 587 436.5 531 366.5 531 c 256
 311.5 531 267.5 588 215.5 588 c 256
 179.5 588 170.5 552 170.5 537 c 257
 87.5 614 l 257
EndSplineSet
EndChar

StartChar: Umacron
Encoding: 362 362 383
Width: 746
VWidth: 0
Flags: HW
LayerCount: 2
Fore
SplineSet
65 700 m 257
 285 700 l 257
 285 250 l 258
 285 194 313 155 373 155 c 256
 433 155 461 194 461 250 c 258
 461 700 l 257
 681 700 l 257
 681 230 l 258
 681 31 538 -40 373 -40 c 256
 208 -40 65 31 65 230 c 258
 65 700 l 257
180.5 780 m 257
 180.5 945 l 257
 565.5 945 l 257
 565.5 780 l 257
 180.5 780 l 257
EndSplineSet
EndChar

StartChar: umacron
Encoding: 363 363 384
Width: 605
VWidth: 0
Flags: HW
LayerCount: 2
Fore
SplineSet
360 0 m 257
 360 460 l 257
 555 460 l 257
 555 0 l 257
 360 0 l 257
255 180 m 258
 255 139 263 114 303 114 c 256
 338 114 360 134 360 180 c 257
 386 190 l 257
 386 81 343 -11 218 -11 c 256
 93 -11 50 51 50 160 c 258
 50 460 l 257
 255 460 l 257
 255 180 l 258
110 531 m 257
 110 696 l 257
 495 696 l 257
 495 531 l 257
 110 531 l 257
EndSplineSet
EndChar

StartChar: Ubreve
Encoding: 364 364 385
Width: 746
VWidth: 0
Flags: HW
LayerCount: 2
Fore
SplineSet
65 700 m 257
 285 700 l 257
 285 250 l 258
 285 194 313 155 373 155 c 256
 433 155 461 194 461 250 c 258
 461 700 l 257
 681 700 l 257
 681 230 l 258
 681 31 538 -40 373 -40 c 256
 208 -40 65 31 65 230 c 258
 65 700 l 257
205 930 m 257
 321 930 l 257
 321 889 353 880 373 880 c 256
 393 880 425 889 425 930 c 257
 541 930 l 257
 541 841 478 780 373 780 c 256
 268 780 205 841 205 930 c 257
EndSplineSet
EndChar

StartChar: ubreve
Encoding: 365 365 386
Width: 605
VWidth: 0
Flags: HW
LayerCount: 2
Fore
SplineSet
360 0 m 257
 360 460 l 257
 555 460 l 257
 555 0 l 257
 360 0 l 257
255 180 m 258
 255 139 263 114 303 114 c 256
 338 114 360 134 360 180 c 257
 386 190 l 257
 386 81 343 -11 218 -11 c 256
 93 -11 50 51 50 160 c 258
 50 460 l 257
 255 460 l 257
 255 180 l 258
134.5 681 m 257
 250.5 681 l 257
 250.5 640 282.5 631 302.5 631 c 256
 322.5 631 354.5 640 354.5 681 c 257
 470.5 681 l 257
 470.5 592 407.5 531 302.5 531 c 256
 197.5 531 134.5 592 134.5 681 c 257
EndSplineSet
EndChar

StartChar: uni0123
Encoding: 291 291 387
Width: 570
VWidth: 0
Flags: HW
LayerCount: 2
Fore
SplineSet
40 -35 m 257
 227 -35 l 257
 235 -86 266 -95 306 -95 c 256
 366 -95 400 -56 400 10 c 258
 400 460 l 257
 585 460 l 257
 585 10 l 258
 585 -179 471 -245 316 -245 c 256
 121 -245 58 -159 40 -35 c 257
30 240 m 256
 30 399 138 470 243 470 c 256
 358 470 446 389 446 240 c 256
 446 91 358 10 243 10 c 256
 138 10 30 81 30 240 c 256
236 240 m 256
 236 189 273 160 318 160 c 256
 358 160 400 184 400 240 c 256
 400 296 358 320 318 320 c 256
 273 320 236 291 236 240 c 256
326.545898438 538.984375 m 257
 139.11328125 602.624023438 l 257
 311.022460938 828.837890625 l 257
 453.40234375 781.33203125 l 257
 326.545898438 538.984375 l 257
EndSplineSet
EndChar

StartChar: Hbar
Encoding: 294 294 388
Width: 830
VWidth: 0
Flags: HW
LayerCount: 2
Fore
SplineSet
117 265 m 257
 117 460 l 257
 677 460 l 257
 677 265 l 257
 117 265 l 257
540 700 m 257
 760 700 l 257
 760 0 l 257
 540 0 l 257
 540 700 l 257
70 700 m 257
 290 700 l 257
 290 0 l 257
 70 0 l 257
 70 700 l 257
5 535 m 257
 5 660 l 257
 825 660 l 261
 825 535 l 261
 5 535 l 257
EndSplineSet
EndChar

StartChar: hbar
Encoding: 295 295 389
Width: 595
VWidth: 0
Flags: HW
LayerCount: 2
Fore
SplineSet
245 780 m 257
 245 0 l 257
 50 0 l 257
 50 780 l 257
 245 780 l 257
350 280 m 258
 350 321 342 346 302 346 c 256
 267 346 245 326 245 280 c 257
 219 280 l 257
 219 389 262 481 387 481 c 256
 512 481 545 419 545 310 c 258
 545 0 l 257
 350 0 l 257
 350 280 l 258
5 580 m 257
 5 745 l 257
 348.200195312 745 l 257
 348.200195312 580 l 257
 5 580 l 257
EndSplineSet
EndChar

StartChar: uni0400
Encoding: 1024 1024 390
Width: 635
VWidth: 0
Flags: HW
LayerCount: 2
Fore
SplineSet
222 0 m 257
 222 175 l 257
 575 175 l 257
 575 0 l 257
 222 0 l 257
222 525 m 257
 222 700 l 257
 575 700 l 257
 575 525 l 257
 222 525 l 257
222 275 m 257
 222 445 l 257
 555 445 l 257
 555 275 l 257
 222 275 l 257
70 700 m 257
 280 700 l 257
 280 0 l 257
 70 0 l 257
 70 700 l 257
142.5 930 m 257
 282.5 990 l 257
 432.5 830 l 257
 322.5 780 l 257
 142.5 930 l 257
EndSplineSet
EndChar

StartChar: uni0401
Encoding: 1025 1025 391
Width: 635
VWidth: 0
Flags: HW
LayerCount: 2
Fore
SplineSet
222 0 m 257
 222 175 l 257
 575 175 l 257
 575 0 l 257
 222 0 l 257
222 525 m 257
 222 700 l 257
 575 700 l 257
 575 525 l 257
 222 525 l 257
222 275 m 257
 222 445 l 257
 555 445 l 257
 555 275 l 257
 222 275 l 257
70 700 m 257
 280 700 l 257
 280 0 l 257
 70 0 l 257
 70 700 l 257
349.5 878 m 256
 349.5 937 397.5 976 457.5 976 c 256
 517.5 976 565.5 937 565.5 878 c 256
 565.5 819 517.5 780 457.5 780 c 256
 397.5 780 349.5 819 349.5 878 c 256
79.5 878 m 256
 79.5 937 127.5 976 187.5 976 c 256
 247.5 976 295.5 937 295.5 878 c 256
 295.5 819 247.5 780 187.5 780 c 256
 127.5 780 79.5 819 79.5 878 c 256
EndSplineSet
EndChar

StartChar: uni0403
Encoding: 1027 1027 392
Width: 550
VWidth: 0
Flags: HW
LayerCount: 2
Fore
SplineSet
80 700 m 1
 540 700 l 5
 540 505 l 5
 300 505 l 1
 300 0 l 1
 80 0 l 1
 80 700 l 1
490 930 m 257
 310 780 l 257
 200 830 l 257
 350 990 l 257
 490 930 l 257
EndSplineSet
EndChar

StartChar: uni040C
Encoding: 1036 1036 393
Width: 781
VWidth: 0
Flags: HW
LayerCount: 2
Fore
SplineSet
70 700 m 257
 300 700 l 257
 300 0 l 257
 70 0 l 257
 70 700 l 257
515 700 m 257
 771 700 l 257
 498 372 l 257
 786 0 l 257
 520 0 l 257
 237 365 l 257
 515 700 l 257
600.5 930 m 257
 420.5 780 l 257
 310.5 830 l 257
 460.5 990 l 257
 600.5 930 l 257
EndSplineSet
EndChar

StartChar: uni040D
Encoding: 1037 1037 394
Width: 805
VWidth: 0
Flags: HW
LayerCount: 2
Fore
SplineSet
730 475 m 1
 70 -35 l 1
 75 225 l 1
 735 735 l 1
 730 475 l 1
280 700 m 1
 280 165 l 1
 70 -35 l 1
 70 700 l 1
 280 700 l 1
735 735 m 1
 735 0 l 1
 525 0 l 1
 525 525 l 1
 735 735 l 1
245 915 m 261
 385 975 l 261
 535 815 l 261
 425 765 l 261
 245 915 l 261
EndSplineSet
EndChar

StartChar: uni040E
Encoding: 1038 1038 395
Width: 630
VWidth: 0
Flags: HW
LayerCount: 2
Fore
SplineSet
645 700 m 257
 316 0 l 257
 106 0 l 257
 203 217 l 261
 -15 700 l 257
 215 700 l 257
 345 315 l 257
 260 315 l 257
 430 700 l 257
 645 700 l 257
147 930 m 257
 263 930 l 257
 263 889 295 880 315 880 c 256
 335 880 367 889 367 930 c 257
 483 930 l 257
 483 841 420 780 315 780 c 256
 210 780 147 841 147 930 c 257
EndSplineSet
EndChar

StartChar: uni0410
Encoding: 1040 1040 396
Width: 780
VWidth: 0
Flags: HW
LayerCount: 2
Fore
SplineSet
207 90 m 257
 207 248 l 257
 577 248 l 257
 577 90 l 257
 207 90 l 257
390 382 m 257
 304 189 l 257
 321 139 l 257
 245 0 l 257
 -5 0 l 257
 390 750 l 257
 785 0 l 257
 535 0 l 257
 461 132 l 257
 476 189 l 257
 390 382 l 257
EndSplineSet
EndChar

StartChar: uni0411
Encoding: 1041 1041 397
Width: 748
VWidth: 0
Flags: HW
LayerCount: 2
Fore
SplineSet
127 275 m 1
 127 445 l 1
 470 445 l 2
 605 445 708 354 708 225 c 0
 708 96 605 0 470 0 c 2
 127 0 l 1
 127 175 l 1
 410 175 l 2
 460 175 483 189 483 225 c 0
 483 261 460 275 410 275 c 2
 127 275 l 1
80 700 m 1
 655 700 l 1
 655 525 l 1
 305 525 l 1
 305 0 l 1
 80 0 l 1
 80 700 l 1
EndSplineSet
EndChar

StartChar: uni0412
Encoding: 1042 1042 398
Width: 728
VWidth: 0
Flags: HW
LayerCount: 2
Fore
SplineSet
232 335 m 257
 232 425 l 257
 345 425 l 258
 395 425 418 447 418 483 c 256
 418 519 395 535 345 535 c 258
 290 535 l 257
 290 165 l 257
 365 165 l 258
 415 165 458 171 458 227 c 256
 458 273 415 280 365 280 c 258
 232 280 l 257
 232 400 l 257
 395 400 l 258
 530 400 688 341 688 192 c 256
 688 53 580 0 395 0 c 258
 70 0 l 257
 70 700 l 257
 375 700 l 258
 530 700 648 639 648 520 c 256
 648 401 530 335 375 335 c 258
 232 335 l 257
EndSplineSet
EndChar

StartChar: uni0413
Encoding: 1043 1043 399
Width: 550
VWidth: 0
Flags: HW
LayerCount: 2
Fore
SplineSet
80 700 m 1
 540 700 l 1
 540 505 l 1
 300 505 l 1
 300 0 l 1
 80 0 l 1
 80 700 l 1
EndSplineSet
EndChar

StartChar: uni0414
Encoding: 1044 1044 400
Width: 935
VWidth: 0
Flags: HW
LayerCount: 2
Fore
SplineSet
465 362 m 5
 350 30 l 1
 90 30 l 1
 465 735 l 1
 840 30 l 1
 580 30 l 1
 465 362 l 5
665 0 m 1
 265 0 l 1
 265 -110 l 1
 40 -110 l 1
 40 185 l 1
 890 185 l 1
 890 -110 l 1
 665 -110 l 1
 665 0 l 1
EndSplineSet
EndChar

StartChar: uni0415
Encoding: 1045 1045 401
Width: 635
VWidth: 0
Flags: HW
LayerCount: 2
Fore
SplineSet
222 0 m 257
 222 175 l 257
 575 175 l 257
 575 0 l 257
 222 0 l 257
222 525 m 257
 222 700 l 257
 575 700 l 257
 575 525 l 257
 222 525 l 257
222 275 m 257
 222 445 l 257
 555 445 l 257
 555 275 l 257
 222 275 l 257
70 700 m 257
 280 700 l 257
 280 0 l 257
 70 0 l 257
 70 700 l 257
EndSplineSet
EndChar

StartChar: uni0416
Encoding: 1046 1046 402
Width: 1200
VWidth: 0
Flags: HW
LayerCount: 2
Fore
SplineSet
265 700 m 1
 546 370 l 1
 250 0 l 1
 -5 0 l 1
 293 372 l 1
 10 700 l 1
 265 700 l 1
485 700 m 1
 715 700 l 1
 715 0 l 1
 485 0 l 1
 485 700 l 1
925 700 m 1
 1190 700 l 1
 907 372 l 1
 1205 0 l 1
 940 0 l 1
 654 370 l 1
 925 700 l 1
EndSplineSet
EndChar

StartChar: uni0417
Encoding: 1047 1047 403
Width: 706
VWidth: 0
Flags: HW
LayerCount: 2
Fore
SplineSet
318 335 m 257
 318 424 l 257
 408 424 450 450 450 491 c 256
 450 522 420 545 367 545 c 260
 302 545 271 517 271 476 c 257
 70 476 l 257
 70 610 168 715 368 715 c 256
 568 715 666 630 666 516 c 256
 666 382 503 335 318 335 c 257
378 -20 m 260
 138 -20 40 111 40 245 c 257
 256 245 l 257
 256 174 313 150 368 150 c 256
 423 150 470 164 470 215 c 256
 470 256 438 295 318 295 c 257
 318 399 l 257
 533 399 686 339 686 195 c 256
 686 71 588 -20 378 -20 c 260
EndSplineSet
EndChar

StartChar: uni0418
Encoding: 1048 1048 404
Width: 805
VWidth: 0
Flags: HW
LayerCount: 2
Fore
SplineSet
730 475 m 1
 70 -35 l 1
 75 225 l 1
 735 735 l 1
 730 475 l 1
280 700 m 1
 280 165 l 1
 70 -35 l 1
 70 700 l 1
 280 700 l 1
735 735 m 1
 735 0 l 1
 525 0 l 1
 525 525 l 1
 735 735 l 1
EndSplineSet
EndChar

